<svg version="1.1" viewBox="0 0 550 500" class="aus">
	<script type="text/javascript">
		// <![CDATA[
			this.SEATS = this.SEATS || {};
			this.SEATS.aus = {
				iconSize: 22.28,
				seatPositions: [
					[487.096, 231.042],
					[460.85, 231.042],
					[434.604, 231.042],
					[408.359, 231.042],
					[382.112, 231.042],
					[355.868, 231.042],
					[329.621, 231.042],
					[303.377, 231.042],
					[277.131, 231.042],
					[250.886, 231.042],
					[198.393, 231.042],
					[172.148, 231.042],
					[145.901, 231.042],
					[119.656, 231.042],
					[93.41, 231.042],
					[67.165, 231.042],
					[40.92, 231.042],
					[513.341, 231.042],
					[14.674, 231.042],
					[224.639, 231.042],
					[487.096, 257.277],
					[460.85, 257.277],
					[434.604, 257.277],
					[408.359, 257.277],
					[382.112, 257.277],
					[355.868, 257.277],
					[329.621, 257.277],
					[303.377, 257.277],
					[277.131, 257.277],
					[250.886, 257.277],
					[198.393, 257.277],
					[172.148, 257.277],
					[145.901, 257.277],
					[119.656, 257.277],
					[93.41, 257.277],
					[67.165, 257.277],
					[40.92, 257.277],
					[513.341, 257.277],
					[14.674, 257.277],
					[224.639, 257.277],
					[487.096, 283.512],
					[460.85, 283.512],
					[434.604, 283.512],
					[408.359, 283.512],
					[382.112, 283.512],
					[355.868, 283.512],
					[329.621, 283.512],
					[303.377, 283.512],
					[277.131, 283.512],
					[250.886, 283.512],
					[198.393, 283.512],
					[172.148, 283.512],
					[145.901, 283.512],
					[119.656, 283.512],
					[93.41, 283.512],
					[67.165, 283.512],
					[40.92, 283.512],
					[513.341, 283.512],
					[224.639, 283.512],
					[487.096, 309.745],
					[460.85, 309.745],
					[434.604, 309.745],
					[408.359, 309.745],
					[382.112, 309.745],
					[355.868, 309.745],
					[329.621, 309.745],
					[303.377, 309.745],
					[277.131, 309.745],
					[250.886, 309.745],
					[198.393, 309.745],
					[172.148, 309.745],
					[145.901, 309.745],
					[119.656, 309.745],
					[93.41, 309.745],
					[67.165, 309.745],
					[40.92, 309.745],
					[513.341, 309.745],
					[224.639, 309.745],
					[487.096, 335.979],
					[460.85, 335.979],
					[434.604, 335.979],
					[408.359, 335.979],
					[382.112, 335.979],
					[355.868, 335.979],
					[329.621, 335.979],
					[303.377, 335.979],
					[277.131, 335.979],
					[172.148, 335.979],
					[145.901, 335.979],
					[119.656, 335.979],
					[93.41, 335.979],
					[67.165, 335.979],
					[40.92, 335.979],
					[487.096, 362.215],
					[460.85, 362.215],
					[434.604, 362.215],
					[408.359, 362.215],
					[382.112, 362.215],
					[355.868, 362.215],
					[329.621, 362.215],
					[303.377, 362.215],
					[93.41, 362.215],
					[67.165, 362.215],
					[40.92, 362.215],
					[460.85, 388.447],
					[434.604, 388.447],
					[408.359, 388.447],
					[382.112, 388.447],
					[355.868, 388.447],
					[329.621, 388.447],
					[487.096, 204.809],
					[460.85, 204.809],
					[434.604, 204.809],
					[408.359, 204.809],
					[382.112, 204.809],
					[355.868, 204.809],
					[329.621, 204.809],
					[303.377, 204.809],
					[277.131, 204.809],
					[250.886, 204.809],
					[198.393, 204.809],
					[172.148, 204.809],
					[145.901, 204.809],
					[119.656, 204.809],
					[93.41, 204.809],
					[67.165, 204.809],
					[40.92, 204.809],
					[513.341, 204.809],
					[14.674, 204.809],
					[224.639, 204.809],
					[487.096, 178.574],
					[460.85, 178.574],
					[434.604, 178.574],
					[408.359, 178.574],
					[382.112, 178.574],
					[355.868, 178.574],
					[329.621, 178.574],
					[303.377, 178.574],
					[277.131, 178.574],
					[250.886, 178.574],
					[198.393, 178.574],
					[172.148, 178.574],
					[145.901, 178.574],
					[119.656, 178.574],
					[93.41, 178.574],
					[67.165, 178.574],
					[40.92, 178.574],
					[14.674, 178.574],
					[224.639, 178.574],
					[460.85, 152.34],
					[434.604, 152.34],
					[408.359, 152.34],
					[382.112, 152.34],
					[355.868, 152.34],
					[329.621, 152.34],
					[303.377, 152.34],
					[277.131, 152.34],
					[250.886, 152.34],
					[198.393, 152.34],
					[172.148, 152.34],
					[145.901, 152.34],
					[119.656, 152.34],
					[93.41, 152.34],
					[67.165, 152.34],
					[40.92, 152.34],
					[224.639, 152.34],
					[434.604, 126.105],
					[408.359, 126.105],
					[382.112, 126.105],
					[355.868, 126.105],
					[329.621, 126.105],
					[303.377, 126.105],
					[277.131, 126.105],
					[250.886, 126.105],
					[198.393, 126.105],
					[172.148, 126.105],
					[145.901, 126.105],
					[119.656, 126.105],
					[224.639, 126.105],
					[434.604, 99.872],
					[408.359, 99.872],
					[382.112, 99.872],
					[355.868, 99.872],
					[329.621, 99.872],
					[303.377, 99.872],
					[277.131, 99.872],
					[250.886, 99.872],
					[198.393, 99.872],
					[172.148, 99.872],
					[145.901, 99.872],
					[119.656, 99.872],
					[224.639, 99.872],
					[434.604, 73.637],
					[408.359, 73.637],
					[382.112, 73.637],
					[303.377, 73.637],
					[277.131, 73.637],
					[250.886, 73.637],
					[198.393, 73.637],
					[172.148, 73.637],
					[145.901, 73.637],
					[224.639, 73.637],
					[408.359, 47.403],
					[408.359, 467.15],
					[382.112, 47.403],
					[303.377, 47.403],
					[277.131, 47.403],
					[250.886, 47.403],
					[172.148, 47.403],
					[224.639, 47.403]
				]
			};
		// ]]>
	</script>
	<g class="walls">
		<polygon points="530.123,283.56 530.146,281.357 529.895,279.444 528.359,273.896 527.823,270.753 528.821,267.809 529.271,257.976 531.029,253.296 530.616,252.627 529.492,251.706 529.061,250.834 528.498,248.907 528.936,245.226 527.697,242.75 526.096,241.489 525.207,239.469 524.64,237.824 524.62,236.938 524.361,235.411 523.161,234.236 522.348,233.646 520.561,231.916 519.833,230.329 518.398,225.874 517.663,224.644 515.966,223.185 514.485,222.942 513.599,222.501 510.499,219.385 509.5,218.68 508.818,217.311 507.68,215.81 507.055,214.726 506.064,213.521 505.756,209.41 506.225,205.493 506.544,200.805 505.634,198.407 505.058,197.608 504.326,197.748 504.109,199.204 504.181,200.218 503.658,200.207 502.021,198.706 499.965,197.083 498.914,195.403 498.227,193.867 497.467,193.831 496.97,193.999 496.252,195.725 496.711,198.863 496.29,199.216 495.662,198.442 494.521,196.704 493.805,197.151 492.934,197.252 492.311,195.552 491.759,194.487 491.227,191.042 490.771,187.256 490.961,184.569 489.455,182.926 489.1,180.357 488.652,179.581 488.361,177.745 486.697,175.214 484.911,173.347 483.396,171.61 482.232,169.238 483.011,167.717 483.982,168.143 485.048,168.104 484.352,166.379 483.645,165.204 481.736,162.932 480.828,162.313 478.698,161.799 476.526,159.682 475.161,158.723 474.118,158.472 472.991,158.087 472.223,156.938 470.813,156.452 468.885,154.146 468.061,151.923 467.598,151.104 466.974,150.447 465.884,150.696 465.05,150.794 463.196,150.326 462.643,149.402 461.529,148.204 459.236,147.7 457.459,146.846 456.115,146.03 454.735,145.038 453.545,143.491 452.537,141.462 452.926,138.979 453.344,137.395 451.936,136.654 449.622,133.05 449.581,131.651 450.475,128.887 451.572,124.071 450.77,120.345 449.086,115.753 449.395,113.537 448.417,113.41 447.318,112.899 445.855,110.569 444.777,109.043 444.034,107.643 443.271,105.794 443.518,104.37 443.78,103.395 444.053,100.829 443.087,98.244 442.91,95.669 442.035,92.371 442.469,90.265 442.385,88.492 442.136,86.958 442.544,86.018 442.771,84.791 441.362,83.47 439.833,82.414 437.852,80.583 434.329,77.752 433.602,75.714 432.16,73.854 429.979,74.4 428.417,74.619 426.948,75.839 424.852,76.694 423.01,75.683 422.104,74.881 421.6,72.219 420.855,69.294 420.183,67.813 419.727,66.049 420.447,61.826 419.75,59.799 419.703,56.794 419.072,53.358 418.355,51.604 418.475,50.222 417.015,48.128 416.582,46.664 415.701,46.092 414.632,45.212 414.534,44.091 414.623,43.302 415.393,42.007 415.827,40.297 414.284,39.763 413.179,39.626 412.446,39.039 411.628,38.149 411.447,35.438 411.575,32.596 411.453,30.804 411.058,29.444 410.766,28.017 410.02,26.488 407.723,24.408 407.958,23.653 408.561,22.668 407.723,22.029 406.452,21.962 405.736,23.287 404.521,24.389 402.255,25.164 401.658,29.789 400.082,34.835 398.664,38.526 398.868,39.676 398.722,40.783 398.036,40.253 397.508,39.607 396.538,41.045 394.719,44.816 394.485,46.811 395.419,47.4 396.052,47.952 396.848,48.166 397.229,48.681 397.391,49.653 397.857,50.52 397.669,51.401 397.08,51.025 395.773,50.959 395.087,51.718 393.316,53.189 393.58,57.706 392.68,60.038 391.852,61.83 390.857,65.247 390.88,67.104 391.623,68.452 392.341,70.394 391.727,73.012 391.148,74.864 392.006,80.354 392.225,83.286 391.493,85.204 389.451,90.968 388.471,95.177 388.613,97.535 387.777,99.646 386.736,103.06 385.637,105.604 381.918,110.67 381.12,113.179 379.857,116.286 377.284,117.997 375.376,119.071 371.225,120.025 368.879,119.899 367.686,119.133 367.021,118.512 364.271,117.387 360.974,114.983 358.354,114.144 357.155,111.826 357.041,110.859 356.64,109.608 355.314,107.932 352.729,107.298 350.11,106.025 348.48,106.145 344.971,105.023 342.598,103.496 340.482,101.436 337.709,97.902 335.313,96.902 332.234,95.395 330.48,94.168 329.406,93.55 328.188,92.635 327.097,92.809 325.218,92.793 324.046,91.931 323.909,91.261 324.067,90.747 324.183,89.813 323.74,89.653 323.345,89.646 322.994,89.886 322.495,90.074 320.824,89.301 318.518,88.05 318.088,86.981 317.364,85.662 314.117,83.733 312.253,82.127 308.158,79.801 307.077,78.702 306.739,77.736 306.455,76.352 307.417,74.909 308.325,73.908 311.217,69.704 312.075,68.976 313.188,67.834 314.177,64.74 314.701,62.997 313.886,60.296 313.944,55.781 317.28,54.082 318.186,53.876 319.096,53.496 320.041,54.055 320.68,54.93 321.384,54.796 323.292,51.673 323.012,50.358 322.275,49.234 322.537,48.55 328.38,42.471 327.7,40.952 326.849,40.589 325.232,40.655 323.691,39.318 322.771,36.784 321.409,36.686 318.95,39.21 318.64,39.771 319.239,40.127 319.722,41.689 318.737,43.498 317.78,43.482 316.271,43.286 315.584,41.968 315.256,39.989 314.306,39.407 313.14,39.785 312.224,40.463 311.566,40.651 311.018,40.199 310.977,39.361 312.455,37.999 313.626,37.152 313.73,36.809 312.877,36.525 312.985,35.886 314.11,34.768 313.605,34.71 312.229,35.899 310.806,36.596 308.871,38.05 306.086,38.979 304.207,40.291 301.538,39.845 299.126,38.54 298.576,37.846 297.37,36.85 294.689,37.915 292.973,37.781 292.067,37.407 290.453,37.126 289.094,36.159 285.814,34.618 282.278,34.315 280.61,34.389 279.348,33.599 278.135,33.13 275.708,32.813 274.696,31.63 273.428,29.24 272.566,28.576 271.098,28.358 269.531,29.475 268.621,29.996 266.895,28.031 263.744,26.026 262.729,25.738 262.175,26.235 261.825,27.175 261.217,27.278 260.506,26.863 259.283,25.665 258.471,25.45 256.4,26.751 256.506,27.194 258.232,27.844 260.066,29.605 260.929,29.969 262.95,29.485 265.736,29.813 268.526,32.044 268.125,33.155 267.929,34.686 267.984,36.388 267.939,37.521 269.104,38.774 268.599,38.875 267.286,38.586 266.277,38.936 265.271,39.534 264.876,41.237 264.317,40.452 262.648,39.698 261.645,40.298 260.035,41.075 258.521,40.768 257.561,40.382 255.296,41.069 251.263,41.089 249.893,40.168 249.473,38.544 249.165,38.154 248.82,38.874 248.172,39.721 245.752,39.927 245.354,40.278 245.514,41.09 245.475,42.104 244.518,42.19 243.362,42.479 243.529,43.734 243.742,44.694 243.295,45.194 242.025,44.326 241.459,43.372 240.549,43.091 239.848,43.447 239.709,44.313 239.838,46.508 239.188,46.79 237.525,46.721 236.777,47.154 235.713,49.938 233.618,51.04 233.342,52.501 233.21,53.737 234.951,55.925 234.168,57.076 233.281,58.03 232.386,58.443 230.538,58.854 229.154,59.895 228.623,60.969 228.542,62.006 228.166,63.323 227.596,64.866 227.511,65.708 226.278,66.576 224.082,69.123 223.037,71.691 224.512,73.038 226.227,73.983 227.47,73.931 227.525,74.176 226.201,75.244 227.068,76.26 228.332,77.219 229.081,77.35 229.636,77.732 228.496,78.005 226.707,78.12 226.432,79.188 226.654,80.418 226.975,81.472 226.791,82.217 226.135,81.713 225.82,80.932 224.295,79.34 223.191,78.872 221.643,78.542 221.155,79.049 221.311,81.515 220.988,82.659 220.428,82.032 220.238,80.233 218.762,78.792 212.857,77.502 212.061,77.428 210.672,77.668 209.791,78.263 209.708,78.858 209.074,79.323 208.095,79.898 207.173,80.719 206.596,81.43 206.619,82.269 207.409,83.824 207.867,84.254 207.79,85.021 207.073,84.255 206.422,84.03 205.861,85.284 205.273,85.551 205.323,82.114 205.854,79.748 206.311,78.351 206.828,77.271 206.563,76.71 202.388,73.613 200.615,71.028 199.324,69.592 197.284,68.23 196.258,67.378 193.918,66.08 191.188,65.22 189.896,63.985 188.432,63.597 186.703,64.285 186.545,65.504 186.834,66.654 185.502,68.614 183.991,69.716 182.751,68.582 181.623,67.789 180.547,68.454 180.236,69.508 179.701,69.927 179.275,69.229 178.567,67.676 177.646,67.097 176.757,67.409 177.104,68.656 177.63,69.325 177.518,70.32 176.887,70.82 176.824,71.764 176.475,73.042 176.592,74.794 175.563,75.213 174.869,76.632 174.311,76.36 174.125,75.453 173.789,74.553 172.68,74.258 172.268,75.145 172.029,75.454 171.634,75.521 171.903,74.791 171.85,73.48 172.094,72.107 171.025,71.663 170.59,71.98 170.689,73.165 170.461,74.91 169.426,75.232 168.514,76.069 167.17,76.137 166.439,76.545 166.23,77.473 165.08,78.498 165.129,79.61 166.023,80.729 166.117,81.716 168.098,82.631 168.043,83.649 167.766,84.134 167.013,83.974 165.436,83.188 163.84,83.097 163.324,82.701 163.139,83.009 163.17,83.678 162.547,84.205 161.706,84.3 160.699,85.097 161.494,86.169 161.367,86.648 161.739,87.173 163.33,87.188 164.018,87.003 164.11,87.965 163.957,88.938 163.329,89.319 162.693,88.461 159.542,86.92 158.742,86.814 158.618,87.343 158.8,88.025 158.196,88.901 157.111,90.078 156.305,89.825 155.426,90.123 154.926,92.036 154.822,93.952 155.876,95.206 156.654,96.898 157.932,94.693 158.512,94.413 158.557,95.328 158.061,96.322 157.773,97.529 157.74,98.845 156.806,98.948 155.762,98.834 155.536,99.268 155.192,100.279 155.508,101.626 156.224,102.104 157.797,101.966 159.132,101.99 160.388,102.417 160.605,102.826 159.51,102.639 157.302,102.911 156.208,102.775 154.146,102.994 152.527,102.296 151.75,101.572 150.557,101.444 149.439,101.81 148.857,102.938 148.085,103.257 146.165,100.669 145.071,100.563 144.514,101.219 145.15,102.892 144.962,103.946 144.365,104.753 143.624,104.751 143.151,105.128 143.584,105.796 144.867,107.552 145.943,108.279 146.888,109.313 147.384,110.25 148.461,110.132 148.748,110.885 148.172,112.037 148.32,113.815 147.883,113.916 147.225,113.561 145.938,112.549 145.288,112.392 145.012,112.707 144.957,113.479 145.363,115.416 144.886,118.227 145.08,119.033 144.974,119.734 144.455,119.271 143.757,118.225 142.338,116.653 140.555,113.094 138.692,110.732 137.635,108.69 136.023,104.823 135.28,104.798 134.449,106.568 133.553,108.892 132.885,110.056 131.285,111.26 130.324,112.446 129.123,112.929 127.832,114.289 126.972,115.446 125.768,118.096 125.631,119.747 125.794,121.452 126.543,123.859 127.414,127.354 128.364,127.657 129.135,128.198 129.01,129.276 127.938,130.052 124.713,133.65 122.465,135.016 121.845,135.909 121.146,137.731 120.046,140.058 119.616,141.511 118.511,144.338 116.662,147.55 114.711,149.977 112.441,151.984 110.92,152.984 105.159,156.023 102.067,157.271 96.41,158.485 94.063,159.854 91.006,159.769 87.625,159.844 83.281,164.124 79.443,165.438 76.066,166.487 74.645,167.263 71.474,169.829 69.617,171.033 66.063,172.574 64.571,172.613 62.41,171.798 60.527,172.262 58.414,172.35 56.708,172.646 55.465,173.645 48.075,179.122 46.695,180.523 45.292,182.534 43.161,184.461 41.542,186.604 37.951,189.076 34.122,191.11 32.342,192.605 31.145,194.508 29.331,199.402 28.963,200.616 28.132,201.943 26.924,202.563 26.128,203.051 26.107,200.724 24.948,198.831 25.047,194.845 24.659,193.707 23.44,194.657 22.699,195.594 21.331,201.508 20.473,206.113 21.889,208.449 22.464,209.864 22.679,211.431 22.613,213.721 22.816,215.188 22.945,217.146 20.972,222.018 20.415,224.102 20.072,227.981 20.234,229.761 20.656,232.339 22.096,234.463 23.128,235.734 25.009,239.621 26.965,242.104 30.319,247.146 33.746,251.141 34.169,252.777 34.179,255.08 34.702,257.388 34.304,258.154 33.33,259.106 31.952,258.266 31.179,257.44 29.87,254.259 29.525,254.131 29.238,255.644 28.739,256.352 28.129,256.01 27.637,255.523 27.46,254.967 27.543,254.269 27.355,251.76 26.004,250.512 24.724,249.126 23.524,248.923 22.943,249.72 23.084,250.664 24.991,253.098 26.377,255.813 28.102,257.383 29.083,257.721 30.201,258.673 30.335,261.114 29.788,262.107 29.267,262.641 27.283,262.402 26.564,260.732 24.543,257.53 23.843,256.289 23.38,256.002 23.296,256.676 23.521,257.837 23.327,258.398 23.001,258.396 22.315,257.865 21.765,257.618 21.417,257.771 22.138,258.526 23.844,260.86 29.5,266.311 34.601,272.837 35.887,275.539 37.279,281.648 37.91,283.075 40.702,285.783 43.521,288.995 44.456,290.657 44.688,292.169 45.352,293.541 48.781,296.995 50.65,300.954 51.058,302.439 51.102,305.09 52.114,309.625 52.804,312.056 54.571,316.813 56.344,320.173 58.081,322.174 60.789,326.743 64.602,331.913 65.499,334.591 66.463,341.933 66.619,344.337 66.038,344.825 65.77,345.898 67.166,350.577 67.727,353.276 67.24,355.95 66.546,358.378 64.93,360.185 62.861,360.543 61.74,359.8 60.354,359.046 60.833,363.203 61.383,366.718 61.986,367.993 62.295,369.567 63.888,370.568 64.607,369.979 65.566,369.783 69.215,371.013 71.297,372.174 74.98,375.555 77.818,376.158 81.568,377.419 85.707,377.4 88.941,377.061 94.178,377.293 95.217,376.83 97.35,376.252 98.938,375.444 100.393,374.883 104.339,370.774 108.26,366.585 110.371,366.033 112.352,365.776 114.551,364.245 116.224,360.197 117.221,359.235 118.584,358.106 122.719,357.08 125.229,357.213 126.473,356.455 129.751,355.416 136.66,354.099 140.544,354.225 143.091,353.909 144.479,354.029 145.716,355.609 152.979,353.518 155.098,353.236 156.439,353.346 158.176,354.469 159.939,353.131 161.657,353.14 163.217,351.871 165.521,348.261 166.494,346.05 168.041,341.387 169.282,339.656 170.768,338.753 172.555,338.351 175.291,337.338 181.092,333.102 183.412,332.135 184.617,331.339 188.619,328.12 191.229,327.37 199.05,327.729 202.686,327.341 205.526,326.729 209.746,324.922 214.387,323.504 220.068,320.725 224.85,317.901 227.756,317.208 232.334,316.59 239.141,315.703 247.119,315.855 249.12,315.271 250.073,314.783 251.465,314.237 253.182,314.578 254.504,314.924 258.523,316.983 264.571,321.324 265.926,321.484 269.842,320.44 271.151,320.528 276.662,323.734 278.969,323.804 280.799,323.729 282.146,324.074 283.626,324.939 285.361,326.991 289,328.953 289.207,330.509 288.898,331.518 288.076,331.563 287.383,331.782 288.275,335.066 289.771,337.713 293.432,338.084 294.76,339.032 295.61,340.076 296.28,341.735 296.725,344.305 298.542,346.495 300.229,348.341 300.604,349.086 301.376,351.71 301.663,352.454 302.263,355.028 303.193,357.953 302.936,358.245 302.341,358.188 301.333,357.432 300.454,356.581 299.984,356.724 299.424,357.284 299.33,357.974 300.14,357.786 300.604,357.916 301.694,358.819 302.695,359.869 303.533,360.474 305.436,363.094 306.207,362.54 307.146,362.038 308.6,363.47 309.186,363.753 309.535,363.218 309.038,360.691 308.5,360.089 308.393,359.174 309.083,358.547 309.439,357.788 311.181,355.947 314.979,350.355 316.105,349.715 317.421,348.513 319.244,347.596 321.073,346.533 322.243,346.121 323.407,345.931 324.727,344.907 326.192,342.111 327.379,338.791 328.55,337.346 330.33,335.823 331.706,333.67 331.683,331.94 331.745,330.19 332.648,331.578 333.204,332.954 333.979,337.6 333.121,338.582 332.242,339.046 332.354,340.654 332.877,342.771 333.027,344.456 331.16,346.17 329.497,348.313 327.509,352.545 327.337,353.848 326.977,355.639 327.048,357.222 327.292,358.759 326.743,361.112 325.908,363.209 324.936,363.229 324.303,363.136 322.817,363.265 321.511,363.104 319.809,367.673 320.771,367.896 321.538,367.672 322.886,367.71 324.388,366.939 326.604,366.315 327.86,366.604 329.339,366.577 331.676,360.755 332.376,356.903 333.55,355.216 333.938,354.044 334.536,352.905 335.605,354.92 336.464,356.829 338.369,359.989 338.938,361.518 338.984,365.25 337.531,369.466 336.679,370.668 335.667,371.691 334.834,373.463 337.205,373.998 338.715,374.033 341.208,372.826 341.72,372.675 342.938,372.702 343.434,372.031 344.641,371.441 345.563,370.717 346.77,370.177 347.8,370.62 347.991,370.976 348.268,371.359 347.801,372.202 347.708,373.979 347.006,373.747 346.474,372.66 345.662,372.895 345.118,373.662 343.999,373.366 344.141,373.891 344.718,374.953 347.004,377.011 349.455,379.745 350.347,381 352.207,385.023 353.42,389.216 353.224,390.441 352.393,392.6 351.727,394.792 351.7,395.952 352.105,397.456 353.043,399.039 356.643,403.362 358.411,407.073 360.979,409.104 365.283,410.056 367.462,411.556 369.651,414.423 370.363,414.717 371.53,414.894 373.12,413.342 375.376,413.671 378.198,415.533 379.972,415.267 381.21,415.556 382.911,416.627 385.294,418.646 387.912,419.797 389.395,421.307 390.624,421.606 392.789,422.707 394.515,422.083 396.021,421.219 399.59,418.15 402.306,416.752 403.745,416.262 404.83,416.063 406.317,415.154 405.546,414.336 404.723,414.385 403.388,413.84 404.211,413.417 405.102,413.126 409.354,410.984 410.328,411.825 410.965,412.732 411.61,413.94 410.82,415.508 410.209,416.221 408.86,417.313 407.401,417.223 406.684,417.057 407.989,418.549 409.181,419.584 411.95,418.185 412.748,416.916 413.317,416.226 414.186,416.137 415.373,416.505 415.745,417.515 415.852,418.722 414.924,418.952 414.421,419.774 414.004,420.555 415.451,421.771 416.138,422.516 417.105,422.589 418.213,422.878 418.83,424.513 419.417,426.371 420.398,425.976 421.02,425.566 421.967,426.117 422.834,427.633 423.513,429.33 423.508,430.003 424.146,430.396 424.809,429.971 425.214,429.34 425.332,428.105 425.419,426.142 425.016,425.798 423.879,426.748 423.413,425.923 422.753,425.028 422.852,424.239 423.743,423.938 424.445,424.188 425.329,424.283 430.119,424.115 436.958,418.498 439.939,416.497 442.93,415.102 445.922,414.339 447.475,414.153 455.22,414.534 459.2,415.258 461.334,415.09 462.357,414.625 464.229,413.244 465.518,412.414 466.942,412.332 467.458,411.17 467.659,409.89 468.154,408.599 468.146,406.004 468.789,402.694 469.348,400.985 470.591,398.664 471.355,396.177 472.326,392.659 472.986,390.585 473.702,388.695 475.154,386.705 476.329,385.432 479.355,380.487 480.229,380.081 480.896,380.175 481.198,379.89 481.328,379.605 481.193,379.385 480.997,378.727 481.243,378.257 482.03,377.864 482.212,378.066 482.563,378.015 482.688,377.756 482.58,376.278 483.363,374.296 484.511,370.826 485.395,369.313 486.013,368.115 487.834,366.405 489.777,364.766 489.347,364.479 488.564,364.239 489.145,363.844 489.587,363.78 490.005,364.143 490.563,363.364 490.896,362.075 491.583,360.205 491.509,358.479 492.355,358.071 493.299,357.878 493.921,356.149 494.286,355.496 494.944,354.909 496.063,353.632 497.023,352.256 499.178,349.716 501.074,348.808 503.698,348.287 504.082,347.813 503.488,347.421 503.541,347.1 504.482,347.24 505.03,346.311 506.132,345.741 508.083,344.29 508.895,342.843 509.439,341.66 510.077,338.871 513.403,335.577 516.13,330.877 517.095,327.73 517.86,326.049 518.584,323.55 518.762,320.841 519.21,318.627 522.02,313.229 522.84,310.945 523.702,309.531 525.5,304.001 526.015,301.089 527.939,297.857 530.162,295.357 530.714,292.778 530.452,290.71 531.209,286.539 		"/>
		<polygon points="425.936,490.136 425.634,490.1 425.002,490.748 424.765,491.32 424.563,491.396 424.349,491.795 424.076,492.086 423.511,491.768 423.477,492.015 423.82,493.057 424.684,492.912 425.438,493.254 426.141,491.864 426.138,491.112 		"/>
		<polygon points="397.737,434.82 396.826,433.918 396.264,433.918 396.036,434.966 395.337,435.501 395.083,436.025 394.995,437.261 394.563,438.366 395.001,439.523 394.764,440.671 394.918,441.48 395.239,441.46 396.482,441.023 397.396,440.31 397.819,439.354 397.583,438.188 397.873,436.945 		"/>
		<polygon points="438.844,455.691 438.184,455.584 436.938,456.756 436.354,456.684 434.266,456.025 433.732,456.412 432.735,457.567 432.152,458.047 431.443,457.736 430.764,457.229 430.21,457.213 429.619,457.469 428.388,457.497 427.148,457.301 426.319,457.58 425.578,458.069 425.244,458.781 425.246,459.631 424.693,458.768 424.098,458.198 423.208,458.646 422.341,458.923 419.539,458.909 417.405,458.024 414.418,456.355 413.962,455.908 413.593,455.369 413.085,454.991 411.975,454.377 411.579,453.737 411.089,453.536 410.454,453.547 409.646,453.015 409.001,452.127 408.38,452.015 407.635,452.288 406.388,452.114 404.023,450.96 403.048,450.144 402.751,451.708 401.768,454.452 401.766,455.845 401.974,457.484 402.428,459.695 402.387,460.388 402.458,460.793 403.559,464.139 404.759,466.873 406.395,469.806 406.472,471.086 406.049,472.313 406.71,472.306 407.17,471.73 407.171,472.354 407.338,472.895 408.762,474.863 408.814,475.368 408.02,476.779 407.827,475.513 407.258,474.481 405.605,472.766 405.638,475.984 405.788,477.271 407.433,482.953 407.73,483.334 408.195,483.607 408.595,484.1 409.211,485.287 410.188,487.813 410.818,488.556 411.938,488.479 413.424,489.119 414.007,489.06 414.282,489.291 414.433,489.882 413.189,489.718 411.941,489.903 411.77,490.333 412.002,490.884 412.146,492.373 413.717,492.049 416.037,492.412 417.486,492.43 418.878,493.942 420.232,494.354 420.658,494.303 421.749,492.832 422.545,491.026 422.95,490.349 423.492,489.789 422.665,488.863 422.688,488.441 422.906,487.993 424.515,489.612 425.352,489.138 425.725,487.907 425.84,487.12 426.112,486.578 426.64,486.392 426.934,485.702 427.048,485.189 426.732,483.899 426.802,483.183 427.762,484.803 427.924,486.825 428.909,486.421 429.069,486.116 429.121,484.744 429.605,484.329 430.804,484.854 431.817,485.809 431.84,486.163 431.706,486.547 431.354,486.828 430.497,486.369 429.993,486.907 430.342,488.431 431.038,489.921 431.622,489.619 432.78,489.591 433.214,489.271 433.378,486.459 433.273,484.365 433.577,482.123 433.874,480.933 434.553,480.041 435.084,479.106 435.241,477.821 435.619,476.617 436.27,475.422 437.063,474.571 437.403,474.388 437.254,474.094 437.686,473.321 438.273,472.795 438.432,473.543 438.003,473.789 437.725,474.078 438.407,474.719 438.564,475.217 438.559,475.768 438.382,476.396 438.455,476.934 438.86,477.086 439.078,476.438 439.086,475.636 439.307,474.961 439.238,474.401 439.042,473.898 439.123,473.383 439.443,472.319 439.379,470.706 439.864,468.311 439.945,467.017 440.18,465.741 440.664,464.124 440.837,462.466 440.811,461.608 440.859,460.763 441.337,458.391 440.678,456.977 		"/>
		<polygon points="20.275,254.59 20.123,253.598 19.52,252.697 17.411,248.695 16.977,248.914 16.607,249.556 17.758,252.481 20.907,256.578 21.134,255.934 20.503,254.861 		"/>
		<polygon points="435.389,481.427 434.793,482.027 434.819,482.357 434.668,483.091 434.89,483.168 435.479,483.119 435.504,482.696 436.29,482.37 436.102,481.845 		"/>
		<polygon points="331.793,374.957 330.684,375.438 327.891,374.997 327.941,374.776 328.395,373.854 327.826,373.315 327.205,373.074 324.904,372.83 322.061,373.758 316.743,374.825 316.05,375.646 315.559,376.794 316.127,377.449 318.009,378.904 319.798,379.148 321.146,378.842 322.558,379.104 323.293,378.336 325.279,378.938 326.004,379.726 327.698,379.09 328.121,377.844 328.686,377.295 330.625,376.941 332.651,377.556 333.283,377.48 333.979,376.839 333.116,375.425 		"/>
		<polygon points="39.573,177.77 40.25,176.55 40.273,175.514 39.858,174.858 38.942,176.106 38.433,177.105 38.643,177.658 		"/>
		<polygon points="156.515,89.045 157.016,89.141 157.54,88.69 157.607,88.041 156.982,87.432 156.807,86.871 156.357,86.847 156.177,87.204 155.914,87.913 156.487,88.477 		"/>
		<polygon points="415.311,418.093 414.688,417.458 413.229,417.363 413.071,417.672 412.948,418.382 413.506,418.86 		"/>
		<polygon points="531.326,274.362 530.654,275.732 530.26,277.979 530.571,278.634 530.874,278.755 532.563,275.004 532.368,274.771 		"/>
		<polygon points="531.311,273.271 531.614,273.088 531.688,271.426 532.541,269.171 532.104,269.004 531.431,269.183 531.011,270.414 530.979,271.827 		"/>
		<polygon points="535.042,236 534.741,235.805 534.305,235.895 533.699,236.188 533.136,236.842 533.651,237.168 534.156,238.557 533.802,239.721 533.21,240.572 531.026,242.057 531.082,243.634 530.839,244.358 529.999,245.629 529.514,247.053 529.514,249.634 530.004,250.438 530.381,250.087 530.571,249.104 531.653,246.803 535.247,240.765 535.564,239.545 534.911,238.539 		"/>
		<polygon points="317.067,61.974 316.713,62.214 316.558,62.582 316.551,63.1 317.797,63.392 318.148,63.249 318.657,62.789 318.425,61.576 317.883,60.976 		"/>
		<polygon points="404.209,446.919 404.138,446.837 403.727,447.321 403.23,447.473 403.495,448.991 404.021,447.872 		"/>
		<polygon points="165.293,76.555 165.177,76.164 165.178,75.049 164.67,74.827 164.094,75.352 163.809,76.805 164.438,77.49 		"/>
		<polygon points="443.055,449.381 441.534,449.914 440.048,449.701 439.448,449.979 439.516,450.336 440.318,451.114 441.521,451.343 442.707,451.166 442.926,452.099 443.495,452.021 444.396,451.359 443.948,450.349 		"/>
		<polygon points="412.111,419.271 411.031,420.162 412.618,420.193 413.523,420.831 413.475,420.552 413.15,419.822 412.896,419.548 		"/>
		<polygon points="443.42,444.787 443.146,444.476 442.221,443.934 440.62,441.125 439.972,440.595 438.727,441.969 437.857,442.414 438.252,443.038 438.974,443.053 439.153,444.026 438.907,444.622 440.038,447.043 440.189,447.64 440.444,448.097 440.754,448.438 441.956,448.162 443.028,447.421 443.182,447.466 443.362,447.063 442.67,446.322 443.173,445.91 		"/>
		<polygon points="441.188,451.979 440.329,452.119 440.357,452.448 440.922,453.222 441.632,452.208 441.458,452.037 		"/>
		<polygon points="426.768,487.359 426.43,487.819 426.29,488.252 426.03,488.445 426.398,488.816 426.411,489.519 426.655,489.674 427.297,489.753 427.179,487.96 		"/>
		<polygon points="486.641,165.692 487.12,165.741 487.422,165.624 487.489,165.43 486.993,164.577 486.803,163.581 486.043,165.378 		"/>
		<polygon points="486.188,163.44 486.494,163.271 486.765,161.998 486.251,162.296 485.869,162.731 485.57,163.302 485.893,163.484 		"/>
		<polygon points="496.25,194.042 496.317,193.422 496.241,191.958 495.729,192.275 495.561,193.36 495.729,194.435 		"/>
		<polygon points="232.863,34.962 235.429,34.148 238.068,35.015 239.53,34.718 239.472,34.103 239.111,33.59 238.6,33.13 237.432,32.805 237.011,31.577 236.336,30.405 236.217,29.148 235.645,27.974 235.036,27.985 234.434,28.317 233.092,30.021 233.561,30.926 233.736,32.575 232.936,33.133 231.972,32.931 231.592,34.443 232.105,34.976 		"/>
		<polygon points="450.72,133.414 451.662,134.513 452.146,135.824 452.982,136.368 453.363,135.877 453.661,135.204 453.158,134.115 452.972,132.729 452.59,132.624 452.329,132.825 451.73,132.975 450.52,132.825 		"/>
		<polygon points="503.721,196.797 504.171,196.624 503.97,195.469 503.526,195.164 503.388,195.953 503.039,196.489 503.341,196.776 		"/>
		<polygon points="510.632,218.697 510.938,218.534 511.477,217.998 511.29,217.219 510.814,216.101 511.071,215.177 510.727,214.907 510.347,214.91 509.928,214.479 508.857,213.918 508.411,214.869 509.996,218.113 		"/>
		<polygon points="401.925,20.788 401.808,21.179 401.975,22.079 402.717,22.563 403.917,21.807 402.917,20.146 		"/>
		<polygon points="403.376,15.067 404.23,15.383 405.131,14.537 404.602,13.791 403.425,13.856 403.092,14.558 		"/>
		<polygon points="323.708,28.587 325.773,26.01 326.373,23.431 325.66,23.59 325.592,24.723 325.327,25.483 325.02,25.748 324.453,26.231 323.155,28.28 322.641,28.788 322.683,29.431 		"/>
		<polygon points="320.577,31.441 321.908,30.403 322.02,29.789 321.609,30.078 319.01,31.315 317.776,32.727 320.018,31.703 		"/>
		<polygon points="236.881,29.506 238.128,31.928 240.021,33.649 244.348,36.196 249.115,33.072 250.363,31.231 251.426,31.293 251.567,30.182 252.57,29.134 252.314,28.841 251.652,28.379 251.087,27.399 249.457,26.48 248.74,25.677 247.988,26.45 246.926,26.735 245.266,27.77 244.811,27.875 243.742,27.446 241.477,28.543 239.602,28.448 238.778,27.476 238.166,27.116 236.881,25.756 236.525,25.737 236.273,25.89 236.076,26.238 236.6,27.488 		"/>
		<polygon points="402.709,13.895 403.104,12.923 402.513,12.423 401.761,13.376 402.339,14.247 		"/>
		<polygon points="265.971,25.15 267.094,27.34 267.396,27.116 267.896,25.215 267.438,24.329 267.383,22.775 267.178,22.382 266.572,23.224 265.813,23.352 266.271,24.483 		"/>
		<polygon points="321.436,88.302 321.574,88.921 321.771,88.998 322.614,88.966 322.932,87.763 322.588,87.608 321.694,87.738 "/>
		<polygon points="358.546,105.479 359.136,105.499 360.13,105.216 360.646,104.567 361.18,104.76 362.257,103.542 363.018,102.953 364.896,102.828 363.672,101.174 363.479,101.068 361.683,101.616 359.403,101.928 358.488,102.758 357.508,104.106 357.27,105.356 357.454,105.76 		"/>
		<polygon points="361.384,110.279 360.675,110.846 360.804,111.443 361.352,111.217 362.883,110.979 362.762,110.233 361.855,109.457 		"/>
		<polygon points="328.054,89.425 327.754,89.589 327.443,90.25 328.033,90.461 328.168,91.179 328.896,91.886 329.503,91.233 329.168,90.658 329.14,89.596 328.367,88.616 		"/>
		<polygon points="327.689,69.428 327.957,68.545 327.708,68.465 327.055,68.724 325.717,68.128 325.179,67.501 325.14,66.907 325.771,65.119 326.13,64.583 326.533,64.419 327.401,63.45 327.211,62.879 326.967,62.553 326.621,62.349 325.997,63.643 325.347,63.679 324.757,63.075 324.525,61.96 324.636,61.32 323.987,61.234 322.975,61.855 322.258,62.879 320.74,63.862 320.509,65.932 320.73,67.588 320.222,68.269 319.415,68.773 319.811,69.026 321.157,69.125 323.74,69.815 325.339,69.749 327.13,70.082 		"/>
		<polygon points="326.13,89.013 326.38,88.919 326.735,88.482 326.561,87.245 326.151,87.828 		"/>
	</g>
	<g class="seats"></g>
	<g class="photos"></g>
</svg>
