<svg version="1.1" viewBox="-376 -129 1186 764" class="blr">
	<script type="text/javascript">
		// <![CDATA[
			this.SEATS = this.SEATS || {};
			this.SEATS.blr = {
				iconSize: 23,
				seatPositions: [
					[340.496, 363.5],
					[314.519, 363.5],
					[288.542, 363.5],
					[262.565, 363.5],
					[340.496, 388.5],
					[314.519, 388.5],
					[288.542, 388.5],
					[262.565, 388.5],
					[340.496, 308.062],
					[314.519, 308.062],
					[288.542, 308.062],
					[262.565, 308.062],
					[340.496, 333.062],
					[314.519, 333.062],
					[288.542, 333.062],
					[262.565, 333.062],
					[340.496, 251.931],
					[314.519, 251.931],
					[288.542, 251.931],
					[262.565, 251.931],
					[340.496, 209],
					[314.519, 209],
					[288.542, 209],
					[262.565, 209],
					[340.496, 276.931],
					[314.519, 276.931],
					[288.542, 276.931],
					[262.565, 276.931],
					[92.05, 293.562],
					[66.073, 293.562],
					[40.096, 293.562],
					[14.12, 293.562],
					[92.05, 249],
					[66.073, 249],
					[40.096, 249],
					[14.12, 249],
					[92.05, 318.562],
					[66.073, 318.562],
					[40.096, 318.562],
					[14.12, 318.562],
					[92.05, 350.5],
					[66.073, 350.5],
					[40.096, 350.5],
					[92.05, 375.5],
					[66.073, 375.5],
					[40.096, 375.5],
					[14.12, 375.5],
					[40.096, 406.465],
					[14.12, 406.465],
					[340.496, 419],
					[314.519, 419],
					[288.542, 419],
					[262.565, 419],
					[340.496, 444],
					[314.519, 444],
					[288.542, 444],
					[262.565, 444],
					[457.655, 572],
					[457.655, 546.023],
					[457.655, 520.047],
					[457.655, 494.07],
					[432.655, 572],
					[432.655, 546.023],
					[432.655, 520.047],
					[432.655, 494.07],
					[513.155, 572],
					[513.155, 546.023],
					[513.155, 520.047],
					[513.155, 494.07],
					[488.155, 572],
					[488.155, 546.023],
					[488.155, 520.047],
					[488.155, 494.07],
					[305.155, 572],
					[305.155, 546.023],
					[305.155, 520.047],
					[305.155, 494.07],
					[280.155, 572],
					[280.155, 546.023],
					[280.155, 520.047],
					[280.155, 494.07],
					[248.655, 572],
					[248.655, 546.023],
					[248.655, 520.047],
					[248.655, 494.07],
					[223.655, 572],
					[223.655, 546.023],
					[223.655, 520.047],
					[223.655, 494.07],
					[154.545, 320.538],
					[154.545, 294.562],
					[154.545, 268.585],
					[129.545, 320.538],
					[129.545, 294.562],
					[129.545, 268.585],
					[210.12, 320.538],
					[210.12, 294.562],
					[210.12, 268.585],
					[185.12, 320.538],
					[185.12, 294.562],
					[185.12, 268.585],
					[137.326, 572],
					[137.326, 546.023],
					[137.326, 520.047],
					[137.326, 494.07],
					[112.326, 572],
					[112.326, 546.023],
					[112.326, 520.047],
					[112.326, 494.07],
					[193.045, 572],
					[193.045, 494.07],
					[168.045, 572],
					[168.045, 546.023],
					[168.045, 520.047],
					[168.045, 494.07],
					[457.655, 427.465],
					[457.655, 401.488],
					[457.655, 375.512],
					[457.655, 349.535],
					[432.655, 427.465],
					[432.655, 401.488],
					[432.655, 375.512],
					[432.655, 349.535],
					[402.155, 427.465],
					[402.155, 401.488],
					[402.155, 375.512],
					[402.155, 349.535],
					[377.155, 427.465],
					[377.155, 401.488],
					[377.155, 375.512],
					[457.655, 298.43],
					[457.655, 272.453],
					[457.655, 246.477],
					[457.655, 220.5],
					[432.655, 298.43],
					[432.655, 272.453],
					[432.655, 246.477],
					[514.155, 298.43],
					[514.155, 272.453],
					[514.155, 246.477],
					[489.155, 298.43],
					[489.155, 272.453],
					[489.155, 246.477],
					[432.655, 220.5],
					[402.155, 298.43],
					[402.155, 272.453],
					[402.155, 246.477],
					[402.155, 220.5],
					[377.155, 298.43],
					[377.155, 272.453],
					[377.155, 246.477],
					[377.155, 220.5],
					[164.302, 363.5],
					[138.326, 363.5],
					[190.279, 388.5],
					[164.302, 388.5],
					[138.326, 388.5],
					[190.279, 419],
					[164.302, 419],
					[138.326, 419],
					[190.279, 444],
					[164.302, 444],
					[138.326, 444],
					[394.983, 474.667],
					[369.005, 474.667],
					[343.029, 474.667],
					[394.983, 499.667],
					[369.005, 499.667],
					[343.029, 499.667],
					[394.983, 526],
					[369.005, 526],
					[343.029, 526],
					[394.983, 551],
					[369.005, 551],
					[343.029, 551],
					[394.983, 587.5],
					[369.005, 587.5],
					[343.029, 587.5],
					[-38.398, 337.027],
					[-38.398, 311.05],
					[-38.398, 285.074],
					[-38.398, 259.097],
					[-63.398, 337.027],
					[-63.398, 311.05],
					[-63.398, 285.074],
					[-63.398, 259.097],
					[-94.398, 337.027],
					[-94.398, 311.05],
					[-94.398, 285.074],
					[-94.398, 259.097],
					[-119.398, 337.027],
					[-119.398, 311.05],
					[-119.398, 285.074],
					[-119.398, 259.097],
					[-154.732, 311.05],
					[-154.732, 285.074],
					[-154.732, 259.097],
					[-179.732, 311.05],
					[-179.732, 285.074],
					[-179.732, 259.097],
					[-211.065, 337.027],
					[-211.065, 311.05],
					[-211.065, 285.074],
					[-211.065, 259.097],
					[-236.065, 337.027],
					[-236.065, 311.05],
					[-236.065, 285.074],
					[-236.065, 259.097],
					[-266.732, 337.027],
					[-266.732, 311.05],
					[-266.732, 285.074],
					[-266.732, 259.097],
					[-60.284, 382.465],
					[-86.26, 382.465],
					[-112.237, 382.465],
					[-138.214, 382.465],
					[-60.284, 407.465],
					[-86.26, 407.465],
					[-112.237, 407.465],
					[-138.214, 407.465],
					[-181.95, 382.465],
					[-207.927, 382.465],
					[-233.904, 382.465],
					[-259.88, 382.465],
					[-181.95, 407.465],
					[-207.927, 407.465],
					[-233.904, 407.465],
					[-259.88, 407.465],
					[-60.284, 196.131],
					[-86.26, 196.131],
					[-112.237, 196.131],
					[-138.214, 196.131],
					[-60.284, 221.131],
					[-86.26, 221.131],
					[-112.237, 221.131],
					[-138.214, 221.131],
					[-181.95, 196.131],
					[-207.927, 196.131],
					[-233.904, 196.131],
					[-259.88, 196.131],
					[-181.95, 221.131],
					[-207.927, 221.131],
					[-233.904, 221.131],
					[-259.88, 221.131],
					[-181.95, 140.561],
					[-207.927, 140.561],
					[-233.904, 140.561],
					[-259.88, 140.561],
					[-207.927, 165.561],
					[-233.904, 165.561],
					[-259.88, 165.561],
					[-181.95, 108.895],
					[-207.927, 108.895],
					[-233.904, 108.895],
					[-259.88, 108.895],
					[-112.237, 439],
					[-138.214, 439],
					[-112.237, 464],
					[-138.214, 464],
					[-181.95, 439],
					[-207.927, 439],
					[-233.904, 439],
					[-259.88, 439],
					[-181.95, 464],
					[-207.927, 464],
					[-233.904, 464],
					[-259.88, 464],
					[-112.237, 495.047],
					[-138.214, 495.047],
					[-112.237, 520.047],
					[-138.214, 520.047],
					[-181.95, 495.047],
					[-207.927, 495.047],
					[-233.904, 495.047],
					[-259.88, 495.047],
					[-207.927, 520.047],
					[-233.904, 520.047],
					[-259.88, 520.047],
					[-112.237, 546],
					[-138.214, 546],
					[-207.927, 546],
					[-233.904, 546],
					[-259.88, 546]
				]
			};
		// ]]>
	</script>
	<!-- <polygon class="background" points="9,9 9,613 381,613 381,737 532,737 532,9"/> -->
	<g class="walls">
		<g class="innerWalls">
			<line x1="744.12" y1="187.5" x2="789.12" y2="187.5"/>
					<line x1="667.12" y1="187.5" x2="728.12" y2="187.5"/>
					<line x1="645.12" y1="187.5" x2="651.12" y2="187.5"/>
					<line x1="594.12" y1="187.5" x2="630.12" y2="187.5"/>
					<polyline points="718.846,220.5 761.12,220.5 761.12,238 		"/>
					<line x1="696.464" y1="220.5" x2="703.417" y2="220.5"/>
					<line x1="590.825" y1="220.5" x2="681.204" y2="220.5"/>
					<polyline points="761.12,274 761.12,277.5 558.62,277.5 558.62,220.5 575.055,220.5 		"/>
					<line x1="558.62" y1="573" x2="558.62" y2="617"/>
					<line x1="558.62" y1="496" x2="558.62" y2="557"/>
					<line x1="558.62" y1="475" x2="558.62" y2="481"/>
					<line x1="558.62" y1="303" x2="558.62" y2="459"/>
					<line x1="653.12" y1="374.5" x2="761.12" y2="374.5"/>
					<line x1="593.12" y1="374.5" x2="636.12" y2="374.5"/>
					<line x1="558.12" y1="374.5" x2="576.12" y2="374.5"/>
					<line x1="558.12" y1="422.5" x2="754.12" y2="422.5"/>
					<polyline points="632.897,374.5 632.897,532.776 558.62,532.776 		"/>
					<line x1="558.62" y1="477.667" x2="632.897" y2="477.667"/>
					<line x1="601.94" y1="277.5" x2="601.94" y2="346.534"/>
					<polyline points="761.12,384 754.12,384 754.12,552 761.12,552 		"/>
					<line x1="754.12" y1="277.5" x2="754.12" y2="374.5"/>
					<line x1="608.12" y1="187.5" x2="608.12" y2="109.5"/>
					<line x1="648.787" y1="187.5" x2="648.787" y2="109.5"/>
					<line x1="725.12" y1="187.5" x2="725.12" y2="109.5"/>
					<line x1="410.408" y1="187.5" x2="416.851" y2="187.5"/>
					<line x1="236.892" y1="187.5" x2="394.807" y2="187.5"/>
					<polyline points="209.12,109.5 209.12,187.5 219.045,187.5 		"/>
					<line x1="413.453" y1="187.5" x2="413.453" y2="109.5"/>
					<polyline points="144.19,233.667 181.787,233.667 181.787,171.667 		"/>
					<line x1="121.808" y1="233.667" x2="128.76" y2="233.667"/>
					<line x1="31.937" y1="233.667" x2="106.546" y2="233.667"/>
					<line x1="157.453" y1="171.667" x2="157.453" y2="109.545"/>
					<line x1="105.12" y1="171.667" x2="105.12" y2="109.545"/>
					<line x1="125.12" y1="233.667" x2="125.12" y2="171.667"/>
					<line x1="68.787" y1="233.667" x2="68.787" y2="171.667"/>
					<line x1="84.37" y1="454.855" x2="84.37" y2="617"/>
					<line x1="642.838" y1="220.5" x2="642.838" y2="277.5"/>
					<line x1="699.88" y1="220.5" x2="699.88" y2="277.5"/>
					<line x1="570.303" y1="277.5" x2="570.303" y2="220.5"/>
					<line x1="78.312" y1="472" x2="84.37" y2="472"/>
					<polyline points="-16.4,472.506 -45.378,472.506 -45.378,617 		"/>
					<line x1="61.193" y1="472.506" x2="0" y2="472.506"/>
					<polyline points="11.62,438 11.62,434 84.37,434 84.37,437.691 		"/>
					<polyline points="11.62,109.545 11.62,233.667 16.506,233.667 		"/>
					<line x1="9.571" y1="171.622" x2="209.119" y2="171.622"/>
					<line x1="-42.989" y1="171.622" x2="-4.494" y2="171.622"/>
					<polyline points="-112.278,94.333 -112.278,171.622 -58.351,171.622 "/>
					<line x1="-112.278" y1="75.54" x2="-112.278" y2="77.833"/>
					<line x1="85.967" y1="109.545" x2="-112.278" y2="109.545"/>
					<line x1="138.12" y1="109.5" x2="101.12" y2="109.5"/>
					<line x1="160.12" y1="109.5" x2="154.12" y2="109.5"/>
					<line x1="209.12" y1="109.5" x2="176.12" y2="109.5"/>
					<polyline points="523.62,109.5 363.453,109.5 363.453,187.5 		"/>
					<line x1="523.62" y1="77.5" x2="523.62" y2="75.54"/>
					<polyline points="432.12,187.5 523.62,187.5 523.62,94.5 		"/>
					<polyline points="790.12,109.5 558.62,109.5 558.62,187.5 579.12,187.5 "/>
					<polyline points="465.12,75.54 667.12,75.54 667.12,-113.35 		"/>
					<line x1="294.119" y1="75.54" x2="431.62" y2="75.54"/>
					<line x1="0" y1="75.54" x2="262.119" y2="75.54"/>
					<polyline points="-232.117,-113.311 -232.117,75.54 -31.88,75.54 		"/>
					<line x1="-40.398" y1="109.5" x2="-40.583" y2="171.622"/>
					<line x1="-315.88" y1="184.667" x2="-358.88" y2="184.667"/>
					<polyline points="-293.213,288.5 -293.213,184.667 -296.88,184.667 		"/>
					<line x1="-293.213" y1="311.5" x2="-293.213" y2="305"/>
					<line x1="-293.213" y1="424" x2="-293.213" y2="327.5"/>
					<line x1="-293.213" y1="448" x2="-293.213" y2="440"/>
					<polyline points="-358.88,551 -293.213,551 -293.213,464 		"/>
					<line x1="-358.88" y1="444" x2="-293.213" y2="444"/>
					<line x1="-358.88" y1="363.5" x2="-293.213" y2="363.5"/>
					<line x1="-358.88" y1="308.062" x2="-293.213" y2="308.062"/>
					<line x1="-358.88" y1="253.931" x2="-293.213" y2="253.931"/>
					<line x1="-314.881" y1="157.333" x2="-358.88" y2="157.333"/>
					<polyline points="-358.88,75.54 -293.213,75.54 -293.213,157.333 -296.381,157.333 		"/>
					<line x1="23.764" y1="472.506" x2="23.764" y2="617"/>
					<line x1="11.62" y1="456.938" x2="11.62" y2="472.506"/>
		</g>

		<line x1="-11.88" y1="617" x2="418.12" y2="617"/>
		<line x1="-285.88" y1="617" x2="-37.88" y2="617"/>
		<polyline points="716.12,617 761.12,617 761.12,552 790.12,552 790.12,384 761.12,384 761.12,371 790.12,371 790.12,274 761.12,274 761.12,238 790.12,238 790.12,-113 -358.88,-113.35 -358.88,617 -311.88,617 	"/>
		<line x1="443.12" y1="617" x2="691.12" y2="617"/>
	</g>
	<g class="roomNames">
		<text x="-76" y="144" text-anchor="middle">CS Demo</text>
		<text x="60" y="144" text-anchor="middle">Big House</text>
		<text transform="matrix(1 0 0 1 134 138)" text-anchor="middle">
			<tspan x="0" y="0">The</tspan>
			<tspan x="0" y="18">Place</tspan>
		</text>
		<text transform="matrix(1 0 0 1 -14 138)" text-anchor="middle">
			<tspan x="0" y="0">Audio</tspan>
			<tspan x="0" y="18">Lab</tspan>
		</text>
		<text transform="matrix(1 0 0 1 187 138)" text-anchor="middle">
			<tspan x="0" y="0">Game</tspan>
			<tspan x="0" y="14">On</tspan>
		</text>
		<text transform="matrix(1 0 0 1 389 145)" text-anchor="middle" class="small">
			<tspan x="0" y="0">The</tspan>
			<tspan x="0" y="14">Garage</tspan>
		</text>
		<text x="469" y="154" text-anchor="middle">Magic Place</text>
		<text x="757" y="154" text-anchor="middle">Area 51</text>
		<text transform="matrix(1 0 0 1 43 200)" text-anchor="middle">
			<tspan x="0" y="0">Phone</tspan>
			<tspan x="0" y="18">Booth</tspan>
		</text>
		<text transform="matrix(1 0 0 1 97 200)" text-anchor="middle">
			<tspan x="0" y="0">Sand</tspan>
			<tspan x="0" y="18">Box</tspan>
		</text>
		<text transform="matrix(1 0 0 1 156 200)" text-anchor="middle">
			<tspan x="0" y="0">Think</tspan>
			<tspan x="0" y="18">Tank</tspan>
		</text>
		<text transform="matrix(1 0 0 1 609 245)" text-anchor="middle">
			<tspan x="0" y="0">Situation</tspan>
			<tspan x="0" y="18">Room</tspan>
		</text>
		<text transform="matrix(1 0 0 1 731 245)" text-anchor="middle">
			<tspan x="0" y="0">The</tspan>
			<tspan x="0" y="18">Pub</tspan>
		</text>
		<text transform="matrix(1 0 0 1 597 446)" text-anchor="middle">
			<tspan x="0" y="0">Jam</tspan>
			<tspan x="0" y="18">Space</tspan>
		</text>
		<text transform="matrix(1 0 0 1 -324 494)" text-anchor="middle">
			<tspan x="0" y="0">Crazy</tspan>
			<tspan x="0" y="18">Room</tspan>
		</text>
		<text transform="matrix(1 0 0 1 -324 398)" text-anchor="middle">
			<tspan x="0" y="0">Idea</tspan>
			<tspan x="0" y="18">Room</tspan>
		</text>
		<text transform="matrix(1 0 0 1 -324 332)" text-anchor="middle">
			<tspan x="0" y="0">The</tspan>
			<tspan x="0" y="18">Room</tspan>
		</text>
		<text transform="matrix(1 0 0 1 -324 278)" text-anchor="middle">
			<tspan x="0" y="0">War</tspan>
			<tspan x="0" y="18">Field</tspan>
		</text>
		<text transform="matrix(1 0 0 1 597 502)" text-anchor="middle">
			<tspan x="0" y="0">Hunting</tspan>
			<tspan x="0" y="18">Lodge</tspan>
		</text>
		<text x="688" y="556" text-anchor="middle">Cafeteria</text>
		<text x="678" y="330" text-anchor="middle">Servers</text>
		<text x="-326" y="225" text-anchor="middle">Servers</text>
		<text x="284" y="151" text-anchor="middle">Reception</text>
		<text x="217.5" y="-15" text-anchor="middle">Elevators</text>
	</g>
	<g class="seats"></g>
	<g class="photos"></g>
</svg>