<svg version="1.1" viewBox="0 0 537.761 741.507" class="blr">
	<script type="text/javascript">
		// <![CDATA[
			this.SEATS = this.SEATS || {};
			this.SEATS.blr = {
				iconSize: 26,
				seatPositions: [
					[133, 63],
					[116, 98],
					[150, 98],
					[179, 81],
					[162, 46],
					[196, 46],
					[274, 81],
					[257, 46],
					[291, 46],
					[366, 81],
					[349, 46],
					[383, 46],
					[274, 311],
					[257, 276],
					[291, 276],
					[179, 392],
					[162, 357],
					[196, 357],
					[319, 392],
					[302, 357],
					[336, 357],
					[319, 161],
					[302, 126],
					[336, 126],
					[133, 161],
					[116, 126],
					[150, 126],
					[366, 311],
					[349, 276],
					[87, 81],
					[70, 46],
					[104, 46],
					[41, 63],
					[58, 98],
					[319, 63],
					[302, 98],
					[336, 98],
					[319, 294],
					[302, 329],
					[336, 329],
					[274, 373],
					[257, 408],
					[291, 408],
					[365, 373],
					[348, 408],
					[382, 408],
					[179, 294],
					[162, 329],
					[196, 329],
					[179, 143],
					[162, 178],
					[196, 178],
					[87, 143],
					[70, 178],
					[104, 178],
					[273, 143],
					[256, 178],
					[290, 178],
					[365, 143],
					[348, 178],
					[382, 178],
					[162, 206],
					[196, 206],
					[256, 206],
					[290, 206],
					[348, 206],
					[382, 206]
				]
			};
		// ]]>
	</script>
	<polygon class="background" points="9,9 9,613 381,613 381,737 532,737 532,9"/>
	<g class="walls">
		<g class="innerWalls">
			<line x1="126.5" y1="267" x2="126.5" y2="613"/>
			<line x1="9" y1="529.5" x2="126" y2="529.5"/>
			<line x1="84.5" y1="613" x2="84.5" y2="530"/>
			<line x1="9" y1="359.5" x2="126" y2="359.5"/>
			<line x1="126" y1="267.5" x2="9" y2="267.5"/>
			<line x1="449" y1="464.5" x2="127" y2="464.5"/>
			<line x1="380.5" y1="613" x2="380.5" y2="465"/>
			<line x1="527" y1="558.5" x2="532" y2="558.5"/>
			<line x1="381" y1="558.5" x2="500" y2="558.5"/>
			<line x1="448.5" y1="465" x2="448.5" y2="530"/>
			<line x1="484.5" y1="529" x2="484.5" y2="559"/>
			<line x1="484" y1="529.5" x2="380" y2="529.5"/>
			<line x1="445.5" y1="9" x2="445.5" y2="410"/>
			<line x1="445" y1="410.5" x2="531" y2="410.5"/>
			<line x1="445" y1="342.5" x2="531" y2="342.5"/>
			<line x1="445" y1="274.5" x2="531" y2="274.5"/>
			<line x1="445" y1="158.5" x2="531" y2="158.5"/>

			<polyline points="99.5,46 99.5,72.495 76.682,85.678 53.789,98.862 30.709,85.678"/>
			<polyline points="191.5,46 191.5,72.495 168.616,85.678 145.69,98.863 122.745,85.678 99.704,72.431"/>
			<line x1="214.636" y1="85.678" x2="191.668" y2="72.431"/>
			<polyline points="287.5,45 287.5,71.388 264.358,84.518"/>
			<polyline points="379.5,45 379.5,71.388 356.42,84.518 333.31,97.649 310.185,84.518 286.989,71.324"/>
			<line x1="402.761" y1="84.518" x2="379.621" y2="71.388"/>
			<polyline points="145.5,98 145.5,125.059 145.5,151.427 122.396,164.61 99.36,177.794 76.495,164.468"/>
			<polyline points="214.129,164.61 191.162,177.794 168.195,164.61 145.227,151.362"/>
			<polyline points="332.5,98 332.5,124.745 332.5,151.006 309.527,164.136 286.471,177.268 263.204,164.097"/>
			<polyline points="402.259,164.136 379.118,177.268 355.978,164.136 332.838,151.006"/>
			<polyline points="191.5,178 191.5,204.999 191.5,231.367 168.533,244.438"/>
			<line x1="214.623" y1="244.551" x2="191.656" y2="231.367"/>
			<polyline points="286.5,177 286.5,203.363 286.5,229.624 263.359,242.906"/>
			<line x1="309.194" y1="242.754" x2="286.054" y2="229.624"/>
			<polyline points="378.5,177 378.5,203.363 378.5,229.624 355.359,242.906"/>
			<line x1="401.756" y1="242.754" x2="378.615" y2="229.624"/>
			<polyline points="214.25,315.204 191,328.563 167.75,315.204"/>
			<polyline points="286.5,275 286.5,301.846 263.25,315.204"/>
			<polyline points="379.5,275 379.5,301.846 356.25,315.204 333,328.563 309.75,315.204 286.5,301.781"/>
			<line x1="402.75" y1="315.204" x2="379.5" y2="301.846"/>
			<polyline points="191.5,328 191.5,355.129 191.5,381.846 168.25,395.204"/>
			<line x1="214.75" y1="395.204" x2="191.5" y2="381.846"/>
			<polyline points="332.5,328 332.5,355.129 332.5,381.846 309.25,395.204 286,408.563 262.75,395.204"/>
			<polyline points="402.25,395.204 379,408.563 355.75,395.204 332.5,381.846"/>
			<line x1="286.5" y1="408" x2="286.5" y2="435"/>
			<line x1="378.5" y1="408" x2="378.5" y2="435"/>
			<line x1="99.36" y1="177.794" x2="99.36" y2="204.289" />
		</g>
		<polyline points="373,9 9,9 9,613 381,613 381,737 488,737"/>
		<line x1="418" y1="9" x2="387" y2="9"/>
		<polyline points="530,737 532,737 532,9 432,9"/>
	</g>
	<g class="roomNames">
		<text x="253.5" y="546" text-anchor="middle">Cafeteria</text>
		<text x="67.5" y="455" text-anchor="middle">Servers</text>
		<text x="67.5" y="320" text-anchor="middle">Jamtha</text>
		<text x="456" y="654" text-anchor="middle">Reception</text>
		<text x="490" y="476" text-anchor="middle">Lobby</text>
		<text x="415" y="504" text-anchor="middle" class="small">Brebourne</text>
		<text x="490" y="383" text-anchor="middle">Kotla</text>
		<text x="490" y="316" text-anchor="middle">Chepauk</text>
		<text transform="matrix(1 0 0 1 490 216)" text-anchor="middle">
			<tspan x="0" y="0">Eden</tspan>
			<tspan x="0" y="20.16">Gardens</tspan>
		</text>
		<text x="490" y="90" text-anchor="middle" class="small">Chinnaswamy</text>
	</g>
	<g class="seats"></g>
	<g class="photos"></g>
</svg>