<svg version="1.1" viewBox="0 0 513.889 377.779" class="chi">
	<script type="text/javascript">
		// <![CDATA[
			this.SEATS = this.SEATS || {};
			this.SEATS.chi = {
				iconSize: 17.988,
				seatPositions: [
					[ 28.152, 345.823],
					[ 28.152, 326.456],
					[ 28.152, 307.089],
					[ 28.152, 287.722],
					[ 48.779, 345.823],
					[ 48.779, 326.456],
					[ 48.779, 307.089],
					[ 48.779, 287.722],
					[ 81.218, 345.823],
					[ 81.218, 326.456],
					[ 81.218, 307.089],
					[ 81.218, 287.722],
					[101.845, 345.823],
					[101.845, 326.456],
					[101.845, 307.089],
					[101.845, 287.722],
					[141.615, 345.823],
					[141.615, 326.456],
					[141.615, 307.089],
					[141.615, 287.722],
					[162.242, 345.823],
					[162.242, 326.456],
					[162.242, 307.089],
					[162.242, 287.722],
					[194.673, 345.823],
					[194.673, 326.456],
					[194.673, 307.089],
					[194.673, 287.722],
					[215.300, 345.823],
					[215.300, 326.456],
					[215.300, 307.089],
					[215.300, 287.722],
					[255.308, 345.823],
					[255.308, 326.456],
					[255.308, 307.089],
					[275.935, 345.823],
					[275.935, 326.456],
					[275.935, 307.089],
					[308.193, 345.823],
					[308.193, 326.456],
					[308.193, 307.089],
					[328.819, 345.823],
					[328.819, 326.456],
					[328.819, 307.089]
				]
			};
		// ]]>
	</script>
	<polygon class="background" points="504.915,366.25 10.793,365.959 10.793,238.873 237.462,12.61 504.915,12.61"/>
	<g class="walls">
		<g class="innerWalls">
			<polyline points="304.576,137.592 304.576,135.066 392.453,135.066 392.453,12.61"/>
			<polyline points="279.364,157.192 304.576,157.192 304.576,148.967"/>
			<polyline points="239.452,128.742 244.935,128.742 244.935,157.192 264.426,157.192"/>
			<polyline points="136.85,252.019 125.975,252.019 125.975,220.093 217.327,128.742 228.076,128.742"/>
			<line x1="223.326" y1="252.019" x2="148.1" y2="252.019"/>
			<polyline points="264.556,244.917 249.576,244.917 249.576,252.019 234.704,252.019"/>
			<line x1="398.089" y1="127.468" x2="392.453" y2="127.468"/>
			<polyline points="504.915,135.066 425.306,135.066 425.306,127.468 419.81,127.468"/>
			<line x1="240.368" y1="102.288" x2="251.734" y2="102.288"/>
			<polyline points="168.035,151.416 217.164,102.288 228.993,102.288"/>
			<line x1="157.566" y1="161.885" x2="160.16" y2="159.292"/>
			<line x1="117.035" y1="202.417" x2="149.441" y2="170.01"/>
			<polyline points="101.993,233.692 101.993,217.459 109.16,210.292"/>
			<polyline points="10.793,250.119 101.993,250.119 101.993,245.068"/>
			<line x1="245.431" y1="102.288" x2="245.431" y2="12.61"/>
			<polyline points="101.993,228.036 91.201,228.036 56.457,193.292"/>
			<line x1="118.582" y1="200.871" x2="83.754" y2="166.042"/>
			<line x1="158.796" y1="160.656" x2="124.005" y2="125.864"/>
			<line x1="199.107" y1="120.345" x2="164.352" y2="85.589"/>
			<line x1="101.993" y1="217.459" x2="91.201" y2="228.036"/>
			<line x1="170.403" y1="252.019" x2="170.403" y2="175.777"/>
			<line x1="249.576" y1="244.917" x2="249.576" y2="157.192"/>
			<line x1="249.576" y1="170.359" x2="175.868" y2="170.359"/>
			<line x1="324.318" y1="157.192" x2="304.576" y2="157.192"/>
			<polyline points="400.352,272.892 279.602,272.892 279.602,244.917 391.502,244.917 391.502,157.192 334.904,157.192"/>
			<polyline points="469.579,366.23 469.579,272.892 423.104,272.892"/>
			<line x1="290.978" y1="157.192" x2="290.978" y2="244.917"/>
			<line x1="479.646" y1="156.825" x2="504.796" y2="156.825"/>
			<polyline points="469.579,258.343 469.579,243.643 431.954,243.643 431.954,162.524 446.417,162.524 446.417,156.825 469.082,156.825"/>
			<line x1="469.579" y1="272.892" x2="469.579" y2="269.719"/>
			<line x1="425.307" y1="313.625" x2="469.579" y2="313.625"/>
			<line x1="368.024" y1="313.625" x2="413.931" y2="313.625"/>
			<polyline points="354.504,366.162 354.504,313.625 357.03,313.625"/>
			<line x1="412.042" y1="313.625" x2="412.042" y2="366.162"/>
			<line x1="327.5" y1="307.089" x2="327.5" y2="363.812"/>
			<line x1="274.615" y1="363.812" x2="274.615" y2="307.089"/>
			<line x1="213.98" y1="363.812" x2="213.98" y2="287.722"/>
			<line x1="160.923" y1="363.812" x2="160.923" y2="287.722"/>
			<line x1="100.525" y1="363.812" x2="100.525" y2="287.722"/>
			<line x1="47.424" y1="363.812" x2="47.424" y2="287.722"/>
		</g>
		<polyline points="504.915,366.25 10.793,365.959 10.793,238.873 237.462,12.61 428.414,12.61"/>
	</g>
	<g class="roomNames">
		<g class="room">
			<polygon class="roomArea" points="469.576,313.62 469.576,366.229 412.046,366.2 412.046,366.16 412.046,313.62 413.936,313.62 425.306,313.62"/>
		</g>
		<g class="room">
			<polygon class="roomArea" points="412.046,366.16 412.046,366.2 354.506,366.16 354.506,313.62 357.026,313.62 368.026,313.62 412.046,313.62"/>
		</g>
		<g class="room">
			<polygon class="roomArea" points="245.436,12.609 245.436,102.29 240.366,102.29 228.996,102.29 217.166,102.29 199.105,120.35 164.355,85.589 237.466,12.609"/>
		</g>
		<g class="room">
			<polygon class="roomArea" points="164.355,85.589 199.105,120.35 168.036,151.419 160.156,159.29 158.796,160.66 124.006,125.859"/>
		</g>
		<g class="room">
			<polygon class="roomArea" points="124.006,125.859 158.796,160.66 157.565,161.89 149.446,170.009 118.585,200.87 83.756,166.04"/>
		</g>
		<g class="room">
			<polygon class="roomArea" points="118.585,200.87 117.036,202.419 109.156,210.29 101.996,217.459 91.206,228.04 56.456,193.29 83.756,166.04"/>
		</g>
		<g class="room">
			<polygon class="roomArea" points="101.996,245.069 101.996,250.12 10.796,250.12 10.796,238.87 56.456,193.29 91.206,228.04 101.996,228.04 101.996,233.689"/>
		</g>
	</g>
	<g class="seats"></g>
	<g class="photos"></g>
</svg>
