<svg version="1.1" viewBox="0 0 971.973 931.605" class="ln">
	<script type="text/javascript">
		// <![CDATA[
			this.SEATS = this.SEATS || {};
			this.SEATS.ln = {
				iconSize: 55.46,
				seatPositions: [
					[25.457, 543.853],
					[15.213, 457.098],
					[15.294, 368.099],
					[34.723, 284.445],
					[74.396, 205.976],
					[126.437, 140.73],
					[190.715, 84.626],
					[260.104, 45.851],
					[334.593, 21.463],
					[410.104, 8.163],
					[497.817, 8.163],
					[576.43, 19.401],
					[653.94, 43.871],
					[53.406, 625.732],
					[728.953, 85.892],
					[97.034, 704.376],
					[160.61, 768.41],
					[236.014, 828.123],
					[415.366, 870.325],
					[878.309, 288.614],
					[798.854, 145.674],
					[845.442, 217.813],
					[320.77, 852.077],
					[691.912, 812.482],
					[514.589, 870.196],
					[898.842, 447.667],
					[894.903, 368.833],
					[605.68, 849.685],
					[763.263, 761.281],
					[824.113, 690.337],
					[889.338, 527.28],
					[867.172, 615.916]
				]
			};
		// ]]>
	</script>

	<g class="symbols">
		<path d="M292.323,745.497v8.998l7.022,15.02c0,0,46.043,23.355,73.394,30.699l10.684-6.332v-8.346 C383.423,785.536,327.367,767.178,292.323,745.497z"/>
		<rect x="314.684" y="775.524" width="5.342" height="100.76"/>
		<rect x="350.389" y="787.875" width="5.335" height="94.895"/>
		<rect x="318.831" y="815.28" width="33.378" height="3.842"/>
		<rect x="324.229" y="807.11" width="22.94" height="9.729"/>
		<rect x="331.434" y="810.116" width="3.25" height="4.012"/>
		<rect x="335.936" y="810.116" width="10.089" height="4.012"/>
		<rect x="325.427" y="810.116" width="5.051" height="1.559"/>
		<rect x="325.427" y="812.401" width="5.051" height="1.557"/>
		<polygon points="319.183,835.346 332.275,818.282 337.079,818.282 351.37,837.497 351.37,840.506 336.235,820.928 332.644,820.928 318.831,838.706 				"/>
		<path d="M323.509,836.198c-0.273,0-0.49-0.229-0.49-0.498v-11.754h-3.953c-0.275,0-0.487-0.225-0.487-0.49 c0-0.273,0.212-0.5,0.487-0.5h4.931V835.7C323.997,835.969,323.778,836.198,323.509,836.198z"/>
		<path d="M346.082,836.198c-0.265,0-0.476-0.229-0.476-0.498v-12.744h4.93c0.278,0,0.495,0.227,0.495,0.5 c0,0.266-0.217,0.49-0.495,0.49h-3.956V835.7C346.581,835.969,346.36,836.198,346.082,836.198z"/>
		<rect x="318.102" y="836.063" width="34.954" height="2.398"/>
		<path d="M680.369,745.497v8.998l-7.005,15.02c0,0-46.052,23.355-73.403,30.699l-10.68-6.332v-8.346 C589.281,785.536,645.334,767.178,680.369,745.497z"/>
		<rect x="652.675" y="775.524" width="5.344" height="100.76"/>
		<rect x="616.978" y="787.875" width="5.339" height="92.68"/>
		<rect x="620.488" y="815.28" width="33.39" height="3.842"/>
		<rect x="625.533" y="807.11" width="22.938" height="9.729"/>
		<rect x="638.021" y="810.116" width="3.243" height="4.012"/>
		<rect x="626.674" y="810.116" width="10.09" height="4.012"/>
		<rect x="642.219" y="810.116" width="5.055" height="1.559"/>
		<rect x="642.219" y="812.401" width="5.055" height="1.557"/>
		<polygon points="653.516,835.346 640.423,818.282 635.617,818.282 621.327,837.497 621.327,840.506 636.463,820.928 640.055,820.928 653.878,838.706 				"/>
		<rect x="619.642" y="836.063" width="34.954" height="2.398"/>
		<rect x="319.237" y="825.559" width="4.24" height="0.645"/>
		<rect x="319.237" y="830.696" width="4.24" height="0.643"/>
		<rect x="346.434" y="825.559" width="4.219" height="0.645"/>
		<rect x="346.434" y="830.696" width="4.219" height="0.643"/>
		<path d="M484.591,794.874c-46.276,0-91.169-8.799-133.44-26.158c-40.829-16.77-77.485-40.781-108.976-71.361 c-31.485-30.576-56.216-66.186-73.48-105.834c-17.884-41.059-26.938-84.66-26.938-129.62c0-44.952,9.054-88.557,26.938-129.614 c17.264-39.655,41.995-75.266,73.48-105.839c31.491-30.584,68.147-54.578,108.976-71.35 c42.271-17.375,87.165-26.169,133.44-26.169c46.281,0,91.179,8.794,133.435,26.169c40.842,16.771,77.489,40.766,108.979,71.35 c31.493,30.574,56.223,66.185,73.49,105.839c17.861,41.057,26.936,84.662,26.936,129.614c0,44.96-9.074,88.562-26.936,129.62 c-17.268,39.648-41.997,75.258-73.49,105.834c-31.489,30.58-68.137,54.592-108.979,71.361 C575.77,786.075,530.872,794.874,484.591,794.874z M484.591,130.565c-188.143,0-341.196,148.644-341.196,331.334 c0,182.698,153.053,331.337,341.196,331.337c188.134,0,341.197-148.639,341.197-331.337 C825.788,279.209,672.725,130.565,484.591,130.565z"/>
		<path d="M484.591,782.61c-44.573,0-87.796-8.471-128.508-25.199c-39.313-16.143-74.623-39.266-104.942-68.707 c-30.327-29.457-54.127-63.758-70.774-101.943c-17.223-39.539-25.952-81.557-25.952-124.86 c0-43.306,8.729-85.308,25.952-124.851c16.647-38.187,40.447-72.488,70.774-101.942c30.319-29.452,65.628-52.576,104.942-68.71 c40.712-16.732,83.935-25.204,128.508-25.204c44.565,0,87.796,8.472,128.507,25.204c39.313,16.135,74.623,39.259,104.947,68.71 c30.331,29.455,54.141,63.755,70.768,101.942c17.227,39.543,25.956,81.545,25.956,124.851c0,43.304-8.729,85.321-25.956,124.86 c-16.627,38.186-40.437,72.486-70.768,101.943c-30.324,29.441-65.635,52.564-104.947,68.707 C572.387,774.139,529.156,782.61,484.591,782.61z M484.591,145.123c-179.888,0-326.249,142.101-326.249,316.777 c0,174.675,146.36,316.782,326.249,316.782c179.89,0,326.249-142.107,326.249-316.782 C810.84,287.224,664.48,145.123,484.591,145.123z"/>
		<path d="M507.609,802.858c-0.523,0-1.006-0.322-1.21-0.805l-16.528-39.486l-17.426,38.529 c-0.238,0.506-0.74,0.805-1.281,0.771c-0.545-0.041-1.011-0.416-1.175-0.93l-11.516-38.719l-25.476,35.664 c-0.31,0.441-0.864,0.639-1.391,0.5c-0.527-0.125-0.916-0.57-0.963-1.109l-4.573-38.807l-28.033,32.621 c-0.343,0.408-0.905,0.563-1.406,0.395c-0.502-0.168-0.857-0.619-0.895-1.158l-2.731-39.262l-28.418,30.246 c-0.375,0.402-0.972,0.529-1.481,0.309c-0.495-0.227-0.817-0.73-0.785-1.275l2.287-41.596l-33.529,29.383 c-0.413,0.361-1.014,0.428-1.497,0.166c-0.473-0.268-0.74-0.811-0.665-1.355l6.394-41.572l-35.286,26.121 c-0.421,0.318-0.989,0.348-1.448,0.068c-0.45-0.279-0.703-0.795-0.62-1.318l6.465-41.551l-37.444,21.26 c-0.498,0.289-1.127,0.215-1.547-0.174c-0.417-0.387-0.528-1.01-0.275-1.527l17.73-36.848l-42.626,16.035 c-0.525,0.191-1.105,0.045-1.469-0.377c-0.352-0.414-0.413-1.021-0.133-1.512l21.046-36.592l-45.624,11.986 c-0.529,0.143-1.1-0.072-1.415-0.535c-0.315-0.457-0.298-1.064,0.028-1.51l24.216-32.893l-44.602,5.975 c-0.555,0.07-1.088-0.201-1.345-0.699c-0.258-0.488-0.176-1.096,0.212-1.492l28.169-29.996l-44.818,3.209 c-0.569,0.035-1.082-0.293-1.299-0.814c-0.221-0.521-0.072-1.121,0.355-1.492l30.492-26.404l-45.442-2.75 c-0.553-0.023-1.039-0.412-1.185-0.941c-0.144-0.553,0.057-1.121,0.517-1.441l33.587-23.131l-43.332-5.938 c-0.554-0.072-1.008-0.498-1.104-1.031c-0.116-0.551,0.121-1.105,0.602-1.393l34.133-20.477l-42.624-10.549 c-0.522-0.125-0.917-0.576-0.994-1.115c-0.054-0.537,0.22-1.07,0.707-1.314l36.817-19.094l-40.483-10.916 c-0.554-0.148-0.949-0.639-0.964-1.203c-0.03-0.57,0.323-1.098,0.85-1.283l39.727-14.617l-42.268-18.831 c-0.516-0.232-0.819-0.761-0.768-1.328c0.055-0.567,0.458-1.028,1.017-1.147l41.585-9.497l-40.889-19.992 c-0.516-0.25-0.81-0.812-0.717-1.373c0.083-0.571,0.527-1.017,1.099-1.101l42.904-6.399l-36.569-25.134 c-0.466-0.315-0.672-0.9-0.512-1.447c0.15-0.547,0.642-0.933,1.209-0.937l43.063-1.365l-35.478-27.747 c-0.447-0.345-0.616-0.939-0.426-1.483c0.199-0.534,0.714-0.87,1.285-0.861l43.894,1.376l-31.607-32.069 c-0.408-0.417-0.492-1.038-0.217-1.549c0.281-0.504,0.857-0.766,1.417-0.65l40.639,8.559l-28.174-34.957 c-0.35-0.454-0.384-1.075-0.064-1.542c0.313-0.481,0.9-0.695,1.448-0.546l41.868,11.836l-25.631-39.839 c-0.318-0.494-0.276-1.117,0.101-1.563c0.368-0.439,0.983-0.58,1.517-0.351l40.617,17.604l-23.6-41.303 c-0.286-0.502-0.209-1.135,0.185-1.56c0.399-0.419,1.031-0.522,1.547-0.255l39.975,20.447l-18.181-41.856 c-0.237-0.529-0.094-1.141,0.348-1.519c0.422-0.38,1.05-0.413,1.547-0.116l36.205,22.624l-14.061-41.733 c-0.191-0.542,0-1.145,0.467-1.48c0.466-0.335,1.096-0.327,1.556,0.01l34.063,25.425l-9.593-44.734 c-0.119-0.561,0.134-1.129,0.634-1.415c0.488-0.282,1.108-0.21,1.529,0.164l31.724,29.015l-5.904-43.59 c-0.071-0.565,0.224-1.114,0.739-1.353c0.521-0.252,1.131-0.139,1.527,0.277l27.559,29.365l-1.817-41.677 c-0.027-0.556,0.301-1.076,0.826-1.278c0.518-0.199,1.113-0.056,1.475,0.37l27.777,32.33l1.375-42.821 c0.013-0.564,0.394-1.064,0.938-1.215c0.535-0.164,1.128,0.051,1.438,0.514l22.623,33.014l4.987-40.296 c0.063-0.553,0.478-1.004,1.023-1.117c0.538-0.122,1.096,0.113,1.385,0.589l21.853,35.5l8.184-40.478 c0.113-0.54,0.546-0.965,1.102-1.034c0.556-0.086,1.093,0.193,1.343,0.686l18.639,35.908l11.374-39.589 c0.159-0.555,0.646-0.937,1.216-0.951c0.563-0.009,1.089,0.327,1.277,0.87l14.118,39.872l15.376-39.907 c0.196-0.518,0.695-0.853,1.271-0.835c0.559,0.021,1.035,0.396,1.203,0.924l11.862,39.731l18.651-34.562 c0.26-0.49,0.813-0.763,1.362-0.675c0.552,0.089,0.981,0.518,1.073,1.07l6.793,38.425l21.771-34.474 c0.299-0.475,0.857-0.708,1.408-0.579c0.547,0.127,0.949,0.579,1.008,1.129l4.541,41.305l23.558-33.07 c0.323-0.463,0.921-0.668,1.465-0.494c0.543,0.175,0.911,0.678,0.911,1.254v40.913l29.186-31.004 c0.375-0.404,0.979-0.521,1.492-0.297c0.504,0.228,0.818,0.754,0.775,1.313l-3.627,41.217l28.912-28.022 c0.401-0.392,1.001-0.481,1.5-0.231c0.492,0.24,0.789,0.787,0.713,1.34l-5.004,40.084l31.396-24.579 c0.453-0.348,1.067-0.375,1.536-0.054c0.47,0.295,0.683,0.868,0.554,1.42l-10.438,39.897l34.482-23.141 c0.467-0.306,1.074-0.286,1.516,0.051c0.456,0.354,0.623,0.939,0.456,1.479l-14.118,40.486l36.799-20.45 c0.497-0.273,1.127-0.19,1.535,0.196c0.422,0.398,0.535,1.004,0.291,1.515l-18.189,37.735l38.132-15.432 c0.523-0.214,1.128-0.071,1.489,0.351c0.361,0.437,0.423,1.045,0.129,1.523l-20.843,35.347l38.975-12.687 c0.527-0.172,1.122,0.012,1.458,0.47c0.334,0.46,0.334,1.081,0,1.544l-23.736,33.326l40.654-6.394 c0.557-0.086,1.11,0.191,1.363,0.684c0.262,0.491,0.186,1.102-0.209,1.509l-28.021,29.844l40.693-4.534 c0.559-0.047,1.097,0.244,1.336,0.758c0.229,0.5,0.123,1.114-0.281,1.492l-29.507,28.593l39.853-1.357 c0.553-0.006,1.069,0.309,1.257,0.829c0.202,0.514,0.057,1.113-0.349,1.471l-31.359,27.262l39.857,0.906 c0.568,0.014,1.061,0.386,1.219,0.935c0.18,0.531-0.029,1.109-0.481,1.439l-35.147,25.116l39.971,5.449 c0.55,0.074,1.006,0.506,1.105,1.058c0.104,0.562-0.159,1.105-0.65,1.391l-36.952,20.521l40.081,10.474 c0.545,0.135,0.94,0.608,0.982,1.172c0.047,0.548-0.271,1.072-0.787,1.299l-39.705,17.346l37.171,13.139 c0.515,0.188,0.872,0.689,0.872,1.246c-0.016,0.561-0.368,1.061-0.895,1.236l-39.223,13.215l36.918,17.779 c0.493,0.236,0.787,0.771,0.73,1.332c-0.071,0.545-0.483,1-1.026,1.125l-41.658,9.156l34.231,22.375 c0.482,0.307,0.7,0.885,0.553,1.428c-0.146,0.557-0.611,0.939-1.183,0.967l-41.501,2.75l30.963,26.4 c0.426,0.367,0.569,0.941,0.379,1.463c-0.193,0.508-0.688,0.85-1.227,0.85h-0.011l-41.581-0.457l27.799,28.701 c0.366,0.395,0.465,0.963,0.25,1.457c-0.22,0.49-0.732,0.797-1.268,0.766l-41.418-2.299l24.846,33.127 c0.34,0.443,0.346,1.041,0.042,1.494c-0.294,0.467-0.849,0.693-1.387,0.572l-41.067-9.586l21.828,33.639 c0.289,0.469,0.276,1.072-0.079,1.516c-0.327,0.445-0.913,0.617-1.456,0.432l-40.453-13.781l17.521,41.023 c0.219,0.514,0.09,1.113-0.324,1.48c-0.408,0.373-1.008,0.461-1.498,0.184l-37.695-19.984l14.965,39.004 c0.205,0.516,0.047,1.102-0.364,1.459c-0.431,0.367-1.019,0.422-1.503,0.154l-37.307-20.723l8.77,42.408 c0.114,0.539-0.137,1.094-0.599,1.389c-0.47,0.285-1.084,0.25-1.505-0.098l-33.564-26.752l8.146,40.713 c0.099,0.525-0.131,1.074-0.589,1.359c-0.46,0.301-1.059,0.26-1.493-0.07L616.205,736l2.303,41.883 c0.028,0.539-0.287,1.051-0.783,1.27c-0.506,0.215-1.094,0.105-1.476-0.289L586.34,748.03l-3.211,41.818 c-0.05,0.549-0.442,1.016-0.964,1.164c-0.536,0.152-1.11-0.057-1.413-0.504l-24.457-34.607l-11.547,41.566 c-0.146,0.52-0.589,0.895-1.123,0.961c-0.537,0.051-1.053-0.227-1.297-0.697l-19.24-36.637l-14.236,40.879 c-0.185,0.512-0.651,0.863-1.199,0.885C507.635,802.858,507.629,802.858,507.609,802.858z M489.914,757.975 c0.02,0,0.02,0,0.023,0c0.521,0.006,0.988,0.32,1.195,0.805l16.357,39.098l14.125-40.504c0.162-0.49,0.609-0.844,1.137-0.873 c0.506-0.047,1.014,0.229,1.248,0.689l19.105,36.387l11.393-41.031c0.145-0.492,0.552-0.852,1.058-0.938 c0.493-0.094,0.995,0.117,1.282,0.525l23.958,33.885l3.148-41.086c0.042-0.521,0.38-0.961,0.859-1.135 c0.495-0.184,1.029-0.053,1.392,0.314l29.496,30.414l-2.26-41.215c-0.03-0.518,0.248-0.994,0.688-1.234 c0.462-0.238,1.007-0.188,1.414,0.115l34.586,26.396l-8.159-40.824c-0.111-0.539,0.128-1.09,0.597-1.371 c0.465-0.283,1.066-0.254,1.506,0.096l33.529,26.736l-8.605-41.662c-0.104-0.504,0.089-1.025,0.502-1.324 c0.412-0.309,0.965-0.334,1.416-0.09l36.657,20.361l-14.916-38.896c-0.208-0.5-0.062-1.092,0.349-1.453 c0.406-0.363,0.992-0.428,1.473-0.174l37.515,19.898l-17.229-40.334c-0.195-0.477-0.096-1.035,0.251-1.406 c0.351-0.381,0.896-0.521,1.39-0.352l39.664,13.525l-21.537-33.188c-0.288-0.457-0.275-1.035,0.033-1.477 c0.305-0.439,0.842-0.639,1.369-0.525l40.712,9.508l-24.364-32.502c-0.305-0.402-0.348-0.953-0.115-1.406 c0.251-0.449,0.737-0.719,1.226-0.684l40.896,2.268l-27.65-28.555c-0.37-0.371-0.464-0.945-0.266-1.43 c0.199-0.482,0.688-0.779,1.227-0.795l41.095,0.455l-30.66-26.154c-0.401-0.35-0.567-0.898-0.391-1.406 c0.159-0.506,0.634-0.861,1.151-0.9l40.804-2.689l-33.578-21.936c-0.438-0.287-0.656-0.809-0.562-1.33 c0.082-0.52,0.492-0.936,0.998-1.047l41.027-9.004l-36.391-17.527c-0.485-0.23-0.779-0.727-0.736-1.262 c0.029-0.531,0.381-0.986,0.875-1.156l38.676-13.043l-36.711-12.988c-0.516-0.174-0.873-0.645-0.879-1.189 c-0.018-0.531,0.293-1.02,0.784-1.24l39.284-17.161l-39.587-10.35c-0.515-0.139-0.896-0.576-0.968-1.104 c-0.074-0.531,0.189-1.049,0.656-1.31l36.363-20.204l-39.34-5.366c-0.52-0.067-0.961-0.463-1.093-0.983 c-0.12-0.522,0.071-1.06,0.507-1.375l34.639-24.746l-39.305-0.888c-0.548-0.011-1.01-0.359-1.2-0.868 c-0.187-0.502-0.042-1.076,0.368-1.432l31.125-27.057l-39.549,1.345c-0.557,0.021-1.051-0.3-1.258-0.8 c-0.219-0.507-0.104-1.069,0.293-1.456l29.202-28.293l-40.429,4.493c-0.556,0.063-1.063-0.225-1.318-0.716 c-0.24-0.49-0.155-1.084,0.223-1.482l27.854-29.642L749.588,307c-0.525,0.086-1.037-0.152-1.311-0.603 c-0.281-0.447-0.264-1.016,0.042-1.451l23.256-32.634l-38.497,12.529c-0.512,0.17-1.081,0-1.432-0.422 c-0.336-0.428-0.375-1.025-0.1-1.492l20.645-34.999l-37.699,15.256c-0.494,0.206-1.078,0.081-1.445-0.317 c-0.377-0.393-0.467-0.975-0.234-1.462l17.871-37.07l-36.188,20.108c-0.482,0.262-1.064,0.208-1.488-0.144 c-0.408-0.35-0.57-0.92-0.397-1.432l13.939-40.032l-34.084,22.877c-0.456,0.309-1.036,0.297-1.491-0.021 c-0.434-0.317-0.635-0.873-0.502-1.393l10.328-39.494l-30.863,24.143c-0.416,0.323-0.991,0.368-1.443,0.103 c-0.461-0.255-0.732-0.772-0.656-1.298l4.945-39.551L624,196.085c-0.389,0.38-0.979,0.476-1.474,0.247 c-0.489-0.238-0.787-0.754-0.747-1.31l3.604-40.944l-28.859,30.664c-0.362,0.387-0.941,0.514-1.431,0.315 c-0.501-0.199-0.831-0.68-0.831-1.218v-40.127l-23.176,32.536c-0.317,0.439-0.867,0.636-1.403,0.509 c-0.515-0.14-0.907-0.591-0.958-1.123l-4.516-41l-21.574,34.179c-0.297,0.459-0.842,0.684-1.369,0.594 c-0.532-0.113-0.941-0.529-1.033-1.064l-6.725-38.056l-18.354,34.027c-0.251,0.464-0.753,0.734-1.284,0.681 c-0.534-0.057-0.975-0.419-1.121-0.924l-11.68-39.072l-15.256,39.627c-0.194,0.509-0.681,0.845-1.236,0.838 c-0.548-0.003-1.034-0.357-1.226-0.88l-13.942-39.351l-11.154,38.825c-0.145,0.51-0.601,0.891-1.127,0.936 c-0.537,0.053-1.048-0.22-1.292-0.698l-18.446-35.52l-8.097,40.083c-0.109,0.532-0.524,0.936-1.067,1.03 c-0.52,0.098-1.056-0.139-1.34-0.597l-21.622-35.15l-4.955,40.032c-0.068,0.534-0.457,0.977-0.983,1.108 c-0.548,0.127-1.085-0.083-1.402-0.526l-22.301-32.578l-1.347,42.195c-0.017,0.531-0.364,1.01-0.877,1.196 c-0.512,0.176-1.064,0.021-1.429-0.389l-27.506-32.009l1.804,41.422c0.021,0.544-0.302,1.049-0.804,1.257 c-0.506,0.22-1.087,0.092-1.464-0.3l-27.173-28.953l5.847,43.107c0.073,0.555-0.208,1.082-0.699,1.34 c-0.488,0.255-1.086,0.178-1.497-0.19l-31.373-28.694l9.46,44.155c0.119,0.538-0.113,1.082-0.573,1.379 c-0.456,0.303-1.051,0.271-1.484-0.051l-33.485-25.009l13.879,41.223c0.185,0.532,0.006,1.111-0.431,1.447 c-0.434,0.353-1.038,0.386-1.503,0.085l-35.728-22.324l17.968,41.338c0.217,0.502,0.1,1.097-0.305,1.471 c-0.405,0.38-1.002,0.467-1.494,0.223l-39.323-20.126l23.371,40.905c0.275,0.485,0.212,1.102-0.159,1.521 c-0.377,0.422-0.98,0.558-1.504,0.327l-40.269-17.449l25.192,39.128c0.297,0.463,0.276,1.055-0.054,1.489 c-0.325,0.445-0.879,0.629-1.406,0.484L180,300.722l27.891,34.624c0.341,0.437,0.389,1.035,0.098,1.513 c-0.295,0.479-0.853,0.716-1.389,0.606l-39.968-8.435l30.854,31.285c0.368,0.379,0.477,0.953,0.265,1.441 c-0.22,0.495-0.709,0.808-1.235,0.799L153.33,361.2l35.185,27.509c0.439,0.338,0.602,0.915,0.439,1.438 c-0.177,0.526-0.661,0.879-1.205,0.904l-42.695,1.339l36.021,24.776c0.449,0.297,0.648,0.853,0.533,1.373 c-0.117,0.529-0.557,0.913-1.077,1.01l-42.028,6.251l40.434,19.765c0.505,0.251,0.792,0.782,0.732,1.321 c-0.06,0.561-0.474,1.01-1.01,1.138l-41.379,9.443l41.62,18.552c0.49,0.215,0.793,0.701,0.781,1.24 c-0.025,0.531-0.37,0.996-0.86,1.189l-38.887,14.291l39.755,10.719c0.519,0.148,0.906,0.592,0.962,1.133 c0.06,0.537-0.214,1.059-0.699,1.299l-36.712,19.037l42.32,10.471c0.513,0.131,0.897,0.555,0.979,1.078 c0.085,0.525-0.167,1.053-0.614,1.324l-33.662,20.188l42.994,5.887c0.536,0.07,0.966,0.469,1.091,0.99 c0.132,0.537-0.085,1.084-0.531,1.387l-33.232,22.91l44.851,2.709c0.532,0.039,0.991,0.396,1.165,0.898 c0.177,0.498,0.03,1.061-0.38,1.404l-29.956,25.932l44.232-3.164c0.541-0.039,1.052,0.256,1.285,0.746 c0.229,0.484,0.133,1.063-0.233,1.451l-27.941,29.76l44.011-5.904c0.519-0.072,1.039,0.176,1.295,0.629 c0.273,0.447,0.245,1.02-0.066,1.451l-23.859,32.393l45.072-11.846c0.512-0.129,1.056,0.059,1.383,0.48 c0.319,0.416,0.347,0.99,0.086,1.445l-20.792,36.15l42.292-15.914c0.501-0.188,1.073-0.051,1.43,0.35 c0.364,0.389,0.442,0.963,0.213,1.453l-17.342,36.018l36.159-20.529c0.437-0.256,0.978-0.227,1.392,0.059 c0.417,0.285,0.622,0.775,0.548,1.275l-6.394,41.074l35.284-26.113c0.421-0.314,0.996-0.342,1.452-0.063 c0.449,0.262,0.696,0.795,0.619,1.322l-6.337,41.158l33.17-29.08c0.394-0.34,0.959-0.426,1.438-0.193 c0.473,0.23,0.762,0.721,0.734,1.254l-2.263,41.133l28.003-29.824c0.363-0.369,0.9-0.506,1.398-0.334 c0.485,0.184,0.831,0.631,0.865,1.146l2.729,39.08l27.898-32.473c0.332-0.395,0.872-0.549,1.378-0.395 c0.497,0.152,0.858,0.586,0.916,1.1l4.52,38.396l25.056-35.072c0.288-0.41,0.778-0.615,1.281-0.535 c0.492,0.08,0.902,0.434,1.045,0.916l11.269,37.91l17.242-38.072C488.945,758.274,489.408,757.975,489.914,757.975z"/>
		<path d="M129.36,481.315c0,6.234-5.051,11.285-11.266,11.285c-6.23,0-11.274-5.051-11.274-11.285 c0-6.211,5.044-11.266,11.274-11.266C124.309,470.049,129.36,475.104,129.36,481.315z"/>
		<path d="M132.982,483.745c0,6.223-5.043,11.268-11.265,11.268c-6.229,0-11.276-5.045-11.276-11.268 c0-6.238,5.047-11.283,11.276-11.283C127.938,472.461,132.982,477.506,132.982,483.745z"/>
		<path d="M134.374,411.927c0,6.215-5.051,11.266-11.274,11.266c-6.218,0-11.267-5.051-11.267-11.266 c0-6.223,5.049-11.281,11.267-11.281C129.323,400.646,134.374,405.704,134.374,411.927z"/>
		<path d="M136.836,414.699c0,6.225-5.045,11.27-11.265,11.27c-6.229,0-11.271-5.044-11.271-11.27 c0-6.236,5.042-11.274,11.271-11.274C131.792,403.424,136.836,408.463,136.836,414.699z"/>
		<path d="M860.139,405.102c0,6.234-5.033,11.27-11.267,11.27c-6.224,0-11.272-5.036-11.272-11.27 c0-6.223,5.049-11.271,11.272-11.271C855.105,393.832,860.139,398.879,860.139,405.102z"/>
		<path d="M858.021,408.398c0,6.224-5.05,11.269-11.267,11.269c-6.235,0-11.291-5.045-11.291-11.269 c0-6.221,5.056-11.267,11.291-11.267C852.971,397.131,858.021,402.177,858.021,408.398z"/>
		<path d="M864.989,474.379c0,6.219-5.039,11.268-11.269,11.268c-6.229,0-11.277-5.049-11.277-11.268 c0-6.229,5.049-11.273,11.277-11.273C859.95,463.106,864.989,468.151,864.989,474.379z"/>
		<path d="M863.058,476.989c0,6.229-5.05,11.279-11.29,11.279c-6.213,0-11.268-5.051-11.268-11.279 c0-6.227,5.055-11.265,11.268-11.265C858.008,465.724,863.058,470.762,863.058,476.989z"/>
		<path d="M856.315,544.278c0,6.227-5.052,11.277-11.271,11.277c-6.233,0-11.287-5.051-11.287-11.277 c0-6.229,5.054-11.264,11.287-11.264C851.264,533.014,856.315,538.049,856.315,544.278z"/>
		<path d="M854.275,546.319c0,6.225-5.055,11.277-11.277,11.277c-6.219,0-11.271-5.053-11.271-11.277 c0-6.223,5.052-11.273,11.271-11.273C849.221,535.045,854.275,540.096,854.275,546.319z"/>
		<path d="M832.578,611.422c0,6.232-5.055,11.281-11.288,11.281c-6.216,0-11.265-5.049-11.265-11.281 c0-6.215,5.049-11.27,11.265-11.27C827.523,600.153,832.578,605.208,832.578,611.422z"/>
		<path d="M830.637,612.784c0,6.227-5.058,11.262-11.273,11.262c-6.23,0-11.281-5.035-11.281-11.262 s5.051-11.27,11.281-11.27C825.579,601.514,830.637,606.557,830.637,612.784z"/>
		<path d="M794.695,672.95c0,6.225-5.051,11.266-11.273,11.266c-6.23,0-11.277-5.041-11.277-11.266 c0-6.23,5.047-11.271,11.277-11.271C789.645,661.678,794.695,666.719,794.695,672.95z"/>
		<path d="M744.324,727.391c0,6.217-5.057,11.285-11.291,11.285c-6.215,0-11.265-5.068-11.265-11.285 c0-6.223,5.05-11.275,11.265-11.275C739.268,716.116,744.324,721.168,744.324,727.391z"/>
		<path d="M614.969,802.389c0,6.221-5.036,11.271-11.266,11.271c-6.227,0-11.277-5.051-11.277-11.271 c0-6.234,5.051-11.279,11.277-11.279C609.933,791.11,614.969,796.155,614.969,802.389z"/>
		<path d="M540.949,818.563c0,6.232-5.043,11.27-11.271,11.27c-6.232,0-11.265-5.037-11.265-11.27 c0-6.225,5.032-11.27,11.265-11.27C535.906,807.293,540.949,812.338,540.949,818.563z"/>
		<path d="M463.934,819.725c0,6.219-5.051,11.277-11.285,11.277c-6.216,0-11.271-5.059-11.271-11.277 c0-6.225,5.055-11.273,11.271-11.273C458.883,808.452,463.934,813.5,463.934,819.725z"/>
		<path d="M389.131,805.19c0,6.221-5.043,11.275-11.267,11.275c-6.225,0-11.271-5.055-11.271-11.275 c0-6.219,5.047-11.279,11.271-11.279C384.087,793.911,389.131,798.971,389.131,805.19z"/>
		<path d="M318.026,775.741c0,6.223-5.049,11.277-11.279,11.277c-6.224,0-11.273-5.055-11.273-11.277 c0-6.227,5.049-11.275,11.273-11.275C312.977,764.465,318.026,769.514,318.026,775.741z"/>
		<path d="M687.775,767.491c0,6.223-5.049,11.277-11.279,11.277c-6.224,0-11.273-5.055-11.273-11.277 c0-6.227,5.05-11.275,11.273-11.275C682.727,756.215,687.775,761.264,687.775,767.491z"/>
		<path d="M151.326,345.196c0,6.221-5.042,11.268-11.268,11.268c-6.23,0-11.28-5.047-11.28-11.268 c0-6.228,5.05-11.273,11.28-11.273C146.285,333.922,151.326,338.968,151.326,345.196z"/>
		<path d="M153.782,347.509c0,6.222-5.044,11.266-11.266,11.266c-6.218,0-11.265-5.044-11.265-11.266 c0-6.233,5.046-11.278,11.265-11.278C148.737,336.231,153.782,341.276,153.782,347.509z"/>
		<path d="M181.528,283.395c0,6.218-5.045,11.272-11.272,11.272c-6.222,0-11.272-5.054-11.272-11.272 c0-6.225,5.051-11.275,11.272-11.275C176.483,272.12,181.528,277.17,181.528,283.395z"/>
		<path d="M182.763,285.703c0,6.228-5.047,11.278-11.268,11.278c-6.238,0-11.278-5.05-11.278-11.278 c0-6.222,5.04-11.264,11.278-11.264C177.716,274.439,182.763,279.481,182.763,285.703z"/>
		<path d="M222.995,228.989c0,6.237-5.051,11.281-11.287,11.281c-6.22,0-11.269-5.044-11.269-11.281 c0-6.227,5.049-11.269,11.269-11.269C217.944,217.72,222.995,222.762,222.995,228.989z"/>
		<path d="M271.989,183.223c0,6.23-4.381,11.272-9.794,11.272c-5.421,0-9.813-5.042-9.813-11.272 c0-6.224,4.392-11.275,9.813-11.275C267.608,171.948,271.989,176.999,271.989,183.223z"/>
		<path d="M329.939,148.397c0,6.222-4.397,11.266-9.81,11.266c-5.416,0-9.809-5.044-9.809-11.266 c0-6.229,4.393-11.277,9.809-11.277C325.542,137.12,329.939,142.167,329.939,148.397z"/>
		<path d="M393.435,123.583c0,6.222-4.395,11.272-9.811,11.272c-5.417,0-9.803-5.051-9.803-11.272 c0-6.221,4.386-11.275,9.803-11.275C389.04,112.308,393.435,117.362,393.435,123.583z"/>
		<path d="M459.854,111.253c0,6.225-4.394,11.278-9.81,11.278c-5.407,0-9.8-5.053-9.8-11.278 c0-6.221,4.393-11.274,9.8-11.274C455.459,99.979,459.854,105.032,459.854,111.253z"/>
		<path d="M527.816,110.951c0,6.224-4.395,11.27-9.805,11.27c-5.42,0-9.812-5.045-9.812-11.27 c0-6.236,4.392-11.281,9.812-11.281C523.422,99.669,527.816,104.715,527.816,110.951z"/>
		<path d="M594.232,122.499c0,6.233-4.386,11.275-9.804,11.275c-5.412,0-9.812-5.042-9.812-11.275 c0-6.221,4.399-11.269,9.812-11.269C589.847,111.23,594.232,116.278,594.232,122.499z"/>
		<path d="M658.354,145.777c0,6.221-4.398,11.272-9.811,11.272c-5.418,0-9.813-5.051-9.813-11.272 c0-6.23,4.395-11.275,9.813-11.275C653.955,134.501,658.354,139.547,658.354,145.777z"/>
		<path d="M716.897,180.449c0,6.227-4.369,11.275-9.79,11.275c-5.416,0-9.812-5.048-9.812-11.275 c0-6.228,4.396-11.272,9.812-11.272C712.528,169.177,716.897,174.221,716.897,180.449z"/>
		<path d="M716.76,183.223c0,6.23-4.395,11.272-9.813,11.272c-5.411,0-9.808-5.042-9.808-11.272 c0-6.224,4.396-11.275,9.808-11.275C712.365,171.948,716.76,176.999,716.76,183.223z"/>
		<path d="M768.697,224.984c0,6.23-4.398,11.276-9.811,11.276c-5.433,0-9.809-5.045-9.809-11.276 c0-6.224,4.376-11.263,9.809-11.263C764.299,213.721,768.697,218.76,768.697,224.984z"/>
		<path d="M766.842,225.442c0,6.236-4.394,11.28-9.81,11.28c-5.414,0-9.81-5.044-9.81-11.28 c0-6.222,4.396-11.263,9.81-11.263C762.448,214.179,766.842,219.22,766.842,225.442z"/>
		<path d="M767.924,226.99c0,6.228-4.396,11.278-9.813,11.278c-5.412,0-9.808-5.051-9.808-11.278 c0-6.23,4.396-11.279,9.808-11.279C763.527,215.711,767.924,220.759,767.924,226.99z"/>
		<path d="M810.299,278.314c0,6.222-4.394,11.264-9.805,11.264c-5.419,0-9.811-5.042-9.811-11.264 c0-6.233,4.392-11.275,9.811-11.275C805.905,267.039,810.299,272.081,810.299,278.314z"/>
		<path d="M808.145,279.544c0,6.224-4.398,11.269-9.813,11.269c-5.42,0-9.809-5.044-9.809-11.269 c0-6.227,4.389-11.278,9.809-11.278C803.746,268.267,808.145,273.317,808.145,279.544z"/>
		<path d="M809.073,281.24c0,6.226-4.388,11.272-9.812,11.272c-5.428,0-9.803-5.047-9.803-11.272 c0-6.233,4.375-11.277,9.803-11.277C804.686,269.963,809.073,275.007,809.073,281.24z"/>
		<path d="M841.279,339.333c0,6.233-4.395,11.275-9.811,11.275c-5.417,0-9.813-5.042-9.813-11.275 c0-6.221,4.396-11.264,9.813-11.264C836.885,328.069,841.279,333.112,841.279,339.333z"/>
		<path d="M838.041,340.881c0,6.225-4.401,11.272-9.814,11.272c-5.414,0-9.806-5.047-9.806-11.272 c0-6.23,4.392-11.271,9.806-11.271C833.64,329.609,838.041,334.651,838.041,340.881z"/>
		<path d="M838.345,342.568c0,6.228-4.392,11.284-9.808,11.284c-5.418,0-9.799-5.056-9.799-11.284 c0-6.225,4.381-11.26,9.799-11.26C833.953,331.308,838.345,336.344,838.345,342.568z"/>
		<path d="M140.695,550.93c0,6.227-5.057,11.273-11.272,11.273c-6.238,0-11.274-5.047-11.274-11.273 c0-6.223,5.036-11.275,11.274-11.275C135.638,539.655,140.695,544.708,140.695,550.93z"/>
		<path d="M143.628,553.245c0,6.227-5.055,11.27-11.282,11.27c-6.225,0-11.275-5.043-11.275-11.27 c0-6.229,5.051-11.279,11.275-11.279C138.573,541.965,143.628,547.016,143.628,553.245z"/>
		<path d="M166.119,618.579c0,6.229-5.049,11.281-11.271,11.281c-6.228,0-11.278-5.053-11.278-11.281 c0-6.227,5.05-11.268,11.278-11.268C161.07,607.311,166.119,612.352,166.119,618.579z"/>
		<path d="M168.896,620.127c0,6.219-5.054,11.275-11.275,11.275c-6.231,0-11.271-5.057-11.271-11.275 c0-6.23,5.039-11.271,11.271-11.271C163.842,608.856,168.896,613.897,168.896,620.127z"/>
		<path d="M204.677,680.483c0,6.236-5.055,11.285-11.281,11.285c-6.226,0-11.271-5.049-11.271-11.285 c0-6.213,5.044-11.268,11.271-11.268C199.622,669.215,204.677,674.27,204.677,680.483z"/>
		<path d="M206.981,681.569c0,6.227-5.051,11.277-11.274,11.277c-6.22,0-11.273-5.051-11.273-11.277 c0-6.229,5.054-11.264,11.273-11.264C201.93,670.305,206.981,675.34,206.981,681.569z"/>
		<path d="M256.606,734.125c0,6.221-5.046,11.27-11.281,11.27c-6.212,0-11.27-5.049-11.27-11.27 c0-6.227,5.058-11.283,11.27-11.283C251.56,722.842,256.606,727.899,256.606,734.125z"/>
		<path d="M490.081,759.448h-31.303l0.019-0.184l21.577-283.297l-6.723,21.525L427.92,752.711l-0.163-0.035 l-32.211-6.152l0.067-0.176l77.72-248.93l2.771-15.502L366.174,735.911l-0.159-0.064l-29.147-13.344l0.076-0.154 l140.899-254.575l-3.327,5.204L326.598,715.514l-6.437-2.488l0.104-0.16l153.972-240.057l4.967-8.138l0.258-1.528 L310.555,704.702l-0.135-0.088l-25.17-15.564l0.116-0.145l190.259-232.695L262.389,667.131l-21.818-24.373l0.129-0.104 l233.905-190.111L222.541,618.485l-0.083-0.164l-14.846-26.947l0.142-0.074l266.506-142.57L196.896,563.405l-8.104-28.588 l0.161-0.059l279.11-87.58l-280.584,78.99l-4.362-10.674l0.181-0.047l273.484-68.911h-21.318l-257.273,30.854l0.016-0.193 l1.685-30.988h255.561l21.629-2.6l-273.926-25.82l4.414-28.24l0.159,0.027l276.37,43.671l-12.256-4.689l-253.649-67.333 l10.966-25.746l0.144,0.053l242.633,92.714l15.561,4.13L221.536,311.26l0.145-0.295l247.421,121.839l0.791,0.21L228.818,304.198 l3.915-8.295l0.147,0.08l244.357,135.854L238.072,287.569l17.917-22.874l0.119,0.095l220.438,163.478l-2.844-3.253 l-198.29-180.739l23.341-19.498l0.106,0.115l175.075,199.894l6.189,5.65L321.119,209.82l0.171-0.081l27.908-14.148l0.076,0.128 L481.35,421.94l-3.461-16.358L372.726,184.213l29.738-6.979l0.054,0.151l73.956,221.502l-5.264-24.987l-56.802-201.287 l13.719-4.22l0.039,0.173l43.356,205.252l8.995,31.903L457.278,166.44l29.079-0.946v0.167l-2.237,252.266l0.831,1.759 l27.943-252.799l0.166,0.024l28.904,4.733l-0.034,0.172l-55.092,251.835l0.931,1.982l0.055,0.52l81.623-247.979l0.158,0.047 l27.02,8.526l-0.071,0.164L493.699,427.091l128.066-229.146l0.152,0.069l25.12,13.271l-0.104,0.158L493.861,430.591 l175.529-204.4l22.406,18.111L499.479,431.028l211.395-167.631l19.547,22.877L497.218,433.361L745.779,307.68l0.067,0.142 l13.278,25.596l-0.164,0.071L495.918,437.769l275.302-78.725l0.06,0.115l4.354,8.201l-0.211,0.044l-265.42,70.575l2.836,0.035 l265.479-59.189l1.982,6.911l-0.172,0.038l-252.534,52.408l27.549,0.315l231.67-24.802l0.03,0.14l6.48,27.666h-0.203 l-237.963-2.683l-28.365,3.033l265.264,27.931l-3.344,30.004l-0.174-0.035l-287.813-50.089l2.349,1.302l280.048,77.24 l-0.046,0.172l-9.005,28.426l-0.161-0.07l-255.99-97.451l54.885,30.709l190.549,94.779l-4.373,9.729L572.654,490.27 l-33.676-16.756l214.975,130.123l-4.891,7.336l-0.145-0.082L495.456,456.184l236.835,179.969l-19.533,23.816l-0.133-0.109 L494.088,455.565l-1.176-0.879l0.01,0.104l199.331,225.685l-0.138,0.098l-24.147,20.361l-0.101-0.125L494.119,466.823 l0.072,0.698l5.564,12.229l143.717,237.824l-0.16,0.086l-29.094,14.361l-0.064-0.154L499.47,479.907l-4.836-8.016l0.241,2.492 l90.432,266.93l-17.741,5.762l-0.04-0.164l-70.851-254.369l1.421,14.307l55.645,243.904l-0.16,0.035l-30.878,7.227l-0.022-0.188 l-24.91-250.928l-6.832-29.949L490.081,759.448z M459.138,759.118h30.618l0.859-283.586l-3.764-16.507l-1.648-2.724 l-3.418,5.324l-0.578,7.689l3.236-7.475l0.307,0.115l-3.939,12.631L459.138,759.118z M498.357,509.458l24.63,248.15l30.36-7.1 L498.357,509.458z M395.976,746.272l31.683,6.051l45.211-252.324L395.976,746.272z M496.489,490.629l71.296,256.025 l17.107-5.547l-89.871-265.281L496.489,490.629z M337.332,722.348l28.673,13.133L476.357,480.5l2.482-13.838L337.332,722.348z M500.928,482.313l113.448,249.254l28.63-14.123L500.928,482.313z M320.646,712.877l5.806,2.227l140.241-229.941 L320.646,712.877z M285.734,688.969l24.731,15.289l169.148-241.88l2.115-11.837l-1.326-2.195l0.271-0.184l1.183,1.612 l0.59-3.238h-11.272l-281.971,88.485l7.907,27.938l280.064-115.79l0.146,0.288L208.06,591.51l14.59,26.5l254.495-167.534 l0.209,0.256l-236.32,192.067l21.376,23.857l215.192-212.862l0.241,0.21L285.734,688.969z M494.066,466.196l173.955,234.277 l23.758-20.035l-198.794-225.09L494.066,466.196z M496.654,457.52L712.73,659.495l19.09-23.285L496.654,457.52z M493.637,454.715l255.324,155.811l4.525-6.789L535.422,471.749l-42.927-21.347l0.357,3.571L493.637,454.715z M578.723,493.295 l180.105,100.746l4.086-9.119L578.723,493.295z M515.947,458.176l257.913,98.197l8.849-27.932L504.27,451.643L515.947,458.176z M183.563,515.717l4.121,10.055l281.418-79.235h-10.983L183.563,515.717z M490.938,475.493l6.568,28.801l-1.335-13.59 l-5.214-18.711L490.938,475.493z M499.865,449.174l288.566,50.23l3.258-29.34l-266.443-28.044l-29.109,3.119l2.828,1.077 l-0.114,0.305l-3.44-1.307l-2.209,0.237L499.865,449.174z M476.68,480.598l-2.574,14.322l6.387-20.398l0.24-3.293 L476.68,480.598z M490.957,470.776l5.024,18.02l-1.425-14.338l-2.079-6.135l-1.5-2.484L490.957,470.776z M535.58,471.454 l31.166,15.51l-50.932-28.49l-4.558-1.74L535.58,471.454z M479.336,465.774l-2.411,13.42l3.886-8.963l0.61-8.025l-0.839,1.308 L479.336,465.774z M494.557,471.124l3.736,6.213l-3.995-8.807L494.557,471.124z M180.208,446.537l-1.663,30.487l254.174-30.487 H180.208z M487.393,459.913l3.223,14.162l0.021-3.25l-2.873-10.295L487.393,459.913z M481.127,470.311l-0.213,2.805l2.602-8.319 L481.127,470.311z M493.264,469.633l1.148,3.375l-0.173-1.779L493.264,469.633z M492.781,468.177l1.386,2.294l-0.292-2.872 l-1.311-2.882l-1.582-2.122v0.3L492.781,468.177z M492.457,450.006l39.574,19.682l-22.481-13.6l-17.136-6.519L492.457,450.006z M488.396,461.579l2.24,8.043l0.016-4.319L488.396,461.579z M490.978,465.209l1.017,1.67l-1.012-2.969L490.978,465.209z M493.498,465.967l0.272,0.627l-0.03-0.274L493.498,465.967z M492.844,464.553l0.838,1.135l-1.064-10.756l-1.604-1.814 l-0.021,7.359L492.844,464.553z M488.064,460.403l2.588,4.277v-1.729l-0.49-1.469l-2.861-3.861L488.064,460.403z M479.92,462.508l-0.25,1.395l1.857-3.043l0.051-0.722L479.92,462.508z M490.982,462.051l0.938,1.248l-0.938-2.029V462.051z M481.994,450.963l-1.94,10.781l1.574-2.248l0.612-8.111L481.994,450.963z M490.452,461.335l0.206,0.28v-1.059l-1.85-4.08 L490.452,461.335z M487.055,456.749l2.765,3.729l-2.37-6.988l0.311-0.125l2.898,6.397l0.035-7.007l-1.796-2.035l0.235-0.229 l1.561,1.459l0.005-2.447l-0.853-0.42l-3.438,5.348L487.055,456.749z M481.951,459.608l-0.055,0.635l1.342-2.185l0.277,0.169 l-0.488,0.854l1.995-3.096l-0.259-0.42L481.951,459.608z M487.16,458.895l0.281,0.449l-0.686-2.448l-0.078-0.092L487.16,458.895 z M482.531,451.864l-0.537,7.104l2.592-3.707L482.531,451.864z M485.413,455.993l1.206,2.006l-0.424-1.851l-0.477-0.648 L485.413,455.993z M509.703,455.795l4.14,1.576l-10.903-6.096l-1.313-0.369L509.703,455.795z M484.971,455.284l0.25,0.4 l0.286-0.457l-0.257-0.345L484.971,455.284z M485.904,455.209l0.115,0.139l-0.059-0.219L485.904,455.209z M492.381,449.202 l15.609,5.941l-7.525-4.557l-8.17-2.25L492.381,449.202z M482.572,451.317l2.217,3.651l0.26-0.374l-2.477-3.318V451.317z M485.455,454.594l0.241,0.335l0.159-0.252l-0.102-0.515L485.455,454.594z M491.408,453.061l1.156,1.318l-0.023-0.254 L491.408,453.061z M482.619,450.779l2.626,3.542l0.395-0.582l-1.014-4.508l0.317-0.073l1.108,4.005l3.099-4.424l-3.496-1.748 l0.121-0.297l3.793,1.432l1.133-1.612v-1.83l-1.69-1.014l-2.319,0.512l-0.072-0.32l1.895-0.503l-3.352-2.017l0.018-0.037 l-1.773-0.683l-0.834,2.507l-0.313-0.082l0.574-2.637l-17.252-6.601l-277.738-43.882l-4.31,27.571l275.092,25.928l20.004-2.395 l0.065,0.314l-11.475,2.896l7.521,0.706l3.87-1.086l0.094,0.302l-2.815,0.894l6.707,0.637l0.138-0.758l0.319,0.039l-0.061,0.754 l5.101,0.481l-0.013,0.327h-5.144L482.619,450.779z M486.17,453.563l0.121,0.441l3.263-5.068l-0.103-0.05L486.17,453.563z M491.014,452.256l1.475,1.368l-0.336-3.392l-1.123-0.571L491.014,452.256z M500.586,450.292l1.154,0.313l-1.984-1.109 l-0.672-0.117L500.586,450.292z M482.136,450.123l0.179,0.253l0.174-2.209L482.136,450.123z M494.213,448.518l5.223,1.456 l-1.227-0.763L494.213,448.518z M491.029,449.3l1.082,0.531l-0.041-0.393l-1.041-0.397V449.3z M490.022,448.801l0.676,0.335 v-0.224l-0.604-0.229L490.022,448.801z M491.029,448.697l1.006,0.374l-0.078-0.828l-0.928-0.256V448.697z M498.314,448.913 l0.582,0.09l-5.381-3.009L498.314,448.913z M492.238,447.856l5.188,0.896l-5.274-3.19l-0.064,0.002l-0.068,0.111 L492.238,447.856z M490.279,448.405l0.422,0.155v-0.819L490.279,448.405z M488.795,448.183l0.541,0.279l0.043-0.058 L488.795,448.183z M489.891,448.243l0.074,0.041l0.736-1.164v-0.029L489.891,448.243z M491.029,447.639l0.873,0.157 l-0.158-1.685l-0.711,1.117L491.029,447.639z M482.971,446.209h1.62l-1.61-0.157L482.971,446.209z M472.228,446.209h10.274 l0.044-0.189l-7.474-0.711L472.228,446.209z M459.414,446.209h10.854l3.595-1.016l-7.595-0.714L459.414,446.209z M438.206,446.209h19.874l7.217-1.827l-6.671-0.621L438.206,446.209z M491.037,444.887l-0.004,1.147l0.568-0.811 L491.037,444.887z M492.442,445.024l0.148,0.083l1.661-0.342l-1.33-0.502L492.442,445.024z M495.41,444.861l0.051,0.024 l28.23-3.034l-9.175-0.963L495.41,444.861z M491.933,444.743h0.007l0.475-0.679l-0.566-0.225L491.933,444.743z M493.121,443.987 l1.711,0.655l18.614-3.865l-7.812-0.821l-11.603,2.595L493.121,443.987z M491.037,444.25l0.545,0.293l-0.076-0.828l-0.469-0.172 V444.25z M460.155,443.581l6.086,0.569l9.885-2.492L460.155,443.581z M489.711,443.505l1.012,0.551v-0.643l-0.231-0.083 L489.711,443.505z M491.811,443.486l0.791,0.299l0.778-1.096l-1.61,0.363L491.811,443.486z M491.07,443.203l0.396,0.146 l-0.026-0.232L491.07,443.203z M487.083,442.029l2.067,1.159l0.561-0.155L487.083,442.029z M483.516,440.316l6.738,2.57 l0.469-0.117l0.01-4.385l-1.025-0.113l0.414,1.459l-0.32,0.102l-0.526-1.599l-1.686-0.181l0.021-0.319l1.506,0.003l-1.459-4.333 l-1.203-2.059l-1.555,4.733l0.442,0.262l-0.169,0.288l-0.311-0.167l3.348,4.638l-0.262,0.205l-3.457-3.963L483.516,440.316z M491.056,439.21l-0.019,3.465l0.357-0.084L491.056,439.21z M491.303,438.441l0.409,4.061l2.204-0.582l1.568-2.234l0.272,0.182 l-1.224,1.887l7.994-2.127l-8.713-0.916l-0.984,0.283l-0.11-0.31l0.179-0.068L491.303,438.441z M503.443,439.726l-8.928,2.363 l10.089-2.243L503.443,439.726z M515.572,440.671l9.674,1.021l27.125-2.904l-26.274-0.292L515.572,440.671z M557.922,438.515 l234.99,2.662l-6.348-27.125L557.922,438.515z M506.633,439.73l7.873,0.825l10.054-2.079l-11.688-0.135L506.633,439.73z M467.147,434.055l15.765,6.026l0.787-3.631l-1.088-1.245L232.879,296.357l-3.638,7.71l242.024,129.316l9.317,2.468l-0.07,0.321 l-5.699-0.906l8.158,4.371l-0.146,0.288l-10.133-4.998L467.147,434.055z M483.982,436.759l-0.717,3.239l0.968-2.942 L483.982,436.759z M504.328,439.496l1.284,0.117l5.825-1.285l-2.623-0.033L504.328,439.496z M494.653,438.467l8.767,0.921 l4.181-1.117l-11.812-0.119L494.653,438.467z M484.606,436.978l1.315,1.498l-1.244-1.717L484.606,436.978z M491.28,438.117 l2.272,0.232l0.566-0.221l-2.839-0.026V438.117z M514.268,438.028l11.79,0.139l253.835-52.675l-1.798-6.279L514.268,438.028z M496.884,437.832l11.896,0.14l266.371-70.837l-4.088-7.71L496.884,437.832z M491.239,437.769l3.687,0.04l263.742-104.551 l-13.033-25.141L494.271,435.22l-0.161-0.291l2.856-1.798l-0.051-0.064L691.293,244.32l-21.859-17.681L491.965,433.291 l-0.253-0.207l154.845-221.677l-24.66-13.031L492.457,429.973l-0.295-0.147l104.02-242.864l-26.512-8.385l-81.765,248.36 l0.829,7.9l0.819,2.917l1.179,0.012v-1.761l0.338-0.013L491.239,437.769z M484.068,436.361l0.287,0.333l0.088-0.267 l-0.256-0.348l-0.063-0.03L484.068,436.361z M483.469,435.674l0.328,0.374l0.039-0.171L483.469,435.674z M484.355,435.751 l0.251,0.152l1.636-4.935l-0.735-1.236l-1.273,5.844L484.355,435.751z M473.92,434.795l3.502,0.549l-4.89-1.298L473.92,434.795z M482.601,434.685l1.044,0.634l-2.133-2.954l-2.707-2.014L482.601,434.685z M473.785,435.11l0.331,0.157L473.785,435.11z M482.38,432.994l1.603,2.226l1.289-5.918l-0.885-1.497l-0.38,3.515l-0.325-0.024l0.026-4.653l-0.989-1.702l0.336,3.518 l-0.319,0.054l-1.177-5.553L349.069,196.02l-27.45,13.917L481.292,431.5l1.702,1.566l-0.197,0.252L482.38,432.994z M472.797,434.62l0.146,0.021l-1.8-0.96l-0.535-0.13L472.797,434.62z M465.673,433.5l6.027,0.946l-2.717-1.329l-14.145-3.761 L465.673,433.5z M238.56,287.477l243.116,146.655l-4.121-4.703L256.042,265.144L238.56,287.477z M486.891,430.047l1.025,3.105 l-0.949-3.366L486.891,430.047z M487.16,429.236l1.049,3.744l-0.553-5.281L487.16,429.236z M710.828,263.852l-211.945,168.07 L729.922,286.19L710.828,263.852z M486.59,430.93l0.555,0.957l-0.438-1.313L486.59,430.93z M477.779,429.177l2.612,1.949 l-4.538-4.145L477.779,429.177z M485.618,429.245l0.753,1.301l0.172-0.499l-0.666-1.978L485.618,429.245z M486.012,427.439 l0.694,2.098l0.101-0.324l-0.67-2.359L486.012,427.439z M484.449,427.248l0.927,1.585l0.296-1.376l-0.93-2.801L484.449,427.248z M486.291,426.164l0.713,2.502l0.574-1.758l-0.129-1.208l-0.724-1.516L486.291,426.164z M484.035,427.196v0.873l0.082-0.737 L484.035,427.196z M198.638,361.001l250.292,66.452L209.34,335.902L198.638,361.001z M484.82,423.874l0.989,2.952l0.144-0.654 l-1.002-3.523L484.82,423.874z M484.048,426.553l0.116,0.23l0.326-2.874l-0.412-1.229L484.048,426.553z M482.642,424.155 l1.084,1.854l0.034-4.293l-1.912-5.719L482.642,424.155z M482.092,423.858l0.354,1.709l-0.119-1.313L482.092,423.858z M485.058,421.788l1.047,3.708l0.392-1.8l-1.334-2.829L485.058,421.788z M481.877,422.84l0.372,0.638l-0.858-8.868l-1.896-5.645 l-0.997-2.115L481.877,422.84z M485.221,420.261l1.385,2.914l54.97-251.256l-28.393-4.659L485.221,420.261z M484.086,421.675 l0.49,1.45l0.146-1.31l-0.61-2.189L484.086,421.675z M275.915,244.287l195.853,178.532l-173.056-197.58L275.915,244.287z M484.266,419.007l0.55,1.937l0.074-0.638L484.266,419.007z M481.704,414.547l2.067,6.165l0.016-2.211l-0.35-1.259l-1.842-3.859 L481.704,414.547z M483.742,417.129l0.057,0.125l2.229-251.423l-28.387,0.924l23.388,240.753L483.742,417.129z M481.508,412.414 l1.393,2.95l-1.693-6.022L481.508,412.414z M480.66,411.41l0.592,1.751l-0.078-0.657L480.66,411.41z M479.801,408.847l1.289,2.7 l-0.397-3.989l-8.161-28.94l4.86,22.995L479.801,408.847z M478.207,405.479l0.423,0.916l-0.653-1.963L478.207,405.479z M373.2,184.436l104.402,219.779l-0.526-2.516l-74.83-224.066L373.2,184.436z M414.803,172.84l55.374,196.257l-42.303-200.286 L414.803,172.84z"/>
		<path d="M220.316,833.327c0,0-4.461,1.033-4.823,3.936c0,0,6.972-0.289,7.426,0.303c0,0,1.925,6.09,1.641,8.244 c0,0,17.604-3.338,29.412,1.926c0,0,15.75-3.779,29.425,2.156c0,0,15.527-4.826,29.343,1.715c0,0,20.438-2.447,28.525,1.635 c0,0,17.916-2.449,30.105,1.34c0,0,13.806-3.494,29.265,1.182c0,0,17.024-4.01,29.941,0.893c0,0,18.95-5.203,29.063-1.854 c0,0,20.873-2.824,29.56,1.484c0,0,18.431-4.451,30.02,0.215c0,0,10.483-4.455,27.722,0.154c0,0,14.332-5.498,30.975-1.121 c0,0,15.898-4.596,29.051-0.953c0,0,17.772-4.24,29.285-1.115c0,0,16.789-5.207,29.055-1.193c0,0,13.437-4.76,29.331-0.82 c0,0,13.829-6.979,28.468-2.225c0,0,6.162-3.188,9.072-2.609c0,0,15.363-2.889,20.716-0.145c0,0,0.902-6.385,2.079-6.611h7.361 c0,0-1.999-4.162-3.646-4.162C758.686,835.7,503.27,851.803,220.316,833.327z"/>
		<path d="M376.742,837.758v-17.717h21.363c0,0,90.649,18.762,176.086-0.514h21.373l-0.525,18.756L376.742,837.758z "/>
		<path d="M620.047,797.973c-0.133,0-0.25-0.074-0.311-0.193c-0.063-0.182,0.014-0.365,0.178-0.438l42.721-18.748 c0.037-0.027,0.084-0.037,0.142-0.027l13.796,0.258c0.16-0.6,0.713-2.006,2.43-3.074c0-0.01,0.021-0.016,0.031-0.023 c2.584-1.217,9.229-4.879,8.936-7.313c-0.116-0.973-1.473-1.742-3.908-2.225c-0.181-0.039-0.294-0.209-0.264-0.396 c0.041-0.168,0.217-0.281,0.393-0.244c2.817,0.557,4.263,1.475,4.436,2.791c0.398,3.313-8.214,7.463-9.299,7.971 c-1.894,1.199-2.157,2.811-2.175,2.885c-0.026,0.16-0.159,0.291-0.318,0.283l-14-0.266l-42.657,18.727 C620.13,797.965,620.089,797.973,620.047,797.973z"/>
		<path d="M620.047,802.516c-0.133,0-0.25-0.074-0.311-0.191c-0.063-0.178,0.014-0.361,0.178-0.434l42.721-18.756 c0.037-0.02,0.084-0.029,0.142-0.029l13.796,0.25c0.16-0.586,0.713-2,2.43-3.07c0,0,0.021-0.002,0.031-0.014 c2.584-1.213,9.229-4.891,8.936-7.314c-0.116-0.967-1.473-1.75-3.908-2.229c-0.181-0.029-0.294-0.211-0.264-0.387 c0.041-0.168,0.217-0.285,0.393-0.242c2.817,0.549,4.263,1.473,4.436,2.773c0.398,3.324-8.214,7.479-9.299,7.984 c-1.894,1.199-2.157,2.813-2.175,2.885c-0.026,0.162-0.159,0.281-0.318,0.281l-14-0.264l-42.657,18.725 C620.13,802.512,620.089,802.516,620.047,802.516z"/>
		<path d="M620.047,800.249c-0.133,0-0.25-0.078-0.311-0.189c-0.063-0.176,0.014-0.365,0.178-0.445l42.721-18.756 c0.037-0.02,0.084-0.025,0.142-0.025l13.796,0.256c0.16-0.598,0.713-2.002,2.43-3.074c0,0,0.021-0.014,0.031-0.021 c2.584-1.203,9.229-4.875,8.936-7.305c-0.116-0.969-1.473-1.744-3.908-2.234c-0.181-0.031-0.294-0.205-0.264-0.379 c0.041-0.174,0.217-0.289,0.393-0.254c2.817,0.551,4.263,1.475,4.436,2.787c0.398,3.324-8.214,7.463-9.299,7.971 c-1.894,1.201-2.157,2.828-2.175,2.881c-0.026,0.178-0.159,0.277-0.318,0.297l-14-0.27l-42.657,18.727 C620.13,800.231,620.089,800.249,620.047,800.249z"/>
		<path d="M620.908,807.645c-0.318,0-0.615-0.186-0.743-0.488c-0.194-0.422,0-0.906,0.415-1.09l42.72-18.748 c0.096-0.045,0.235-0.07,0.345-0.07l13.433,0.25c0.292-0.773,0.966-2.012,2.527-2.998c0.028-0.01,0.062-0.025,0.091-0.039 c3.62-1.691,8.855-5.033,8.642-6.813c-0.074-0.711-1.364-1.379-3.511-1.799c-0.449-0.094-0.724-0.529-0.637-0.971 c0.088-0.441,0.521-0.74,0.964-0.633c3.048,0.604,4.625,1.648,4.817,3.209c0.439,3.568-7.764,7.623-9.535,8.465 c-1.678,1.072-1.924,2.461-1.924,2.533c-0.072,0.402-0.41,0.695-0.822,0.695c0,0,0,0-0.01,0l-13.885-0.256l-42.56,18.68 C621.123,807.624,621.023,807.645,620.908,807.645z"/>
		<path d="M623.652,805.469c-0.178,0-0.324-0.164-0.324-0.34v-9.039c0-0.186,0.146-0.334,0.324-0.334 c0.187,0,0.33,0.148,0.33,0.334v9.039C623.982,805.305,623.839,805.469,623.652,805.469z"/>
		<path d="M627.604,804.135c-0.183,0-0.318-0.141-0.318-0.318v-9.502c0-0.188,0.136-0.32,0.318-0.32 c0.188,0,0.331,0.133,0.331,0.32v9.502C627.936,803.995,627.792,804.135,627.604,804.135z"/>
		<path d="M635.826,800.413c-0.18,0-0.324-0.146-0.324-0.33v-9.412c0-0.17,0.145-0.318,0.324-0.318 c0.188,0,0.34,0.148,0.34,0.318v9.412C636.166,800.266,636.014,800.413,635.826,800.413z"/>
		<path d="M644.001,796.823c-0.171,0-0.32-0.148-0.32-0.332v-9.4c0-0.176,0.149-0.328,0.32-0.328 c0.188,0,0.335,0.152,0.335,0.328v9.4C644.336,796.674,644.188,796.823,644.001,796.823z"/>
		<path d="M649.914,794.274c-0.182,0-0.322-0.146-0.322-0.318v-9.408c0-0.182,0.141-0.324,0.322-0.324 c0.18,0,0.325,0.143,0.325,0.324v9.408C650.239,794.127,650.094,794.274,649.914,794.274z"/>
		<path d="M665.635,788.874c-0.186,0-0.327-0.148-0.327-0.332v-9.408c0-0.176,0.142-0.326,0.327-0.326 c0.177,0,0.318,0.15,0.318,0.326v9.408C665.953,788.725,665.812,788.874,665.635,788.874z"/>
		<path d="M673.582,788.874c-0.184,0-0.331-0.148-0.331-0.332v-9.408c0-0.176,0.147-0.326,0.331-0.326 c0.18,0,0.332,0.15,0.332,0.326v9.408C673.914,788.725,673.762,788.874,673.582,788.874z"/>
		<path d="M676.893,788.874c-0.18,0-0.32-0.148-0.32-0.332v-9.408c0-0.176,0.141-0.326,0.32-0.326 c0.185,0,0.331,0.15,0.331,0.326v9.408C677.224,788.725,677.077,788.874,676.893,788.874z"/>
		<path d="M679.357,785.833c-0.188,0-0.335-0.154-0.335-0.322v-9.412c0-0.178,0.147-0.33,0.335-0.33 c0.173,0,0.316,0.152,0.316,0.33v9.412C679.674,785.678,679.53,785.833,679.357,785.833z"/>
		<path d="M676.322,771.026c-0.18,0-0.35-0.053-0.5-0.164c-0.361-0.273-0.439-0.789-0.166-1.154 c0.109-0.125,2.559-3.299,7.06-5.174c0.009,0,0.026,0,0.044-0.008c1.794-0.646,4.787-2.16,5.128-3.523 c0.116-0.439,0.546-0.705,0.989-0.6c0.439,0.113,0.718,0.557,0.6,1c-0.641,2.609-5.49,4.424-6.152,4.658 c-4.084,1.707-6.332,4.617-6.362,4.652C676.803,770.928,676.553,771.026,676.322,771.026z"/>
		<path d="M676.322,768.159c-0.074,0-0.146-0.016-0.202-0.063c-0.147-0.109-0.183-0.311-0.069-0.467 c0.092-0.121,2.473-3.193,6.853-5.004c1.387-0.494,5.023-2.143,5.458-3.875c0.043-0.176,0.222-0.293,0.396-0.242 c0.17,0.045,0.279,0.227,0.235,0.396c-0.6,2.432-5.634,4.256-5.854,4.322c-4.188,1.746-6.541,4.787-6.566,4.813 C676.511,768.12,676.406,768.159,676.322,768.159z"/>
		<path d="M676.322,765.872c-0.074,0-0.146-0.021-0.202-0.068c-0.147-0.105-0.183-0.318-0.069-0.463 c0.092-0.121,2.473-3.197,6.853-5.012c1.387-0.494,5.023-2.135,5.458-3.875c0.043-0.172,0.222-0.289,0.396-0.234 c0.17,0.041,0.279,0.219,0.235,0.391c-0.6,2.434-5.634,4.258-5.854,4.332c-4.188,1.744-6.541,4.768-6.566,4.809 C676.511,765.821,676.406,765.872,676.322,765.872z"/>
		<path d="M676.322,763.495c-0.074,0-0.146-0.018-0.202-0.068c-0.147-0.102-0.183-0.32-0.069-0.463 c0.092-0.117,2.473-3.205,6.853-5.01c1.387-0.49,5.023-2.141,5.458-3.877c0.043-0.182,0.222-0.279,0.396-0.234 c0.17,0.045,0.279,0.225,0.235,0.396c-0.6,2.432-5.634,4.246-5.854,4.328c-4.188,1.736-6.541,4.775-6.566,4.799 C676.511,763.456,676.406,763.495,676.322,763.495z"/>
		<rect x="682.043" y="751.454" width="1.809" height="37.764"/>
		<path d="M352.273,797.973c-0.044,0-0.086-0.008-0.134-0.033l-42.65-18.727l-13.992,0.266 c-0.178,0-0.318-0.123-0.329-0.285c-0.017-0.072-0.275-1.684-2.189-2.883c-1.07-0.508-9.678-4.658-9.28-7.971 c0.161-1.316,1.609-2.234,4.434-2.791c0.174-0.037,0.347,0.076,0.373,0.244c0.039,0.188-0.07,0.357-0.245,0.396 c-2.438,0.482-3.797,1.252-3.911,2.225c-0.288,2.441,6.347,6.096,8.931,7.313c0.009,0.008,0.021,0.014,0.031,0.023 c1.714,1.068,2.272,2.475,2.436,3.074l13.793-0.258c0.047,0,0.099,0,0.142,0.027l42.725,18.748 c0.161,0.072,0.234,0.256,0.163,0.438C352.524,797.899,352.396,797.973,352.273,797.973z"/>
		<path d="M352.273,802.516c-0.044,0-0.086-0.004-0.134-0.031l-42.65-18.725l-13.992,0.264 c-0.178-0.016-0.318-0.119-0.329-0.281c-0.017-0.072-0.275-1.686-2.189-2.885c-1.07-0.506-9.678-4.66-9.28-7.984 c0.161-1.301,1.609-2.225,4.434-2.773c0.174-0.043,0.347,0.074,0.373,0.242c0.039,0.176-0.07,0.357-0.245,0.387 c-2.438,0.479-3.797,1.262-3.911,2.229c-0.288,2.424,6.347,6.102,8.931,7.314c0.009,0.012,0.021,0.012,0.031,0.014 c1.714,1.07,2.272,2.484,2.436,3.07l13.793-0.25c0.047,0,0.099,0.01,0.142,0.029l42.725,18.756 c0.161,0.072,0.234,0.256,0.163,0.434C352.524,802.442,352.396,802.516,352.273,802.516z"/>
		<path d="M352.273,800.249c-0.044,0-0.086-0.018-0.134-0.035l-42.65-18.727l-13.992,0.27 c-0.178,0-0.318-0.119-0.329-0.297c-0.017-0.053-0.275-1.68-2.189-2.881c-1.07-0.508-9.678-4.646-9.28-7.971 c0.161-1.313,1.609-2.236,4.434-2.787c0.174-0.035,0.347,0.08,0.373,0.254c0.039,0.174-0.07,0.348-0.245,0.379 c-2.438,0.49-3.797,1.266-3.911,2.234c-0.288,2.43,6.347,6.102,8.931,7.305c0.009,0.008,0.021,0.021,0.031,0.021 c1.714,1.072,2.272,2.477,2.436,3.074l13.793-0.256c0.047,0,0.099,0.006,0.142,0.025l42.725,18.756 c0.161,0.08,0.234,0.27,0.163,0.445C352.524,800.17,352.396,800.249,352.273,800.249z"/>
		<path d="M351.411,807.645c-0.114,0-0.224-0.021-0.337-0.072l-42.553-18.68l-13.88,0.256 c-0.418,0-0.78-0.293-0.832-0.703c0-0.064-0.251-1.453-1.93-2.525c-1.781-0.842-9.958-4.896-9.529-8.465 c0.189-1.561,1.766-2.605,4.814-3.209c0.45-0.107,0.875,0.191,0.968,0.633c0.084,0.441-0.209,0.877-0.646,0.971 c-2.144,0.42-3.417,1.088-3.51,1.799c-0.212,1.779,5.03,5.121,8.65,6.813c0.027,0.014,0.057,0.029,0.085,0.039 c1.553,0.986,2.233,2.225,2.523,2.998l13.437-0.25c0.114,0,0.242,0.025,0.348,0.07l42.716,18.748 c0.42,0.184,0.609,0.668,0.42,1.09C352.021,807.459,351.718,807.645,351.411,807.645z"/>
		<path d="M295.999,771.026c-0.251,0-0.482-0.098-0.645-0.313l0,0c-0.026-0.035-2.306-2.953-6.364-4.652 c-0.656-0.234-5.5-2.049-6.146-4.658c-0.117-0.443,0.159-0.887,0.596-1c0.439-0.105,0.877,0.16,0.991,0.6 c0.347,1.363,3.326,2.877,5.129,3.523c0.015,0.008,0.03,0.008,0.042,0.008c4.489,1.875,6.952,5.049,7.055,5.174 c0.273,0.365,0.202,0.881-0.152,1.154C296.346,770.973,296.172,771.026,295.999,771.026z"/>
		<path d="M295.999,768.159c-0.092,0-0.186-0.039-0.266-0.119c-0.01-0.025-2.369-3.074-6.567-4.818 c-0.203-0.061-5.237-1.885-5.852-4.316c-0.047-0.17,0.07-0.352,0.246-0.396c0.169-0.051,0.348,0.066,0.396,0.242 c0.431,1.732,4.074,3.381,5.448,3.865c4.375,1.82,6.765,4.893,6.857,5.014c0.109,0.156,0.085,0.357-0.054,0.467 C296.143,768.143,296.072,768.159,295.999,768.159z"/>
		<path d="M295.999,765.872c-0.092,0-0.186-0.051-0.266-0.121c-0.01-0.041-2.369-3.074-6.567-4.816 c-0.203-0.066-5.237-1.891-5.852-4.324c-0.047-0.172,0.07-0.35,0.246-0.391c0.169-0.055,0.348,0.063,0.396,0.234 c0.431,1.74,4.074,3.381,5.448,3.865c4.375,1.824,6.765,4.9,6.857,5.021c0.109,0.145,0.085,0.344-0.054,0.463 C296.143,765.85,296.072,765.872,295.999,765.872z"/>
		<path d="M295.999,763.495c-0.092,0-0.186-0.039-0.266-0.129c-0.01-0.023-2.369-3.063-6.567-4.807 c-0.203-0.074-5.237-1.889-5.852-4.32c-0.047-0.172,0.07-0.352,0.246-0.396c0.169-0.045,0.348,0.053,0.396,0.234 c0.431,1.736,4.074,3.387,5.448,3.871c4.375,1.811,6.765,4.898,6.857,5.016c0.109,0.143,0.085,0.361-0.054,0.463 C296.143,763.477,296.072,763.495,295.999,763.495z"/>
		<rect x="288.469" y="751.454" width="1.802" height="37.764"/>
		<path d="M271.571,823.241c0,0,16.735-0.305,23.007,0.746l-0.885,1.797l1.184,14.785l-36.746,31.816 c0,0,128.914,7.918,142.519,10.316h174.328v10.457H100.081l-0.599-2.238h-1.94l0.744-8.369l16.43-3.139h103.228v-7.32h7.615 l1.943-17.783h-1.493v-2.395L271.571,823.241z"/>
		<path d="M700.391,823.241c0,0-16.729-0.305-23.004,0.746l0.891,1.797l-1.2,14.785l36.761,31.816 c0,0-128.926,7.918-142.521,10.316H464.18v10.457h407.711l0.597-2.238h1.944l-0.75-8.369l-16.43-3.139H754.025v-7.32h-7.621 l-1.939-17.783h1.492v-2.395L700.391,823.241z"/>
		<path d="M544.451,886.569c-0.357,0-0.65-0.297-0.65-0.656v-25.574H433.719v23.527c0,0.365-0.296,0.664-0.66,0.664 c-0.366,0-0.657-0.299-0.657-0.664v-24.182c0-0.363,0.291-0.656,0.657-0.656h111.392c0.369,0,0.647,0.293,0.647,0.656v26.229 C545.099,886.272,544.82,886.569,544.451,886.569z"/>
		<path d="M544.451,864.946H433.06c-0.366,0-0.657-0.301-0.657-0.672c0-0.357,0.291-0.645,0.657-0.645h111.392 c0.369,0,0.647,0.287,0.647,0.645C545.099,864.645,544.82,864.946,544.451,864.946z"/>
		<path d="M544.287,872.772H433.06c-0.366,0-0.657-0.291-0.657-0.654c0-0.367,0.291-0.656,0.657-0.656h111.228 c0.358,0,0.652,0.289,0.652,0.656C544.939,872.481,544.646,872.772,544.287,872.772z"/>
		<path d="M447.875,885.713c-0.367,0-0.656-0.293-0.656-0.65v-25.211c0-0.367,0.289-0.646,0.656-0.646 c0.366,0,0.659,0.279,0.659,0.646v25.211C448.534,885.42,448.241,885.713,447.875,885.713z"/>
		<path d="M462.187,885.713c-0.364,0-0.665-0.293-0.665-0.65v-25.211c0-0.367,0.301-0.646,0.665-0.646 c0.361,0,0.652,0.279,0.652,0.646v25.211C462.839,885.42,462.547,885.713,462.187,885.713z"/>
		<path d="M469.338,885.713c-0.369,0-0.659-0.293-0.659-0.65v-25.211c0-0.367,0.29-0.646,0.659-0.646 c0.366,0,0.65,0.279,0.65,0.646v25.211C469.988,885.42,469.704,885.713,469.338,885.713z"/>
		<path d="M476.663,885.713c-0.366,0-0.658-0.293-0.658-0.65v-25.211c0-0.367,0.292-0.646,0.658-0.646 c0.368,0,0.657,0.279,0.657,0.646v25.211C477.32,885.42,477.031,885.713,476.663,885.713z"/>
		<path d="M485.006,885.713c-0.358,0-0.65-0.293-0.65-0.65v-25.211c0-0.367,0.292-0.646,0.65-0.646 c0.37,0,0.648,0.279,0.648,0.646v25.211C485.654,885.42,485.376,885.713,485.006,885.713z"/>
		<path d="M492.844,885.713c-0.363,0-0.66-0.293-0.66-0.65v-25.211c0-0.367,0.297-0.646,0.66-0.646 c0.357,0,0.654,0.279,0.654,0.646v25.211C493.498,885.42,493.201,885.713,492.844,885.713z"/>
		<path d="M507.67,885.713c-0.371,0-0.66-0.293-0.66-0.65v-25.211c0-0.367,0.289-0.646,0.66-0.646 c0.35,0,0.645,0.279,0.645,0.646v25.211C508.314,885.42,508.02,885.713,507.67,885.713z"/>
		<path d="M522.479,885.713c-0.358,0-0.653-0.293-0.653-0.65v-25.211c0-0.367,0.295-0.646,0.653-0.646 c0.357,0,0.646,0.279,0.646,0.646v25.211C523.125,885.42,522.837,885.713,522.479,885.713z"/>
		<path d="M536.953,885.713c-0.352,0-0.654-0.293-0.654-0.65v-25.211c0-0.367,0.303-0.646,0.654-0.646 c0.365,0,0.66,0.279,0.66,0.646v25.211C537.613,885.42,537.318,885.713,536.953,885.713z"/>
		<path d="M177.568,790.317c0,0,30.011,79.189,39.265,90.262c0,0-20.306-81.242-25.053-88.008 c0,0,7.677,38.357,15.127,61.373C206.907,853.944,181.855,794.604,177.568,790.317z"/>
		<path d="M800.417,790.317c0,0-30.015,79.189-39.255,90.262c0,0,20.306-81.242,25.039-88.008 c0,0-7.675,38.357-15.121,61.373C771.08,853.944,796.122,794.604,800.417,790.317z"/>
		<path d="M353.221,870.862c-0.339,0-0.663-0.166-0.845-0.484l-12.248-20.914l-10.045-0.16l-11.537,16.613 c-0.306,0.439-0.923,0.557-1.37,0.25c-0.439-0.313-0.549-0.914-0.244-1.371l11.817-17.049c0.201-0.268,0.508-0.412,0.831-0.418 l11.134,0.168c0.345,0,0.655,0.203,0.842,0.492l12.513,21.4c0.278,0.461,0.119,1.057-0.346,1.34 C353.558,870.823,353.4,870.862,353.221,870.862z"/>
		<path d="M619.958,870.862c-0.168,0-0.341-0.039-0.504-0.133c-0.458-0.283-0.621-0.879-0.345-1.34l12.526-21.4 c0.168-0.289,0.484-0.492,0.831-0.492l11.12-0.168c0.335,0.006,0.646,0.15,0.833,0.418l11.83,17.049 c0.306,0.457,0.192,1.059-0.252,1.371c-0.437,0.307-1.054,0.189-1.372-0.25l-11.525-16.613l-10.052,0.16l-12.244,20.914 C620.614,870.696,620.293,870.862,619.958,870.862z"/>
		<path d="M573.611,875.784H404.553c-0.018,0-0.05,0-0.064-0.004l-87.472-7.523l-51.427-3.938 c-0.367-0.035-0.636-0.344-0.604-0.703c0.025-0.354,0.337-0.619,0.706-0.6l51.433,3.926l87.449,7.533h169.003l136.593-10.15 c0.37-0.041,0.672,0.244,0.704,0.598c0.031,0.371-0.242,0.678-0.6,0.701L573.655,875.78 C573.641,875.784,573.62,875.784,573.611,875.784z"/>
		<path d="M413.725,875.458c-0.228,0-0.439-0.104-0.557-0.303l-12.778-20.313c-0.189-0.303-0.106-0.711,0.204-0.898 c0.313-0.191,0.715-0.104,0.909,0.197l12.218,19.418l12.224-20.063c0.1-0.176,0.282-0.295,0.492-0.301l44.221-4.93 c0.235-0.031,0.472,0.088,0.608,0.285l7.54,10.807c0.202,0.299,0.142,0.709-0.175,0.924c-0.284,0.193-0.695,0.123-0.903-0.176 l-7.314-10.494l-43.523,4.844l-12.601,20.684c-0.115,0.205-0.333,0.318-0.552,0.318 C413.725,875.458,413.725,875.458,413.725,875.458z"/>
		<path d="M558.211,875.784c-0.018,0-0.018,0-0.037,0c-0.23-0.004-0.432-0.143-0.549-0.338l-11.285-21.297 l-46.102-1.613l-4.379,6.895c-0.205,0.301-0.608,0.396-0.914,0.205c-0.305-0.197-0.389-0.607-0.197-0.914l4.587-7.199 c0.135-0.193,0.349-0.328,0.582-0.305l46.848,1.635c0.233,0.02,0.442,0.15,0.552,0.35l10.932,20.633l13.495-21.328 c0.188-0.307,0.6-0.41,0.9-0.211c0.308,0.205,0.397,0.605,0.198,0.906l-14.076,22.281 C558.647,875.678,558.426,875.784,558.211,875.784z"/>
		<path d="M547.101,822.43l4.599-3.445c-3.358-85.041-53.562-330.232-56.202-343.068l6.312-5.311v-6.896h-8.127 v-1.926c13.246-5.658,5.473-18.536,5.473-18.536c7.596-18.182-11.648-19.596-11.648-19.596 c-20.652,3.529-10.76,18.702-10.76,18.702c-10.767,11.651,4.418,19.948,4.418,19.948v1.069h-8.837v7.405l6.83,5.283 c-2.946,14.402-52.815,258.186-56.172,342.926l4.599,3.445c0,0,52.716-270.908,57.166-334.174h5.188 C494.4,551.522,547.101,822.43,547.101,822.43z"/>
		<path d="M484.591,764.235c-41.99,0-82.724-7.98-121.076-23.736c-37.063-15.23-70.331-37.006-98.917-64.764 c-28.584-27.766-51.033-60.094-66.713-96.1c-16.243-37.295-24.471-76.91-24.471-117.735c0-40.821,8.229-80.438,24.471-117.727 c15.68-36.012,38.128-68.349,66.713-96.104c28.586-27.754,61.854-49.547,98.917-64.763 c38.352-15.755,79.085-23.741,121.076-23.741c41.987,0,82.722,7.986,121.092,23.741c37.042,15.215,70.313,37.008,98.902,64.763 c28.578,27.756,51.028,60.092,66.706,96.104c16.252,37.289,24.471,76.905,24.471,117.727c0,40.825-8.219,80.44-24.471,117.735 c-15.678,36.006-38.128,68.334-66.706,96.1c-28.589,27.758-61.86,49.533-98.902,64.764 C567.313,756.254,526.578,764.235,484.591,764.235z M484.591,168.737c-166.52,0-302.008,131.515-302.008,293.163 c0,161.655,135.488,293.173,302.008,293.173c166.519,0,302.003-131.518,302.003-293.173 C786.594,300.252,651.109,168.737,484.591,168.737z"/>
		<path d="M484.591,810.042c-48.364,0-95.268-9.189-139.44-27.338c-42.678-17.529-80.992-42.627-113.913-74.584 c-16.208-15.742-30.922-33.072-43.763-51.504c-12.943-18.619-24.063-38.525-33.049-59.154 c-18.697-42.934-28.177-88.545-28.177-135.562c0-47.007,9.48-92.623,28.177-135.559c8.986-20.631,20.105-40.528,33.049-59.147 c12.84-18.438,27.554-35.769,43.763-51.512c32.92-31.965,71.235-57.053,113.913-74.579 c44.173-18.15,91.076-27.345,139.44-27.345c48.354,0,95.276,9.195,139.437,27.345c42.672,17.526,80.994,42.613,113.91,74.579 c16.221,15.743,30.934,33.073,43.768,51.512c12.953,18.619,24.072,38.517,33.046,59.147 c18.704,42.936,28.19,88.552,28.19,135.559c0,47.017-9.486,92.628-28.19,135.562c-8.974,20.629-20.093,40.535-33.046,59.154 c-12.834,18.432-27.547,35.762-43.768,51.504c-32.916,31.957-71.238,57.055-113.91,74.584 C579.867,800.852,532.945,810.042,484.591,810.042z M484.591,122.936c-192.534,0-349.171,152.051-349.171,338.964 c0,186.919,156.637,338.974,349.171,338.974S833.772,648.819,833.772,461.9C833.772,274.987,677.125,122.936,484.591,122.936z"/>
	</g>
	<g class="seats"/>
	<g class="photos"/>
</svg>
