<svg version="1.1" viewBox="0 0 647.4 380" class="ln">
	<script type="text/javascript">
		// <![CDATA[
			this.SEATS = this.SEATS || {};
			this.SEATS.ln = {
				iconSize: 27.5,
				seatPositions: [
					[371.7, 78.5],
					[371.7, 49.5],
					[371.8, 20.5],
					[340.1, 78.5],
					[340.2, 49.5],
					[340.2, 20.5],
					[263.5, 78.5],
					[263.6, 49.5],
					[263.7, 20.5],
					[231.9, 78.5],
					[232, 49.5],
					[232, 20.5],
					[351.8, 335.5],
					[351.9, 306.6],
					[352, 277.6],
					[320.2, 335.6],
					[320.3, 306.6],
					[320.3, 277.6],
					[271, 335.5],
					[271.1, 306.6],
					[271.2, 277.6],
					[239.4, 335.6],
					[239.5, 306.6],
					[239.5, 277.6],
					[451.9, 78.5],
					[452, 49.5],
					[452.1, 20.5],
					[420.3, 78.5],
					[420.4, 49.5],
					[420.4, 20.5],
					[533.4, 78.5],
					[533.5, 49.5],
					[533.5, 20.5],
					[501.8, 78.5],
					[501.9, 49.5],
					[501.9, 20.5],
					[533.4, 136.5],
					[533.5, 107.5],
					[501.8, 136.5],
					[501.9, 107.5],
					[301.9, 66],
					[301.9, 34.3]
				]
			};
		// ]]>
	</script>

	<g class="walls">
		<g class="innerWalls">
			<polyline points="510.9,372.5 510.9,262.8 510.9,211.5 577.9,211.5 577.9,367.5 540.9,367.5"/>
			<line x1="571.4" y1="198.1" x2="571.4" y2="211.5"/>
			<polyline points="635.9,168 571.4,168 571.4,177.2"/>
			<line x1="582.4" y1="14" x2="582.4" y2="168"/>
			<polyline points="76.9,275.5 216.9,275.5 216.9,372.5"/>
			<line x1="582.4" y1="111.9" x2="640.9" y2="111.9"/>
			<line x1="582.4" y1="61.6" x2="640.9" y2="61.6"/>
			<polyline points="541.4,14 596.9,14 596.9,6.5 640.9,6.5"/>
			<path d="M261.6,238h-95.9c0,0,12-22.3,12-47s-12-47-12-47h95.9V238z"/>
			<path d="M377.8,238h-82.2V144h82.2c0,0,33.3,12,33.3,47S377.8,238,377.8,238z"/>
			<line x1="340.7" y1="238" x2="340.7" y2="144"/>
			<line x1="261.6" y1="20.5" x2="261.6" y2="106"/>
			<line x1="301.8" y1="64" x2="329.4" y2="64"/>
			<line x1="369.7" y1="20.5" x2="369.7" y2="106"/>
			<line x1="449.9" y1="20.5" x2="449.9" y2="106"/>
			<line x1="531.4" y1="20.5" x2="531.4" y2="164"/>
			<line x1="269" y1="277.5" x2="269" y2="363"/>
			<line x1="349.8" y1="277.5" x2="349.8" y2="363"/>
			<line x1="577.9" y1="261.9" x2="510.9" y2="261.9"/>
			<line x1="510.9" y1="311.9" x2="577.9" y2="311.9"/>
		</g>
		<polyline points="82.9,178.4 82.9,160.5 79.9,160.5 79.9,98.5 46.9,98.5 46.9,75.5 6.9,75.5 6.9,14.5 36.9,14.5 36.9,18.5 150.9,18.5 150.9,10 439.4,10"/>
		<line x1="438.9" y1="372.5" x2="144.9" y2="372.5"/>
		<polyline points="41.9,372.5 41.9,282.5 76.9,282.5 76.9,220.5 82.9,220.5 82.9,196"/>
	</g>
	<g class="seats"/>
	<g class="photos"/>
</svg>
