<svg version="1.1" viewBox="146 26 549 556" class="mv">
	<script type="text/javascript">
		// <![CDATA[
			this.SEATS = this.SEATS || {};
			this.SEATS.mv = {
				iconSize: 22.32,
				seatPositions: [
					[547.18, 278.21],
					[491, 278.21],
					[519.09, 278.21],
					[547.18, 364.477],
					[491, 364.477],
					[519.09, 364.477],
					[547.18, 399.286],
					[491, 399.286],
					[519.09, 399.286],
					[547.18, 425.604],
					[491, 425.604],
					[519.09, 425.604],
					[547.18, 338.158],
					[491, 338.158],
					[519.09, 338.158],
					[547.18, 251.891],
					[491, 251.891],
					[519.09, 251.891],
					[224.251, 151.705],
					[323.524, 151.705],
					[298.706, 151.705],
					[273.888, 151.705],
					[224.251, 271.849],
					[323.524, 271.848],
					[298.706, 271.849],
					[273.888, 271.849],
					[224.251, 306.687],
					[323.524, 306.687],
					[298.706, 306.687],
					[273.888, 306.687],
					[224.251, 332.116],
					[323.524, 332.116],
					[298.706, 332.116],
					[273.888, 332.116],
					[229.301, 426.606],
					[318.475, 426.604],
					[288.75, 426.606],
					[259.025, 426.606],
					[423.618, 478.309],
					[369.142, 478.309],
					[205.712, 478.309],
					[287.427, 478.309],
					[314.665, 478.309],
					[260.188, 478.309],
					[232.95, 478.309],
					[341.903, 503.762],
					[423.618, 503.762],
					[396.379, 503.762],
					[369.142, 503.762],
					[463.759, 451.888],
					[548.909, 451.888],
					[520.525, 451.887],
					[492.142, 451.887],
					[593.774, 273.702],
					[596.374, 215.092],
					[669.381, 215.092],
					[645.045, 215.092],
					[620.71, 215.092],
					[593.774, 322.947],
					[593.774, 298.324],
					[629.071, 273.702],
					[629.071, 322.947],
					[629.071, 298.324],
					[655.393, 273.702],
					[655.393, 322.947],
					[655.393, 298.324],
					[463.759, 478.208],
					[548.909, 478.208],
					[520.525, 478.207],
					[492.142, 478.207],
					[463.759, 502.629],
					[548.909, 502.629],
					[520.525, 502.628],
					[492.142, 502.628],
					[463.759, 529.059],
					[548.909, 529.059],
					[520.525, 529.058],
					[548.909, 554.642],
					[520.525, 554.641],
					[492.142, 529.058],
					[205.712, 503.762],
					[287.427, 503.762],
					[314.665, 503.762],
					[260.188, 503.762],
					[232.95, 503.762],
					[314.665, 553.892],
					[396.38, 553.892],
					[423.618, 553.892],
					[369.142, 553.892],
					[341.903, 553.892],
					[205.712, 553.892],
					[287.427, 553.892],
					[232.95, 553.892],
					[224.251, 186.03],
					[323.524, 186.03],
					[298.706, 186.03],
					[273.888, 186.03],
					[249.069, 151.705],
					[249.069, 271.849],
					[224.251, 246.528],
					[323.524, 246.527],
					[298.706, 246.528],
					[273.888, 246.528],
					[249.069, 246.528],
					[249.069, 306.687],
					[249.069, 332.116],
					[249.069, 392.178],
					[224.251, 366.654],
					[323.524, 366.652],
					[298.706, 366.654],
					[273.888, 366.654],
					[249.069, 366.654],
					[249.069, 186.03],
					[224.251, 211.475],
					[323.524, 211.473],
					[298.706, 211.475],
					[273.888, 211.475],
					[249.069, 211.475],
					[178.475, 553.892],
					[178.475, 491.036],
					[450.856, 553.892],
					[151.237, 553.892],
					[341.903, 478.309],
					[396.379, 478.309],
					[224.251, 392.178],
					[323.524, 392.176],
					[298.706, 392.178],
					[273.888, 392.178],
					[409.540, 170.003]
				]
			};
		// ]]>
	</script>
	<polygon class="background" points="588.472,75.759 588.472,153.92 693.644,153.92 693.644,579.207 148.241,579.207 148.241,54.494 258.011,54.494 258.011,75.759"/>
	<g class="walls">
		<g class="innerWalls">
			<line x1="587.472" y1="403.068" x2="587.472" y2="579.207"/>
			<polyline points="149.241,267.713 204.712,267.713 204.712,459.241 149.241,459.241"/>
			<polyline points="204.712,54.494 204.712,238.402 149.241,238.402"/>
			<polyline points="358.333,75.759 358.333,130.931 254.011,130.931 254.011,75.759"/>
			<line x1="587.472" y1="520.437" x2="640.058" y2="520.437"/>
			<line x1="587.472" y1="460.839" x2="640.058" y2="460.839"/>
			<line x1="204.673" y1="413.264" x2="149.242" y2="413.264"/>
			<line x1="149.242" y1="368.437" x2="204.673" y2="368.437"/>
			<line x1="204.712" y1="317.437" x2="149.242" y2="317.437"/>
			<line x1="204.712" y1="162.518" x2="149.242" y2="162.518"/>
			<line x1="204.712" y1="110.368" x2="149.242" y2="110.368"/>
			<line x1="481.724" y1="194.322" x2="364.931" y2="194.322"/>
			<line x1="358.333" y1="130.931" x2="358.333" y2="163.689"/>
			<rect x="364.931" y="292.276" width="84.46" height="123.987"/>
			<line x1="571.229" y1="527.058" x2="463.759" y2="527.058"/>
			<line x1="571.229" y1="476.207" x2="463.759" y2="476.207"/>
			<line x1="445.938" y1="502.195" x2="205.712" y2="502.195"/>
			<line x1="345.844" y1="390.539" x2="224.251" y2="390.539"/>
			<line x1="345.844" y1="330.422" x2="224.251" y2="330.422"/>
			<line x1="345.844" y1="270.413" x2="224.251" y2="270.413"/>
			<line x1="345.844" y1="209.908" x2="224.251" y2="209.908"/>
			<line x1="345.844" y1="150.3" x2="224.251" y2="150.3"/>
			<line x1="307.172" y1="130.931" x2="307.172" y2="75.759"/>
			<line x1="340.795" y1="424.604" x2="229.301" y2="424.604"/>
			<line x1="640.058" y1="579.207" x2="640.058" y2="403.068"/>
			<rect x="587.472" y="348.873" width="104.172" height="54.195"/>
			<rect x="586.472" y="160.689" width="105.172" height="52.402"/>
			<polyline points="480.724,75.759 480.724,160.689 586.472,160.689 586.472,75.759"/>
			<line x1="653.393" y1="273.702" x2="653.393" y2="345.269"/>
			<line x1="591.988" y1="273.702" x2="591.988" y2="345.269"/>
			<line x1="569.5" y1="423.604" x2="491" y2="423.604"/>
			<line x1="569.5" y1="362.477" x2="491" y2="362.477"/>
			<line x1="569.5" y1="276.21" x2="491" y2="276.21"/>
		</g>
		<polyline points="254.011,60.793 254.011,54.494 149.241,54.494 149.241,248"/>
		<polyline points="407.609,75.759 254.011,75.759 254.011,73.288"/>
		<polyline points="586.472,60.438 586.472,54.494 666.199,54.494"/>
		<polyline points="433.747,75.759 586.472,75.759 586.472,72.25"/>
		<line x1="509.414" y1="579.207" x2="666.199" y2="579.207"/>
		<line x1="281.25" y1="579.207" x2="495.771" y2="579.207"/>
		<polyline points="149.241,261.644 149.241,579.207 266.954,579.207"/>
	</g>
	<g class="roomNames">
		<g class="room" endpoint:id="52594bf403a06a5062934fa7">
			<text transform="matrix(1 0 0 1 334 101.25)" text-anchor="middle">
				<tspan x="0" y="0">Boot</tspan>
				<tspan x="0" y="14.4">Cut</tspan>
			</text>
			<rect class="roomArea" x="307.172" y="75.759" width="51.161" height="55.172" />
			<rect class="statusBadge" x="350.333" y="77.759" width="6" height="6" />
		</g>
		<g class="room" endpoint:id="4fb18e00e4b0378e4f2e5858">
			<text x="533" y="124" text-anchor="middle">Boardroom</text>
			<rect class="roomArea" x="480.724" y="75.759" width="105.748" height="84.931"/>
			<rect class="statusBadge" x="578.472" y="77.759" width="6" height="6" />
		</g>
		<g class="room" endpoint:id="52594bdc03a06a5062934fa6">
			<text transform="matrix(1 0 0 1 283 101.25)" text-anchor="middle">
				<tspan x="0" y="0">Button</tspan>
				<tspan x="0" y="14.4">Fly</tspan>
			</text>
			<rect class="roomArea" x="254.011" y="75.759" width="53.161" height="55.172" />
			<rect class="statusBadge" x="299.172" y="77.759" width="6" height="6" />
		</g>
		<g class="room" endpoint:id="52d496b9e4b0fc8d80784d0a">
			<text transform="matrix(1 0 0 1 177.5 195)" text-anchor="middle">
				<tspan x="0" y="0">Bell</tspan>
				<tspan x="0" y="14.4">Bottom</tspan>
			</text>
			<rect class="roomArea" x="149.241" y="162.518" width="55.47" height="75.885" />
			<rect class="statusBadge" x="196.712" y="164.518" width="6" height="6" />
		</g>
		<g class="room">
			<text x="177.5" y="89" text-anchor="middle">Capri</text>
			<rect class="roomArea" x="149.241" y="54.494" width="55.47" height="55.874" />
			<rect class="statusBadge" x="196.712" y="56.494" width="6" height="6" />
		</g>
		<g class="room">
			<text transform="matrix(1 0 0 1 179 133)" text-anchor="middle">
				<tspan x="0" y="0">Millennium</tspan>
				<tspan x="0" y="14.4">Falcon</tspan>
			</text>
			<rect class="roomArea" x="149.241" y="110.368" width="55.47" height="52.149" />
			<rect class="statusBadge" x="196.712" y="112.368" width="6" height="6" />
		</g>
		<g class="room" endpoint:id="52594bc403a06a5062934fa5">
			<text transform="matrix(1 0 0 1 177.5 290.25)" text-anchor="middle">
				<tspan x="0" y="0">Acid</tspan>
				<tspan x="0" y="14.4">Washed</tspan>
			</text>
			<rect class="roomArea" x="149.241" y="267.713" width="55.47" height="49.724" />
			<rect class="statusBadge" x="196.712" y="269.713" width="6" height="6" />
		</g>
		<g class="room" endpoint:id="507cda1ad213cb192dcb0d58">
			<text transform="matrix(1 0 0 1 177.5 341.25)" text-anchor="middle">
				<tspan x="0" y="0">Stone</tspan>
				<tspan x="0" y="14.4">Washed</tspan>
			</text>
			<rect class="roomArea" x="149.241" y="317.437" width="55.47" height="51" />
			<rect class="statusBadge" x="196.712" y="319.437" width="6" height="6" />
		</g>
		<g class="room" endpoint:id="52594ba203a06a5062934fa4">
			<text x="177.5" y="440" text-anchor="middle">Vintage</text>
			<rect x="149.241" y="413.264" class="roomArea" width="55.47" height="45.978" />
			<rect class="statusBadge" x="196.712" y="415.264" width="6" height="6" />
		</g>
		<g class="room" endpoint:id="53e31701e4b008d825c8af47">
			<text transform="matrix(1 0 0 1 614 480)" text-anchor="middle">
				<tspan x="0" y="0">Mos</tspan>
				<tspan x="0" y="14.4">Eisley</tspan>
				<tspan x="0" y="28.8">Cantina</tspan>
			</text>
			<rect class="roomArea" x="587.472" y="460.839" width="52.586" height="59.598" />
			<rect class="statusBadge" x="632.058" y="462.839" width="6" height="6" />
		</g>
		<g class="room" endpoint:id="53e99b4de4b0214754b6ca40">
			<text x="614" y="437" text-anchor="middle">Cargo</text>
			<rect class="roomArea" x="587.472" y="403.068" width="52.586" height="57.771" />
			<rect class="statusBadge" x="632.058" y="405.068" width="6" height="6" />
		</g>
						
		<text x="640" y="380" text-anchor="middle">War Room</text>
		<text x="423" y="140" text-anchor="middle">Lobby</text>
		<text x="418" y="248" text-anchor="middle">Break room</text>
		<text x="409.161" y="356" text-anchor="middle">Restrooms</text>
		<text x="638" y="191" text-anchor="middle">Servers</text>
		<text transform="matrix(1 0 0 1 614 545)" text-anchor="middle">
			<tspan x="0" y="0">Audio</tspan>
			<tspan x="0" y="14.4">lab</tspan>
		</text>
		<text transform="matrix(1 0 0 1 177.5 388)" text-anchor="middle">
			<tspan x="0" y="0">Video</tspan>
			<tspan x="0" y="14.4">lab</tspan>
		</text>
	</g>
	<g class="seats"></g>
	<g class="photos"></g>
	<polygon class="arrow right" points="665.188,107.865 643.479,86.155 643.479,96.193 624.587,96.193 624.587,119.538 643.479,119.538 643.479,129.575">
		<title>go south</title>
	</polygon>
	<polygon class="arrow upleft" points="361.821,26.511 361.82,57.214 368.918,50.115 382.276,63.475 398.784,46.967 385.425,33.607 392.522,26.51">
		<title>go northeast</title>
	</polygon>
</svg>
