<svg version="1.1" viewBox="146 52 549 530" class="mv">
	<script type="text/javascript">
		// <![CDATA[
			this.SEATS = this.SEATS || {};
			this.SEATS.mv = {
				iconSize: 22.32,
				seatPositions: [
					[224.251, 151.705],
					[150.300,  56.688],
					[150.300,  83.688],
					[182.000,  56.688],
					[150.300, 108.868],
					[150.300, 134.870],
					[182.001, 108.868],
					[323.524, 151.705],
					[298.706, 151.705],
					[273.888, 151.705],
					[224.251, 271.849],
					[323.524, 271.848],
					[298.706, 271.849],
					[273.888, 271.849],
					[224.251, 306.687],
					[323.524, 306.687],
					[298.706, 306.687],
					[273.888, 306.687],
					[224.251, 332.116],
					[323.524, 332.116],
					[298.706, 332.116],
					[273.888, 332.116],
					[232.149, 419.926],
					[321.324, 419.924],
					[368.931, 416.551],
					[396.169, 416.551],
					[291.599, 419.926],
					[261.874, 419.926],
					[423.618, 478.309],
					[369.142, 478.309],
					[205.712, 478.309],
					[287.427, 478.309],
					[314.665, 478.309],
					[260.188, 478.309],
					[232.950, 478.309],
					[341.903, 503.762],
					[423.618, 503.762],
					[396.379, 503.762],
					[369.142, 503.762],
					[463.759, 455.119],
					[548.909, 455.119],
					[520.525, 455.118],
					[492.142, 455.118],
					[668.831, 210.790],
					[642.831, 210.790],
					[618.032, 210.790],
					[668.831, 293.793],
					[668.831, 321.461],
					[618.032, 321.461],
					[642.831, 321.461],
					[668.831, 266.125],
					[668.831, 238.457],
					[590.581, 279.959],
					[590.581, 307.627],
					[590.581, 252.292],
					[590.581, 224.624],
					[470.080, 417.552],
					[548.909, 417.552],
					[522.633, 417.551],
					[496.355, 417.551],
					[470.080, 377.302],
					[548.909, 377.302],
					[522.633, 377.301],
					[496.355, 377.301],
					[470.080, 351.802],
					[548.909, 351.802],
					[522.633, 351.801],
					[496.355, 351.801],
					[470.080, 309.802],
					[548.909, 309.802],
					[522.633, 309.801],
					[496.355, 309.801],
					[548.909, 284.676],
					[518.403, 284.675],
					[487.896, 284.675],
					[548.909, 244.426],
					[518.403, 244.425],
					[487.896, 244.425],
					[548.909, 219.176],
					[518.403, 219.175],
					[548.909, 179.093],
					[514.908, 179.092],
					[487.896, 219.175],
					[463.759, 480.619],
					[548.909, 480.619],
					[520.525, 480.618],
					[492.142, 480.618],
					[463.759, 504.452],
					[548.909, 504.452],
					[520.525, 504.451],
					[492.142, 504.451],
					[463.759, 529.286],
					[548.909, 529.286],
					[520.525, 529.285],
					[548.909, 554.642],
					[520.525, 554.641],
					[492.142, 529.285],
					[205.712, 503.762],
					[287.427, 503.762],
					[314.665, 503.762],
					[260.188, 503.762],
					[232.950, 503.762],
					[314.665, 553.892],
					[396.380, 553.892],
					[423.618, 553.892],
					[369.142, 553.892],
					[341.903, 553.892],
					[205.712, 553.892],
					[287.427, 553.892],
					[232.950, 553.892],
					[224.251, 186.030],
					[323.524, 186.030],
					[298.706, 186.030],
					[273.888, 186.030],
					[249.069, 151.705],
					[249.069, 271.849],
					[224.251, 246.528],
					[323.524, 246.527],
					[298.706, 246.528],
					[273.888, 246.528],
					[249.069, 246.528],
					[249.069, 306.687],
					[249.069, 332.116],
					[249.069, 392.178],
					[224.251, 366.654],
					[323.524, 366.652],
					[298.706, 366.654],
					[273.888, 366.654],
					[249.069, 366.654],
					[249.069, 186.030],
					[224.251, 211.475],
					[323.524, 211.473],
					[298.706, 211.475],
					[273.888, 211.475],
					[249.069, 211.475],
					[178.475, 553.892],
					[178.475, 491.036],
					[450.856, 553.892],
					[151.237, 553.892],
					[423.618, 416.551],
					[341.903, 478.309],
					[396.379, 478.309],
					[224.251, 392.178],
					[323.524, 392.176],
					[298.706, 392.178],
					[273.888, 392.178],
					[642.830, 293.793],
					[642.830, 266.125],
					[642.830, 238.457],
					[618.032, 293.793],
					[618.032, 266.125],
					[618.032, 238.457]
				]
			};
		// ]]>
	</script>
	<polygon class="background" points="588.472,75.759 588.472,153.92 693.644,153.92 693.644,579.207 148.241,579.207 148.241,54.494 258.011,54.494 258.011,75.759"/>
	<g class="walls">
		<g class="innerWalls">
			<line x1="588.472" y1="153.92" x2="588.472" y2="579.207"/>
			<polyline points="148.241,267.713 205.712,267.713 205.712,460.241 148.241,460.241"/>
			<polyline points="205.712,54.494 205.712,238.402 148.241,238.402"/>
			<path d="M148.241,54.494"/>
			<polyline points="364.333,75.759 364.333,130.931 258.011,130.931 258.011,75.759"/>
			<path d="M588.472,75.759"/>
			<polyline points="482.724,75.759 482.724,163.689 588.472,163.689"/>
			<line x1="588.472" y1="519.437" x2="693.644" y2="519.437"/>
			<line x1="588.472" y1="464.839" x2="693.644" y2="464.839"/>
			<line x1="588.472" y1="405.068" x2="693.644" y2="405.068"/>
			<line x1="588.472" y1="345.873" x2="693.644" y2="345.873"/>
			<line x1="588.472" y1="209.092" x2="693.644" y2="209.092"/>
			<line x1="205.712" y1="414.264" x2="148.241" y2="414.264"/>
			<line x1="148.241" y1="369.437" x2="205.712" y2="369.437"/>
			<line x1="205.712" y1="319.437" x2="148.241" y2="319.437"/>
			<line x1="205.712" y1="158.518" x2="148.241" y2="158.518"/>
			<line x1="205.712" y1="107.368" x2="148.241" y2="107.368"/>
			<line x1="482.724" y1="199.322" x2="372.379" y2="199.322"/>
			<line x1="364.333" y1="130.931" x2="364.333" y2="163.689"/>
			<rect x="368.931" y="291.276" width="80.46" height="122.987"/>
			<line x1="571.229" y1="528.058" x2="463.759" y2="528.058"/>
			<line x1="571.229" y1="479.207" x2="463.759" y2="479.207"/>
			<line x1="445.938" y1="502.195" x2="205.712" y2="502.195"/>
			<line x1="345.844" y1="390.539" x2="224.251" y2="390.539"/>
			<line x1="345.844" y1="330.422" x2="224.251" y2="330.422"/>
			<line x1="345.844" y1="270.413" x2="224.251" y2="270.413"/>
			<line x1="345.844" y1="209.908" x2="224.251" y2="209.908"/>
			<line x1="345.844" y1="150.3" x2="224.251" y2="150.3"/>
			<line x1="470.08" y1="441.275" x2="571.229" y2="441.275"/>
			<line x1="470.08" y1="375.759" x2="571.229" y2="375.759"/>
			<line x1="470.08" y1="308.518" x2="571.229" y2="308.518"/>
			<line x1="571.229" y1="243" x2="487.896" y2="243"/>
			<line x1="571.229" y1="177.482" x2="514.908" y2="177.482"/>
			<line x1="311.172" y1="130.931" x2="311.172" y2="75.759"/>
			<line x1="343.644" y1="418.287" x2="232.149" y2="418.287"/>
		</g>
		<polyline points="258.011,58.793 258.011,54.494 148.241,54.494 148.241,245"/>
		<polyline points="412.609,75.759 258.011,75.759 258.011,70.288"/>
		<polyline points="503.414,579.207 693.644,579.207 693.644,153.92 588.472,153.92 588.472,75.759 436.747,75.759"/>
		<line x1="285.25" y1="579.207" x2="490.771" y2="579.207"/>
		<polyline points="148.241,260.644 148.241,579.207 272.954,579.207"/>
	</g>
	<g class="roomNames">
		<g class="room" endpoint:id="52594bf403a06a5062934fa7">
			<text transform="matrix(1 0 0 1 340 101.25)" text-anchor="middle">
				<tspan x="0" y="0">Boot</tspan>
				<tspan x="0" y="14.4">Cut</tspan>
			</text>
			<rect x="311.17" y="75.76" class="roomArea" width="53.16" height="55.17"/>
			<rect class="statusBadge" x="356.33" y="77.76" width="6" height="6" />
		</g>
		<g class="room" endpoint:id="4fb18e00e4b0378e4f2e5858">
			<text x="535" y="125" text-anchor="middle">Boardroom</text>
			<polygon class="roomArea" points="588.47,153.92 588.47,163.69 482.72,163.69 482.72,75.76 588.47,75.76"/>
			<rect class="statusBadge" x="580.47" y="77.76" width="6" height="6" />
		</g>
		<g class="room" endpoint:id="52594bdc03a06a5062934fa6">
			<text transform="matrix(1 0 0 1 288 101.25)" text-anchor="middle">
				<tspan x="0" y="0">Button</tspan>
				<tspan x="0" y="14.4">Fly</tspan>
			</text>
			<rect x="258.01" y="75.76" class="roomArea" width="53.16" height="55.17"/>
			<rect class="statusBadge" x="303.17" y="77.76" width="6" height="6" />
		</g>
		<g class="room" endpoint:id="52d496b9e4b0fc8d80784d0a">
			<text transform="matrix(1 0 0 1 178.5 195)" text-anchor="middle">
				<tspan x="0" y="0">Bell</tspan>
				<tspan x="0" y="14.4">Bottom</tspan>
			</text>
			<rect x="148.24" y="158.52" class="roomArea" width="57.47" height="79.88"/>
			<rect class="statusBadge" x="197.71" y="160.52" width="6" height="6" />
		</g>
		<g class="room" endpoint:id="52594bc403a06a5062934fa5">
			<text transform="matrix(1 0 0 1 178.5 290.25)" text-anchor="middle">
				<tspan x="0" y="0">Acid</tspan>
				<tspan x="0" y="14.4">Washed</tspan>
			</text>
			<rect x="148.24" y="267.71" class="roomArea" width="57.47" height="51.73"/>
			<rect class="statusBadge" x="197.71" y="269.71" width="6" height="6" />
		</g>
		<g class="room" endpoint:id="507cda1ad213cb192dcb0d58">
			<text transform="matrix(1 0 0 1 178.5 341.25)" text-anchor="middle">
				<tspan x="0" y="0">Stone</tspan>
				<tspan x="0" y="14.4">Washed</tspan>
			</text>
			<rect x="148.24" y="319.44" class="roomArea" width="57.47" height="50"/>
			<rect class="statusBadge" x="197.71" y="321.44" width="6" height="6" />
		</g>
		<g class="room" endpoint:id="52594ba203a06a5062934fa4">
			<text x="178.5" y="442" text-anchor="middle">Vintage</text>
			<rect x="148.24" y="414.26" class="roomArea" width="57.47" height="45.98"/>
			<rect class="statusBadge" x="197.71" y="416.26" width="6" height="6" />
		</g>
		<g class="room" endpoint:id="52594b8a03a06a5062934fa3">
			<text x="640" y="380" text-anchor="middle">Lagoon Washed</text>
			<rect x="588.47" y="345.87" class="roomArea" width="105.17" height="59.2"/>
			<rect class="statusBadge" x="685.64" y="347.87" width="6" height="6" />
		</g>
		<g class="room" endpoint:id="52594b6503a06a5062934fa2">
			<text x="640" y="439" text-anchor="middle">Carpenter</text>
			<rect x="588.47" y="405.07" class="roomArea" width="105.17" height="59.77"/>
			<rect class="statusBadge" x="685.64" y="407.07" width="6" height="6" />
		</g>
						
		<text x="423" y="140" text-anchor="middle">Lobby</text>
		<text x="418" y="248" text-anchor="middle">Break room</text>
		<text x="409.161" y="356" text-anchor="middle">Restrooms</text>
		<text x="640" y="186.5" text-anchor="middle">Servers</text>
		<text x="640" y="553" text-anchor="middle">Storage</text>
		<text x="640" y="497" text-anchor="middle">Ping-pong</text>
		<text x="178.5" y="396" text-anchor="middle">Audio</text>
		<!--<text x="178.5" y="85.5" text-anchor="middle">Capri</text>
		<text x="178.5" y="137" text-anchor="middle">Cargo</text>-->
	</g>
	<g class="seats"></g>
	<g class="photos"></g>
</svg>