<svg version="1.1" viewBox="146 26 549 556" class="mv">
	<script type="text/javascript">
		// <![CDATA[
			this.SEATS = this.SEATS || {};
			this.SEATS.mv = {
				iconSize: 20.623,
				seatPositions: [
					[548.876, 258.775],
					[491, 258.775],
					[519.938, 258.775],
					[548.876, 346.014],
					[491, 346.014],
					[519.938, 346.014],
					[548.876, 384.418],
					[491, 384.418],
					[519.938, 384.418],
					[548.876, 408.009],
					[491, 408.009],
					[519.938, 408.009],
					[548.876, 322.289],
					[491, 322.289],
					[519.938, 322.289],
					[548.876, 235.023],
					[491, 235.023],
					[519.938, 235.023],
					[224.251, 151.705],
					[325.221, 151.705],
					[299.979, 151.705],
					[274.736, 151.705],
					[224.251, 271.849],
					[325.221, 271.848],
					[299.978, 271.849],
					[274.736, 271.849],
					[224.251, 308.383],
					[325.221, 308.383],
					[299.979, 308.383],
					[274.736, 308.383],
					[224.251, 332.116],
					[325.221, 332.116],
					[299.979, 332.116],
					[274.736, 332.116],
					[142.435, 735.68],
					[224.189, 735.68],
					[196.938, 735.68],
					[169.686, 735.68],
					[434.598, 441.02],
					[390.729, 441.02],
					[169.686, 677.572],
					[291.391, 460.775],
					[315.144, 460.775],
					[315.144, 504.644],
					[291.391, 504.644],
					[368.795, 464.771],
					[434.598, 464.771],
					[412.664, 464.771],
					[390.729, 464.771],
					[229.658, 460.775],
					[546.059, 444.019],
					[523.618, 444.019],
					[501.177, 444.019],
					[593.553, 273.702],
					[596.374, 215.092],
					[671.019, 215.092],
					[646.137, 215.092],
					[621.256, 215.092],
					[593.553, 324.645],
					[593.553, 299.173],
					[631.203, 273.702],
					[631.203, 324.645],
					[631.203, 299.173],
					[654.957, 273.702],
					[654.957, 324.645],
					[654.957, 299.173],
					[229.658, 482.709],
					[546.059, 467.771],
					[523.618, 467.771],
					[501.177, 467.771],
					[229.658, 504.644],
					[251.44, 705.368],
					[224.189, 705.368],
					[196.937, 705.368],
					[229.658, 526.577],
					[253.411, 460.775],
					[253.411, 504.642],
					[253.411, 482.709],
					[253.411, 526.576],
					[251.439, 735.68],
					[169.686, 705.368],
					[291.391, 482.709],
					[315.144, 482.709],
					[315.144, 526.577],
					[291.391, 526.577],
					[412.664, 528.187],
					[390.729, 504.435],
					[412.664, 504.435],
					[368.795, 504.435],
					[434.598, 528.187],
					[251.441, 677.572],
					[390.729, 528.187],
					[368.795, 528.187],
					[224.251, 187.727],
					[325.221, 187.727],
					[299.979, 187.727],
					[274.736, 187.727],
					[249.494, 151.705],
					[249.494, 271.849],
					[224.251, 248.225],
					[325.221, 248.223],
					[299.978, 248.225],
					[274.736, 248.225],
					[249.494, 248.225],
					[249.493, 308.383],
					[249.493, 332.116],
					[249.493, 392.178],
					[224.251, 368.351],
					[325.221, 368.349],
					[299.979, 368.351],
					[274.736, 368.351],
					[249.493, 368.351],
					[249.493, 187.727],
					[224.251, 211.475],
					[325.221, 211.473],
					[299.978, 211.475],
					[274.736, 211.475],
					[249.494, 211.475],
					[224.189, 677.572],
					[142.434, 705.368],
					[434.598, 504.435],
					[196.938, 677.572],
					[368.795, 441.02],
					[412.664, 441.02],
					[224.251, 392.178],
					[325.221, 392.176],
					[299.979, 392.178],
					[274.736, 392.178],
					[410.388, 171.699]
				]
			};
		// ]]>
	</script>
	<polygon class="background" points="588.472,75.759 588.472,153.92 693.644,153.92 693.644,579.207 148.241,579.207 148.241,54.494 258.011,54.494 258.011,75.759"/>
	<g class="walls">
		<g class="innerWalls">
			<line x1="587.472" y1="403.068" x2="587.472" y2="579.207"/>
			<polyline points="149.241,267.713 204.712,267.713 204.712,459.241 149.241,459.241"/>
			<polyline points="204.712,54.494 204.712,238.402 149.241,238.402"/>
			<polyline points="358.333,75.759 358.333,130.931 254.011,130.931 254.011,75.759"/>
			<line x1="587.472" y1="520.437" x2="640.058" y2="520.437"/>
			<line x1="587.472" y1="460.839" x2="640.058" y2="460.839"/>
			<line x1="204.673" y1="413.264" x2="149.242" y2="413.264"/>
			<line x1="149.242" y1="368.437" x2="204.673" y2="368.437"/>
			<line x1="204.712" y1="317.437" x2="149.242" y2="317.437"/>
			<line x1="204.712" y1="162.518" x2="149.242" y2="162.518"/>
			<line x1="204.712" y1="110.368" x2="149.242" y2="110.368"/>
			<rect x="364.931" y="292.276" width="84.46" height="123.987"/>
			<line x1="566.683" y1="466.207" x2="501.177" y2="466.207"/>
			<line x1="455.221" y1="463.207" x2="368.795" y2="463.207"/>
			<line x1="455.221" y1="526.622" x2="368.795" y2="526.622"/>
			<line x1="313.579" y1="547.2" x2="313.579" y2="460.775"/>
			<line x1="251.847" y1="547.2" x2="251.847" y2="460.775"/>
			<line x1="345.844" y1="390.539" x2="224.251" y2="390.539"/>
			<line x1="345.844" y1="330.422" x2="224.251" y2="330.422"/>
			<line x1="345.844" y1="270.413" x2="224.251" y2="270.413"/>
			<line x1="345.844" y1="209.908" x2="224.251" y2="209.908"/>
			<line x1="345.844" y1="150.3" x2="224.251" y2="150.3"/>
			<line x1="307.172" y1="130.931" x2="307.172" y2="75.759"/>
			<line x1="640.058" y1="579.207" x2="640.058" y2="403.068"/>
			<rect x="587.472" y="348.873" width="104.172" height="54.195"/>
			<rect x="586.472" y="160.689" width="105.172" height="52.402"/>
			<polyline points="480.724,75.759 480.724,160.689 586.472,160.689 586.472,75.759"/>
			<line x1="653.393" y1="273.702" x2="653.393" y2="345.269"/>
			<line x1="591.988" y1="273.702" x2="591.988" y2="345.269"/>
			<line x1="569.5" y1="406.604" x2="491" y2="406.604"/>
			<line x1="569.5" y1="344.477" x2="491" y2="344.477"/>
			<line x1="569.5" y1="257.21" x2="491" y2="257.21"/>
			<polyline points="358.333,130.931 358.333,163.689 364.931,163.689 364.931,194.322 481.724,194.322"/>
		</g>
		<polyline points="254.011,60.793 254.011,54.494 149.241,54.494 149.241,248"/>
		<polyline points="407.609,75.759 254.011,75.759 254.011,73.288"/>
		<polyline points="586.472,60.438 586.472,54.494 666.199,54.494"/>
		<polyline points="433.747,75.759 586.472,75.759 586.472,72.25"/>
		<line x1="509.414" y1="579.207" x2="666.199" y2="579.207"/>
		<line x1="281.25" y1="579.207" x2="495.771" y2="579.207"/>
		<polyline points="149.241,261.644 149.241,579.207 266.954,579.207"/>
	</g>
	<g class="roomNames">
		<g class="room" endpoint:id="52594bf403a06a5062934fa7" endpoint:seatingCapacity="6">
			<text transform="matrix(1 0 0 1 334 101.25)" text-anchor="middle">
				<tspan x="0" y="0">Boot</tspan>
				<tspan x="0" y="14.4">Cut</tspan>
			</text>
			<rect class="roomArea" x="307.172" y="75.759" width="51.161" height="55.172" />
			<rect class="statusBadge" x="350.333" y="77.759" width="6" height="6" />
		</g>
		<g class="room" endpoint:id="4fb18e00e4b0378e4f2e5858" endpoint:seatingCapacity="16">
			<text x="533" y="124" text-anchor="middle">Boardroom</text>
			<rect class="roomArea" x="480.724" y="75.759" width="105.748" height="84.931"/>
			<rect class="statusBadge" x="578.472" y="77.759" width="6" height="6" />
		</g>
		<g class="room" endpoint:id="52594bdc03a06a5062934fa6" endpoint:seatingCapacity="6">
			<text transform="matrix(1 0 0 1 283 101.25)" text-anchor="middle">
				<tspan x="0" y="0">Button</tspan>
				<tspan x="0" y="14.4">Fly</tspan>
			</text>
			<rect class="roomArea" x="254.011" y="75.759" width="53.161" height="55.172" />
			<rect class="statusBadge" x="299.172" y="77.759" width="6" height="6" />
		</g>
		<g class="room" endpoint:id="52d496b9e4b0fc8d80784d0a" endpoint:seatingCapacity="8">
			<text transform="matrix(1 0 0 1 177.5 195)" text-anchor="middle">
				<tspan x="0" y="0">Bell</tspan>
				<tspan x="0" y="14.4">Bottom</tspan>
			</text>
			<rect class="roomArea" x="149.241" y="162.518" width="55.47" height="75.885" />
			<rect class="statusBadge" x="196.712" y="164.518" width="6" height="6" />
		</g>
		<g class="room">
			<text x="177.5" y="89" text-anchor="middle">Capri</text>
			<rect class="roomArea" x="149.241" y="54.494" width="55.47" height="55.874" />
			<rect class="statusBadge" x="196.712" y="56.494" width="6" height="6" />
		</g>
		<g class="room">
			<text transform="matrix(1 0 0 1 179 133)" text-anchor="middle">
				<tspan x="0" y="0">Millennium</tspan>
				<tspan x="0" y="14.4">Falcon</tspan>
			</text>
			<rect class="roomArea" x="149.241" y="110.368" width="55.47" height="52.149" />
			<rect class="statusBadge" x="196.712" y="112.368" width="6" height="6" />
		</g>
		<g class="room" endpoint:id="52594bc403a06a5062934fa5" endpoint:seatingCapacity="4">
			<text transform="matrix(1 0 0 1 177.5 290.25)" text-anchor="middle">
				<tspan x="0" y="0">Acid</tspan>
				<tspan x="0" y="14.4">Washed</tspan>
			</text>
			<rect class="roomArea" x="149.241" y="267.713" width="55.47" height="49.724" />
			<rect class="statusBadge" x="196.712" y="269.713" width="6" height="6" />
		</g>
		<g class="room" endpoint:id="507cda1ad213cb192dcb0d58" endpoint:seatingCapacity="4">
			<text transform="matrix(1 0 0 1 177.5 341.25)" text-anchor="middle">
				<tspan x="0" y="0">Stone</tspan>
				<tspan x="0" y="14.4">Washed</tspan>
			</text>
			<rect class="roomArea" x="149.241" y="317.437" width="55.47" height="51" />
			<rect class="statusBadge" x="196.712" y="319.437" width="6" height="6" />
		</g>
		<g class="room" endpoint:id="52594ba203a06a5062934fa4" endpoint:seatingCapacity="4">
			<text x="177.5" y="440" text-anchor="middle">Vintage</text>
			<rect x="149.241" y="413.264" class="roomArea" width="55.47" height="45.978" />
			<rect class="statusBadge" x="196.712" y="415.264" width="6" height="6" />
		</g>
		<g class="room" endpoint:id="53e31701e4b008d825c8af47" endpoint:seatingCapacity="4">
			<text transform="matrix(1 0 0 1 614 480)" text-anchor="middle">
				<tspan x="0" y="0">Mos</tspan>
				<tspan x="0" y="14.4">Eisley</tspan>
				<tspan x="0" y="28.8">Cantina</tspan>
			</text>
			<rect class="roomArea" x="587.472" y="460.839" width="52.586" height="59.598" />
			<rect class="statusBadge" x="632.058" y="462.839" width="6" height="6" />
		</g>
		<g class="room" endpoint:id="53e99b4de4b0214754b6ca40" endpoint:seatingCapacity="4">
			<text x="614" y="437" text-anchor="middle">Cargo</text>
			<rect class="roomArea" x="587.472" y="403.068" width="52.586" height="57.771" />
			<rect class="statusBadge" x="632.058" y="405.068" width="6" height="6" />
		</g>
						
		<text x="640" y="380" text-anchor="middle">War Room</text>
		<text x="423" y="140" text-anchor="middle">Lobby</text>
		<text x="418" y="248" text-anchor="middle">Break room</text>
		<text x="409.161" y="356" text-anchor="middle">Restrooms</text>
		<text x="638" y="191" text-anchor="middle">Servers</text>
		<text transform="matrix(1 0 0 1 614 545)" text-anchor="middle">
			<tspan x="0" y="0">Audio</tspan>
			<tspan x="0" y="14.4">lab</tspan>
		</text>
		<text transform="matrix(1 0 0 1 177.5 388)" text-anchor="middle">
			<tspan x="0" y="0">Video</tspan>
			<tspan x="0" y="14.4">lab</tspan>
		</text>
	</g>
	<g class="seats"></g>
	<g class="photos"></g>
	<polygon class="arrow right" points="665.188,107.865 643.479,86.155 643.479,96.193 624.587,96.193 624.587,119.538 643.479,119.538 643.479,129.575">
		<title>go south</title>
	</polygon>
	<polygon class="arrow upleft" points="361.821,26.511 361.82,57.214 368.918,50.115 382.276,63.475 398.784,46.967 385.425,33.607 392.522,26.51">
		<title>go northeast</title>
	</polygon>
</svg>
