<svg version="1.1" viewBox="146 52 549 530" class="mv">
	<script type="text/javascript">
		// <![CDATA[
			this.SEATS = this.SEATS || {};
			this.SEATS.mv = {
				iconSize: 22.32,
				seatPositions: [
					[235.598,161.071],
					[150.300, 56.688],
					[150.300, 83.688],
					[182.000, 56.688],
					[150.300,108.868],
					[150.300,134.870],
					[182.001,108.868],
					[320.749,161.071],
					[292.365,161.071],
					[263.981,161.071],
					[235.598,295.586],
					[320.749,295.585],
					[292.365,295.586],
					[263.981,295.586],
					[235.598,344.552],
					[320.749,344.552],
					[292.365,344.552],
					[263.981,344.552],
					[235.598,369.981],
					[320.749,369.981],
					[292.365,369.981],
					[263.981,369.981],
					[232.149,419.926],
					[321.324,419.924],
					[368.931,416.551],
					[396.379,416.551],
					[291.599,419.926],
					[261.874,419.926],
					[423.618,478.309],
					[369.142,478.309],
					[205.712,478.309],
					[287.427,478.309],
					[314.665,478.309],
					[260.188,478.309],
					[232.950,478.309],
					[341.903,503.762],
					[423.618,503.762],
					[396.379,503.762],
					[369.142,503.762],
					[463.759,455.119],
					[548.909,455.119],
					[520.525,455.118],
					[492.142,455.118],
					[668.831,210.790],
					[642.831,210.790],
					[618.032,210.790],
					[668.831,293.793],
					[668.831,321.461],
					[618.032,321.461],
					[642.831,321.461],
					[668.831,266.125],
					[668.831,238.457],
					[590.581,279.959],
					[590.581,307.627],
					[590.581,252.292],
					[590.581,224.624],
					[470.080,417.552],
					[548.909,417.552],
					[522.633,417.551],
					[496.355,417.551],
					[470.080,377.302],
					[548.909,377.302],
					[522.633,377.301],
					[496.355,377.301],
					[470.080,351.802],
					[548.909,351.802],
					[522.633,351.801],
					[496.355,351.801],
					[470.080,309.802],
					[548.909,309.802],
					[522.633,309.801],
					[496.355,309.801],
					[548.909,284.676],
					[518.403,284.675],
					[487.896,284.675],
					[548.909,244.426],
					[518.403,244.425],
					[487.896,244.425],
					[548.909,219.176],
					[518.403,219.175],
					[548.909,179.093],
					[514.908,179.092],
					[487.896,219.175],
					[463.759,480.619],
					[548.909,480.619],
					[520.525,480.618],
					[492.142,480.618],
					[463.759,504.452],
					[548.909,504.452],
					[520.525,504.451],
					[492.142,504.451],
					[463.759,529.286],
					[548.909,529.286],
					[520.525,529.285],
					[548.909,554.642],
					[520.525,554.641],
					[492.142,529.285],
					[205.712,503.762],
					[287.427,503.762],
					[314.665,503.762],
					[260.188,503.762],
					[232.950,503.762],
					[314.665,554.641],
					[396.380,554.641],
					[423.618,554.641],
					[369.142,554.641],
					[341.903,554.641],
					[205.712,554.641],
					[287.427,554.641],
					[232.950,554.641],
					[235.598,211.076],
					[320.749,211.076],
					[292.365,211.076],
					[263.981,211.076],
					[235.598,270.157],
					[256.886,270.157],
					[278.174,270.157],
					[299.461,270.157],
					[235.598,236.505],
					[256.886,236.505],
					[278.174,236.505],
					[320.749,236.505],
					[178.474,491.036],
					[396.379,478.309],
					[178.474,554.641],
					[151.236,554.641],
					[320.794,270.157],
					[299.461,236.505]
				]
			};
		// ]]>
	</script>
	<rect class="background" x="146" y="52" width="549" height="530" />
	<g id="walls">
		<g class="innerWalls">
			<line x1="588.472" y1="153.92" x2="588.472" y2="579.207"/>
			<polyline points="148.241,267.713 205.712,267.713 205.712,460.241 148.241,460.241   "/>
			<polyline points="205.712,54.494 205.712,238.402 148.241,238.402   "/>
			<path d="M148.241,54.494"/>
			<polyline points="364.333,75.759 364.333,130.931 258.011,130.931 258.011,75.759   "/>
			<path d="M588.472,75.759"/>
			<polyline points="482.724,75.759 482.724,163.689 588.472,163.689   "/>
			<line x1="588.472" y1="519.437" x2="693.644" y2="519.437"/>
			<line x1="588.472" y1="464.839" x2="693.644" y2="464.839"/>
			<line x1="588.472" y1="405.068" x2="693.644" y2="405.068"/>
			<line x1="588.472" y1="345.873" x2="693.644" y2="345.873"/>
			<line x1="588.472" y1="209.092" x2="693.644" y2="209.092"/>
			<line x1="205.712" y1="414.264" x2="148.241" y2="414.264"/>
			<line x1="148.241" y1="369.437" x2="205.712" y2="369.437"/>
			<line x1="205.712" y1="319.437" x2="148.241" y2="319.437"/>
			<line x1="205.712" y1="158.518" x2="148.241" y2="158.518"/>
			<line x1="205.712" y1="107.368" x2="148.241" y2="107.368"/>
			<line x1="482.724" y1="199.322" x2="372.379" y2="199.322"/>
			<line x1="364.333" y1="130.931" x2="364.333" y2="163.689"/>
			<rect x="368.931" y="291.276" width="80.46" height="122.987"/>
			<line x1="571.229" y1="528.058" x2="463.759" y2="528.058"/>
			<line x1="571.229" y1="479.207" x2="463.759" y2="479.207"/>
			<line x1="445.938" y1="502.195" x2="205.712" y2="502.195"/>
			<line x1="343.644" y1="418.287" x2="232.149" y2="418.287"/>
			<line x1="343.068" y1="368.287" x2="235.598" y2="368.287"/>
			<line x1="343.068" y1="294.15" x2="235.598" y2="294.15"/>
			<line x1="343.068" y1="234.954" x2="235.598" y2="234.954"/>
			<line x1="343.068" y1="159.667" x2="235.598" y2="159.667"/>
			<line x1="470.08" y1="441.275" x2="571.229" y2="441.275"/>
			<line x1="470.08" y1="375.759" x2="571.229" y2="375.759"/>
			<line x1="470.08" y1="308.518" x2="571.229" y2="308.518"/>
			<line x1="571.229" y1="243" x2="487.896" y2="243"/>
			<line x1="571.229" y1="177.482" x2="514.908" y2="177.482"/>
			<line x1="311.172" y1="130.931" x2="311.172" y2="75.759"/>
		</g>
		<polyline points="258.011,58.793 258.011,54.494 148.241,54.494 148.241,245  "/>
		<polyline points="412.609,75.759 258.011,75.759 258.011,70.288  "/>
		<polyline points="503.414,579.207 693.644,579.207 693.644,153.92 588.472,153.92 588.472,75.759 436.747,75.759  "/>
		<line x1="285.25" y1="579.207" x2="490.771" y2="579.207"/>
		<polyline points="148.241,260.644 148.241,579.207 272.954,579.207  "/>
	</g>
	<g id="roomNames">
		<text x="535" y="125" text-anchor="middle">Boardroom</text>
		<text x="423" y="140" text-anchor="middle">Lobby</text>
		<text x="418" y="248" text-anchor="middle">Break room</text>
		<text x="409.161" y="356" text-anchor="middle">Restrooms</text>
		<text x="640" y="186.5" text-anchor="middle">Servers</text>
		<text x="640" y="553" text-anchor="middle">Storage</text>
		<text x="640" y="497" text-anchor="middle">Ping-pong</text>
		<text x="640" y="380" text-anchor="middle">Carpenter</text>
		<text x="640" y="439" text-anchor="middle">Lagoon Washed</text>
		<text transform="matrix(1 0 0 1 340 101.25)" text-anchor="middle">
			<tspan x="0" y="0">Boot</tspan>
			<tspan x="0" y="14.4">Cut</tspan>
		</text>
		<text transform="matrix(1 0 0 1 288 101.25)" text-anchor="middle">
			<tspan x="0" y="0">Button</tspan>
			<tspan x="0" y="14.4">Fly</tspan>
		</text>
		<text transform="matrix(1 0 0 1 178.5 195)" text-anchor="middle">
			<tspan x="0" y="0">Bell</tspan>
			<tspan x="0" y="14.4">Bottom</tspan>
		</text>
		<text transform="matrix(1 0 0 1 178.5 290.25)" text-anchor="middle">
			<tspan x="0" y="0">Acid</tspan>
			<tspan x="0" y="14.4">Washed</tspan>
		</text>
		<text transform="matrix(1 0 0 1 178.5 341.25)" text-anchor="middle">
			<tspan x="0" y="0">Stone</tspan>
			<tspan x="0" y="14.4">Washed</tspan>
		</text>
		<text x="178.5" y="396" text-anchor="middle">Audio</text>
		<text x="178.5" y="442" text-anchor="middle">Vintage</text>
	</g>
	<g id="seats"></g>
	<g id="photos"></g>
</svg>