<svg version="1.1" viewBox="0 0 450 554.069" class="mv2">
	<script type="text/javascript">
		// <![CDATA[
			this.SEATS = this.SEATS || {};
			this.SEATS.mv2 = {
				iconSize: 22.32,
				seatPositions: [
					[547.180, 278.210],
					[491.000, 278.210],
					[519.090, 278.210],
					[547.18, 364.477],
					[491.000, 364.477],
					[519.090, 364.477],
					[547.180, 399.286],
					[491.000, 399.286],
					[519.090, 399.286],
					[547.180, 425.604],
					[491.000, 425.604],
					[519.090, 425.604],
					[547.180, 338.158],
					[491.000, 338.158],
					[519.090, 338.158],
					[547.180, 251.891],
					[491.000, 251.891],
					[519.090, 251.891],
					[224.251, 151.705],
					[323.524, 151.705],
					[298.706, 151.705],
					[273.888, 151.705],
					[224.251, 271.849],
					[323.524, 271.848],
					[298.706, 271.849],
					[273.888, 271.849],
					[224.251, 306.687],
					[323.524, 306.687],
					[298.706, 306.687],
					[273.888, 306.687],
					[224.251, 332.116],
					[323.524, 332.116],
					[298.706, 332.116],
					[273.888, 332.116],
					[229.301, 426.606],
					[318.475, 426.604],
					[288.750, 426.606],
					[259.025, 426.606],
					[423.618, 478.309],
					[369.142, 478.309],
					[205.712, 478.309],
					[287.427, 478.309],
					[314.665, 478.309],
					[260.188, 478.309],
					[232.950, 478.309],
					[341.903, 503.762],
					[423.618, 503.762],
					[396.379, 503.762],
					[369.142, 503.762],
					[463.759, 451.888],
					[548.909, 451.888],
					[520.525, 451.887],
					[492.142, 451.887],
					[593.774, 273.702],
					[596.374, 215.092],
					[669.381, 215.092],
					[645.045, 215.092],
					[620.710, 215.092],
					[593.774, 322.947],
					[593.774, 298.324],
					[629.071, 273.702],
					[629.071, 322.947],
					[629.071, 298.324],
					[655.393, 273.702],
					[655.393, 322.947],
					[655.393, 298.324],
					[463.759, 478.208],
					[548.909, 478.208],
					[520.525, 478.207],
					[492.142, 478.207],
					[463.759, 502.629],
					[548.909, 502.629],
					[520.525, 502.628],
					[492.142, 502.628],
					[463.759, 529.059],
					[548.909, 529.059],
					[520.525, 529.058],
					[548.909, 554.642],
					[520.525, 554.641],
					[492.142, 529.058],
					[205.712, 503.762],
					[287.427, 503.762],
					[314.665, 503.762],
					[260.188, 503.762],
					[232.950, 503.762],
					[314.665, 553.892],
					[396.380, 553.892],
					[423.618, 553.892],
					[369.142, 553.892],
					[341.903, 553.892],
					[205.712, 553.892],
					[287.427, 553.892],
					[232.950, 553.892],
					[224.251, 186.030],
					[323.524, 186.030],
					[298.706, 186.030],
					[273.888, 186.030],
					[249.069, 151.705],
					[249.069, 271.849],
					[224.251, 246.528],
					[323.524, 246.527],
					[298.706, 246.528],
					[273.888, 246.528],
					[249.069, 246.528],
					[249.069, 306.687],
					[249.069, 332.116],
					[249.069, 392.178],
					[224.251, 366.654],
					[323.524, 366.652],
					[298.706, 366.654],
					[273.888, 366.654],
					[249.069, 366.654],
					[249.069, 186.030],
					[224.251, 211.475],
					[323.524, 211.473],
					[298.706, 211.475],
					[273.888, 211.475],
					[249.069, 211.475],
					[178.475, 553.892],
					[178.475, 491.036],
					[450.856, 553.892],
					[151.237, 553.892],
					[341.903, 478.309],
					[396.379, 478.309],
					[224.251, 392.178],
					[323.524, 392.176],
					[298.706, 392.178],
					[273.888, 392.178]
				]
			};
		// ]]>
	</script>
	<polygon class="background" points="19.262,16.31 19.262,122.675 124.434,122.675 124.434,363.955 71.848,363.955 71.848,541.022 436.347,541.022 436.347,16.31"/>
	<g class="walls">
		<g class="innerWalls">
			<rect x="188.091" y="151.746" width="118.604" height="80.483"/>
			<polyline points="436.347,496.513 407.276,496.513 407.276,441.022 436.347,441.022"/>
			<rect x="124.434" y="255.815" width="114.82" height="136.628"/>
			<polyline points="330.813,16.31 330.813,90.117 436.347,90.117"/>
			<polyline points="124.434,16.31 124.434,76.745 330.813,76.745"/>
			<polyline points="124.434,56.978 65.697,56.978 65.697,16.31"/>
			<line x1="230.165" y1="151.746" x2="230.165" y2="232.229"/>
			<line x1="230.165" y1="178.69" x2="188.091" y2="178.69"/>
			<line x1="230.165" y1="204.94" x2="188.091" y2="204.94"/>
			<polyline points="19.262,76.745 65.697,76.745 65.697,122.675"/>
			<line x1="175.582" y1="76.745" x2="175.582" y2="16.31"/>
			<line x1="226.79" y1="76.745" x2="226.79" y2="16.31"/>
			<line x1="279.457" y1="76.745" x2="279.457" y2="16.31"/>
			<line x1="124.434" y1="482.815" x2="71.848" y2="482.815"/>
			<line x1="124.434" y1="422.815" x2="71.848" y2="422.815"/>
			<line x1="124.434" y1="392.443" x2="124.434" y2="541.022"/>
			<line x1="44.59" y1="363.955" x2="124.434" y2="363.955"/>
			<line x1="71.848" y1="541.022" x2="71.848" y2="363.955"/>
			<line x1="273.698" y1="344.6" x2="344.656" y2="344.6"/>
			<line x1="342.064" y1="411.267" x2="413.022" y2="411.267"/>
			<line x1="288.437" y1="474.81" x2="383.714" y2="474.81"/>
			<line x1="153.603" y1="478.513" x2="248.88" y2="478.513"/>
			<line x1="367.917" y1="140.154" x2="367.917" y2="235.435"/>
			<line x1="291.197" y1="98.355" x2="291.197" y2="144.996"/>
			<line x1="229" y1="98.355" x2="229" y2="144.996"/>
			<polyline points="19.262,36.318 19.262,122.675 124.434,122.675 124.434,175.001 44.59,175.001"/>
		</g>
		<line x1="11.785" y1="541.022" x2="247.458" y2="541.022"/>
		<polyline points="436.347,385.49 436.347,541.022 260.123,541.022"/>
		<polyline points="19.262,24.708 19.262,16.31 436.347,16.31 436.347,372.757"/>
		<line x1="11.785" y1="38.788" x2="19.262" y2="38.788"/>
	</g>
	<g class="roomNames">
		<text x="42" y="102" text-anchor="middle">Baggy</text>
		<text transform="matrix(1 0 0 1 96 33)" text-anchor="middle">
			<tspan x="0" y="0">Cloud</tspan>
			<tspan x="0" y="14.4">City</tspan>
		</text>
		<text x="150" y="49" text-anchor="middle" class="small">Embroider</text>
		<text x="201" y="50" text-anchor="middle">Flare</text>
		<text x="253" y="50" text-anchor="middle">Golf</text>
		<text x="305" y="50" text-anchor="middle">Hipster</text>
		<text transform="matrix(1 0 0 1 383 50)" text-anchor="middle">
			<tspan x="0" y="0">Imperial</tspan>
			<tspan x="0" y="14.4">Senate</tspan>
		</text>
		<text x="268" y="196" text-anchor="middle">Restrooms</text>
		<text x="209" y="168" text-anchor="middle" class="small">Phone</text>
		<text x="209" y="195" text-anchor="middle" class="small">Phone</text>
		<text transform="matrix(1 0 0 1 211 216)" text-anchor="middle" class="small">
			<tspan x="0" y="0">Mothers'</tspan>
			<tspan x="0" y="10">Room</tspan>
		</text>
		<text x="182" y="325" text-anchor="middle">Game room</text>
		<text x="98" y="396" text-anchor="middle">Leisure</text>
		<text transform="matrix(1 0 0 1 100 451)" text-anchor="middle">
			<tspan x="0" y="0">Relaxed</tspan>
			<tspan x="0" y="14.4">Fit</tspan>
		</text>
		<text x="98" y="514" text-anchor="middle">Slim Fit</text>
	</g>
	<g class="seats"></g>
	<g class="photos"></g>
	<polygon class="arrow left" points="85.647,256.25 66.756,256.25 66.756,246.211 45.046,267.922 66.755,289.632 66.755,279.595 85.647,279.595">
		<title>go north</title>
	</polygon>
</svg>