<svg version="1.1" viewBox="0 0 450 554.069" class="mv2">
	<script type="text/javascript">
		// <![CDATA[
			this.SEATS = this.SEATS || {};
			this.SEATS.mv2 = {
				iconSize: 22.32,
				seatPositions: [
					[204.681, 122.675],
					[231.000, 122.675],
					[204.681,  98.355],
					[231.000,  98.355],
					[266.878, 122.675],
					[293.197, 122.675],
					[266.878, 98.355],
					[293.197, 98.355],
					[273.698, 282.481],
					[298.018, 282.481],
					[322.337, 282.481],
					[362.384, 282.481],
					[386.703, 282.481],
					[411.022, 282.481],
					[273.698, 320.279],
					[298.018, 320.279],
					[322.337, 320.279],
					[273.698, 346.600],
					[298.018, 346.600],
					[322.337, 346.600],
					[342.064, 386.946],
					[366.384, 386.946],
					[390.703, 386.946],
					[342.064, 413.267],
					[366.384, 413.267],
					[390.703, 413.267],
					[312.756, 450.489],
					[337.075, 450.489],
					[361.395, 450.489],
					[312.756, 476.810],
					[288.437, 450.489],
					[288.437, 476.810],
					[337.075, 476.810],
					[361.395, 476.810],
					[338.064, 516.021],
					[313.745, 516.021],
					[362.384, 516.021],
					[386.703, 516.021],
					[411.022, 516.021],
					[177.922, 454.192],
					[202.241, 454.192],
					[226.561, 454.192],
					[177.922, 480.513],
					[153.603, 454.192],
					[153.603, 480.513],
					[202.241, 480.513],
					[226.561, 480.513],
					[174.689, 516.021],
					[150.370, 516.021],
					[199.009, 516.021],
					[223.328, 516.021],
					[362.384, 320.279],
					[386.703, 320.279],
					[411.022, 320.279],
					[343.598, 164.474],
					[369.917, 164.474],
					[343.598, 140.154],
					[369.917, 140.154],
					[343.598, 213.115],
					[369.917, 213.115],
					[343.598, 188.794],
					[369.917, 188.794],
					[411.022, 164.474],
					[411.022, 140.154],
					[411.022, 213.115],
					[411.022, 237.435],
					[411.022, 188.794],
					[126.434, 149.659],
					[126.434, 125.339],
					[293.426, 386.946],
					[317.745, 386.946],
					[293.426, 413.267],
					[317.745, 413.267],
					[362.384, 346.600],
					[386.703, 346.600],
					[411.022, 346.600]
				]
			};
		// ]]>
	</script>
	<polygon class="background" points="19.262,16.31 19.262,122.675 124.434,122.675 124.434,363.955 71.848,363.955 71.848,541.022 436.347,541.022 436.347,16.31"/>
	<g class="walls">
		<g class="innerWalls">
			<rect x="188.091" y="151.746" width="118.604" height="80.483"/>
			<polyline points="436.347,496.513 407.276,496.513 407.276,441.022 436.347,441.022"/>
			<rect x="124.434" y="255.815" width="114.82" height="136.628"/>
			<polyline points="330.813,16.31 330.813,90.117 436.347,90.117"/>
			<polyline points="124.434,16.31 124.434,76.745 330.813,76.745"/>
			<polyline points="124.434,56.978 65.697,56.978 65.697,16.31"/>
			<line x1="230.165" y1="151.746" x2="230.165" y2="232.229"/>
			<line x1="230.165" y1="178.69" x2="188.091" y2="178.69"/>
			<line x1="230.165" y1="204.94" x2="188.091" y2="204.94"/>
			<polyline points="19.262,76.745 65.697,76.745 65.697,122.675"/>
			<line x1="175.582" y1="76.745" x2="175.582" y2="16.31"/>
			<line x1="226.79" y1="76.745" x2="226.79" y2="16.31"/>
			<line x1="279.457" y1="76.745" x2="279.457" y2="16.31"/>
			<line x1="124.434" y1="482.815" x2="71.848" y2="482.815"/>
			<line x1="124.434" y1="422.815" x2="71.848" y2="422.815"/>
			<line x1="124.434" y1="392.443" x2="124.434" y2="541.022"/>
			<line x1="44.59" y1="363.955" x2="124.434" y2="363.955"/>
			<line x1="71.848" y1="541.022" x2="71.848" y2="363.955"/>
			<line x1="273.698" y1="344.6" x2="344.656" y2="344.6"/>
			<line x1="293.426" y1="411.267" x2="413.022" y2="411.267"/>
			<line x1="288.437" y1="474.81" x2="383.714" y2="474.81"/>
			<line x1="153.603" y1="478.513" x2="248.88" y2="478.513"/>
			<line x1="367.917" y1="140.154" x2="367.917" y2="235.435"/>
			<line x1="291.197" y1="98.355" x2="291.197" y2="144.996"/>
			<line x1="229" y1="98.355" x2="229" y2="144.996"/>
			<polyline points="19.262,36.318 19.262,122.675 124.434,122.675 124.434,175.001 44.59,175.001"/>
			<line x1="362.384" y1="344.6" x2="433.342" y2="344.6"/>
		</g>
		<line x1="11.785" y1="541.022" x2="247.458" y2="541.022"/>
		<polyline points="436.347,385.49 436.347,541.022 260.123,541.022"/>
		<polyline points="19.262,24.708 19.262,16.31 436.347,16.31 436.347,372.757"/>
		<line x1="11.785" y1="38.788" x2="19.262" y2="38.788"/>
	</g>
	<g class="roomNames">
		<g class="room" endpoint:id="53e31fd3e4b008d825c8af4d" endpoint:seatingCapacity="4">
			<text x="42" y="102" text-anchor="middle">Baggy</text>
			<rect class="roomArea" x="19.262" y="76.745" width="46.436" height="45.93" />
			<rect class="statusBadge" x="57.697" y="78.756" width="6" height="6" />
		</g>
		<text transform="matrix(1 0 0 1 96 33)" text-anchor="middle" endpoint:seatingCapacity="4">
			<tspan x="0" y="0">Cloud</tspan>
			<tspan x="0" y="14.4">City</tspan>
		</text>
		<g class="room" endpoint:id="53e316c1e4b008d825c8af34" endpoint:seatingCapacity="4">
			<text x="150" y="49" text-anchor="middle" class="small">Embroider</text>
			<rect class="roomArea" x="124.434" y="16.31" width="51.148" height="60.436" />
			<rect class="statusBadge" x="167.582" y="18.31" width="6" height="6" />
		</g>
		<g class="room" endpoint:id="53e316d3e4b008d825c8af35" endpoint:seatingCapacity="4">
			<text x="201" y="50" text-anchor="middle">Flare</text>
			<rect class="roomArea" x="175.582" y="16.31" width="51.208" height="60.436" />
			<rect class="statusBadge" x="218.79" y="18.31" width="6" height="6" />
		</g>
		<g class="room" endpoint:id="53e316d8e4b008d825c8af36" endpoint:seatingCapacity="4">
			<text x="253" y="50" text-anchor="middle">Golf</text>
			<rect class="roomArea" x="226.79" y="16.31" width="52.667" height="60.436" />
			<rect class="statusBadge" x="271.457" y="18.31" width="6" height="6" />
		</g>
		<g class="room" endpoint:id="53e316e0e4b008d825c8af39" endpoint:seatingCapacity="4">
			<text x="305" y="50" text-anchor="middle">Hipster</text>
			<rect class="roomArea" x="279.457" y="16.31" width="51.356" height="60.436" />
			<rect class="statusBadge" x="322.813" y="18.31" width="6" height="6" />
		</g>
		<g class="room" endpoint:id="53e316e6e4b008d825c8af3c" endpoint:seatingCapacity="16">
			<text transform="matrix(1 0 0 1 383 50)" text-anchor="middle">
				<tspan x="0" y="0">Imperial</tspan>
				<tspan x="0" y="14.4">Senate</tspan>
			</text>
			<rect class="roomArea" x="330.813" y="16.31" width="105.533" height="73.808" />
			<rect class="statusBadge" x="428.347" y="18.31" width="6" height="6" />
		</g>
		<text x="268" y="196" text-anchor="middle">Restrooms</text>
		<text x="209" y="168" text-anchor="middle" class="small">Phone</text>
		<text x="209" y="195" text-anchor="middle" class="small">Phone</text>
		<text transform="matrix(1 0 0 1 211 216)" text-anchor="middle" class="small">
			<tspan x="0" y="0">Mothers'</tspan>
			<tspan x="0" y="10">Room</tspan>
		</text>
		<text x="182" y="325" text-anchor="middle">Game room</text>
		<g class="room" endpoint:id="53e316ede4b008d825c8af42" endpoint:seatingCapacity="4">
			<text x="98" y="396" text-anchor="middle">Leisure</text>
			<rect class="roomArea" x="71.848" y="363.955" width="52.586" height="58.86" />
			<rect class="statusBadge" x="116.434" y="365.955" width="6" height="6" />
		</g>
		<g class="room" endpoint:id="53e316f4e4b008d825c8af45" endpoint:seatingCapacity="4">
			<text transform="matrix(1 0 0 1 100 451)" text-anchor="middle">
				<tspan x="0" y="0">Relaxed</tspan>
				<tspan x="0" y="14.4">Fit</tspan>
			</text>
			<rect class="roomArea" x="71.848" y="422.815" width="52.586" height="60" />
			<rect class="statusBadge" x="116.434" y="424.815" width="6" height="6" />
		</g>
		<g class="room" endpoint:id="53e316fae4b008d825c8af46" endpoint:seatingCapacity="4">
			<text x="98" y="514" text-anchor="middle">Slim Fit</text>
			<rect class="roomArea" x="71.848" y="482.815" width="52.586" height="58.207" />
			<rect class="statusBadge" x="116.434" y="484.815" width="6" height="6" />
		</g>
	</g>
	<g class="seats"></g>
	<g class="photos"></g>
	<polygon class="arrow left" points="85.647,256.25 66.756,256.25 66.756,246.211 45.046,267.922 66.755,289.632 66.755,279.595 85.647,279.595">
		<title>go north</title>
	</polygon>
</svg>