<svg version="1.1" viewBox="0 0 409.5 565.173" class="mv3">
	<script type="text/javascript">
		// <![CDATA[
			this.SEATS = this.SEATS || {};
			this.SEATS.mv3 = {
				iconSize: 17.779,
				seatPositions: [
					[133.441, 445.284],
					[191.108, 445.284],
					[171.886, 445.284],
					[152.664, 445.284],
					[133.441, 466.991],
					[191.108, 466.991],
					[171.886, 466.991],
					[152.664, 466.991],
					[227.108, 445.284],
					[284.775, 445.284],
					[265.553, 445.284],
					[246.331, 445.284],
					[227.108, 466.991],
					[284.775, 466.991],
					[265.553, 466.991],
					[246.331, 466.991],
					[227.108, 501.319],
					[284.775, 501.319],
					[265.553, 501.319],
					[246.331, 501.319],
					[227.108, 523.026],
					[284.775, 523.026],
					[265.553, 523.026],
					[246.331, 523.026],
					[133.441, 501.319],
					[83.168, 500.589],
					[83.168, 534.417],
					[56.642, 500.589],
					[56.642, 534.417],
					[191.108, 501.319],
					[171.886, 501.319],
					[152.664, 501.319],
					[133.441, 523.026],
					[191.108, 523.026],
					[171.886, 523.026],
					[152.664, 523.026],
					[210.388, 145.283],
					[268.055, 145.283],
					[248.833, 145.283],
					[229.611, 145.283],
					[210.388, 166.99],
					[268.055, 166.99],
					[248.833, 166.99],
					[229.611, 166.99],
					[104.607, 145.283],
					[162.274, 145.283],
					[143.053, 145.283],
					[123.83, 145.283],
					[104.607, 166.99],
					[162.274, 166.99],
					[143.053, 166.99],
					[123.83, 166.99],
					[210.388, 89.068],
					[268.055, 89.068],
					[248.833, 89.068],
					[229.611, 89.068],
					[210.388, 110.775],
					[268.055, 110.775],
					[248.833, 110.775],
					[229.611, 110.775],
					[104.607, 89.068],
					[162.274, 89.068],
					[143.053, 89.068],
					[123.83, 89.068],
					[104.607, 110.775],
					[162.274, 110.775],
					[143.053, 110.775],
					[123.83, 110.775],
					[210.388, 33.235],
					[268.055, 33.235],
					[248.833, 33.235],
					[229.611, 33.235],
					[210.388, 54.942],
					[268.055, 54.942],
					[248.833, 54.942],
					[229.611, 54.942],
					[104.607, 33.235],
					[162.274, 33.235],
					[143.053, 33.235],
					[123.83, 33.235],
					[104.607, 54.942],
					[162.274, 54.942],
					[143.053, 54.942],
					[123.83, 54.942]
				]
			};
		// ]]>
	</script>
	<polygon class="background" points="355.887,374.871 355.887,283.396 374.805,283.395 374.805,12.527 10.737,12.527 10.737,555.111 374.805,555.111 374.805,374.871" />
	<g class="walls">
		<g class="innerWalls">
			<polyline points="355.887,374.871 325.221,374.871 325.221,555.111"/>
			<polyline points="10.737,497.936 100.948,497.936 100.948,396.63 10.737,396.63"/>
			<line x1="133.441" y1="464.991" x2="208.887" y2="464.991"/>
			<line x1="227.108" y1="464.991" x2="302.554" y2="464.991"/>
			<line x1="210.388" y1="164.99" x2="285.834" y2="164.99"/>
			<line x1="104.607" y1="164.99" x2="180.054" y2="164.99"/>
			<line x1="210.388" y1="108.775" x2="285.834" y2="108.775"/>
			<line x1="104.607" y1="108.775" x2="180.054" y2="108.775"/>
			<line x1="210.388" y1="52.942" x2="285.834" y2="52.942"/>
			<line x1="104.607" y1="52.942" x2="180.054" y2="52.942"/>
			<line x1="133.441" y1="521.062" x2="208.887" y2="521.062"/>
			<line x1="227.108" y1="521.062" x2="302.554" y2="521.062"/>
			<line x1="325.221" y1="416.395" x2="374.805" y2="416.395"/>
			<line x1="325.221" y1="462.728" x2="374.805" y2="462.728"/>
			<line x1="325.221" y1="508.728" x2="374.805" y2="508.728"/>
			<polyline points="146.711,329.344 190.938,329.344 190.938,374.871"/>
			<line x1="10.737" y1="329.344" x2="48.35" y2="329.344"/>
			<polyline points="10.737,283.819 48.35,283.819 48.35,374.871 10.737,374.871"/>
			<polyline points="325.221,12.527 325.221,283.396 355.887,283.396"/>
			<rect x="10.737" y="122.239" width="56.053" height="71.429"/>
			<line x1="325.221" y1="194.576" x2="374.805" y2="194.576"/>
			<line x1="325.221" y1="154.601" x2="374.805" y2="154.601"/>
			<line x1="325.221" y1="103.169" x2="374.805" y2="103.169"/>
			<line x1="325.221" y1="49.446" x2="374.805" y2="49.446"/>
			<polygon points="146.711,329.344 146.711,283.819 287.09,283.819 287.09,374.871 146.711,374.871"/>
		</g>
		<polyline points="355.887,365.195 355.887,374.871 374.805,374.871 374.805,555.111 10.737,555.111 10.737,395.533"/>
		<line x1="355.887" y1="329.344" x2="355.887" y2="353.689"/>
		<line x1="355.887" y1="311.375" x2="355.887" y2="329.344"/>
		<polyline points="10.737,108.645 10.737,12.527 374.805,12.527 374.805,283.395 355.887,283.395 355.887,300.13"/>
		<line x1="10.737" y1="206.395" x2="10.737" y2="118.895"/>
		<line x1="10.737" y1="262.645" x2="10.737" y2="216.895"/>
		<line x1="10.737" y1="385.379" x2="10.737" y2="273.645"/>
	</g>
	<g class="roomNames">
		<g class="room" endpoint:id="555bc777e4b034a670ea0f2b">
			<text x="29.543" y="352" text-anchor="middle">Shredder</text>
			<rect class="roomArea" x="10.737" y="329.344" width="37.613" height="45.526" />
			<rect class="statusBadge" x="40.35" y="331.344" width="6" height="6" />
		</g>
		<g class="room" endpoint:id="555bc1bfe4b06961ca6f34b1">
			<text x="350.013" y="395.6" text-anchor="middle">Leonardo</text>
			<rect class="roomArea" x="325.221" y="374.871" width="49.584" height="41.524" />
			<rect class="statusBadge" x="366.805" y="376.871" width="6" height="6" />
		</g>
		<g class="room" endpoint:id="555bc237e4b034a670ea0893">
			<text x="350.013" y="439.5" text-anchor="middle">Donatello</text>
			<rect class="roomArea" x="325.221" y="416.395" width="49.584" height="46.333" />
			<rect class="statusBadge" x="366.805" y="418.395" width="6" height="6" />
		</g>
		<g class="room" endpoint:id="555bc25ce4b0b05d8e204427">
			<text x="350.013" y="485.7" text-anchor="middle">Raphael</text>
			<rect class="roomArea" x="325.221" y="462.728" width="49.584" height="46" />
			<rect class="statusBadge" x="366.805" y="464.728" width="6" height="6" />
		</g>
		<g class="room" endpoint:id="555bc293e4b0b05d8e20444c">
			<text x="350.013" y="531.9" text-anchor="middle">Michelangelo</text>
			<rect class="roomArea" x="325.221" y="508.728" width="49.584" height="46.383" />
			<rect class="statusBadge" x="366.805" y="510.728" width="6" height="6" />
		</g>
		<g class="room" endpoint:id="55c1337fe4b0225e45e7f306">
			<text x="350.013" y="239" text-anchor="middle">Top Gun</text>
			<rect class="roomArea" x="325.088" y="194.576" width="49.717" height="88.819"/>
			<rect class="statusBadge" x="366.805" y="196.576" width="6" height="6" />
		</g>
		<g class="room" endpoint:id="55c13360e4b0225e45e7f25d">
			<text x="350.013" y="175" text-anchor="middle">Maverick</text>
			<rect class="roomArea" x="325.221" y="154.601" width="49.584" height="39.975"/>
			<rect class="statusBadge" x="366.805" y="156.601" width="6" height="6" />
		</g>
		<g class="room" endpoint:id="55c13316e4b0225e45e7f1d0">
			<text x="350.013" y="129" text-anchor="middle">Goose</text>
			<rect class="roomArea" x="325.221" y="103.169" width="49.584" height="51.432"/>
			<rect class="statusBadge" x="366.805" y="105.169" width="6" height="6" />
		</g>
		<g class="room" endpoint:id="55c13344e4b009fd41c7f7a1">
			<text x="350.013" y="76" text-anchor="middle">Iceman</text>
			<rect class="roomArea" x="325.221" y="49.446" width="49.584" height="53.724"/>
			<rect class="statusBadge" x="366.805" y="51.446" width="6" height="6" />
		</g>
		<g class="room" endpoint:id="564d3002e4b0bbd9221bcf57">
			<text x="350.013" y="31" text-anchor="middle">Viper</text>
			<rect class="roomArea" x="325.221" y="12.527" width="49.584" height="36.919"/>
			<rect class="statusBadge" x="366.805" y="14.527" width="6" height="6" />
		</g>
						
		<text x="55.842" y="447.283" text-anchor="middle">Servers</text>
		<text x="216.273" y="306.666" text-anchor="middle">Restrooms</text>
		<text x="97.531" y="329.345" text-anchor="middle">Break room</text>
		<text x="169" y="352" text-anchor="middle">PS4</text>
		<text x="321.489" y="329.134" text-anchor="middle">Lobby</text>
	</g>
	<g class="seats"></g>
	<g class="photos"></g>
	<polygon class="arrow downright" points="400.267,343.546 400.268,320.616 394.967,325.918 384.991,315.942 372.665,328.269 382.64,338.247 377.339,343.546">
		<title>go southwest</title>
	</polygon>
</svg>
