<svg version="1.1" viewBox="0 0 802 612" class="nz">
	<script type="text/javascript">
		// <![CDATA[
			this.SEATS = this.SEATS || {};
			this.SEATS.nz = {
				iconSize: 39.518,
				seatPositions: [
					[457.613, 65.391],
					[374.317, 47.844],
					[576.087, 68.473],
					[667.531, 128.896],
					[597.133, 179.418],
					[432.018, 393.038],
					[528.668, 337.079],
					[577.374, 337.079],
					[553.021, 383.104],
					[664.45, 347.012],
					[713.156, 347.012],
					[688.803, 393.038],
					[693.397, 500.81],
					[647.772, 525.573],
					[647.772, 476.046],
					[533.646, 470.614],
					[533.646, 523.454],
					[432.018, 523.454],
					[432.018, 479.982],
					[432.018, 436.51],
					[657.826, 210.491]
				]
			};
		// ]]>
	</script>
	<g class="walls">
		<g class="innerWalls">
			<polyline points="370.298,42.112 370.298,130.382 137.184,130.382 112.993,88.232"/>
			<polyline points="33.416,425.197 364.624,425.197 364.624,607.418"/>
			<line x1="197.41" y1="425.197" x2="197.41" y2="607.418"/>
			<path d="M303.558,222.146c15.148,14.05,24.628,34.126,24.628,56.416c0,42.486-34.442,76.928-76.928,76.928
				s-76.928-34.442-76.928-76.928c0-23.323,10.379-44.221,26.77-58.329"/>
		</g>
		<polyline class="st1" points="30.534,134.994 20.771,140.517 33.416,152.19 33.416,607.418 795.211,607.418 795.211,291.288 712.368,291.288 712.368,127.224 674.351,89.208 667.531,89.208"/>
		<polyline class="st1" points="635.388,89.208 628.229,89.208 628.229,42.112 370.298,42.112 256.005,7.418 57.338,119.827"/>
	</g>
	<g class="roomNames">
		<text x="115" y="522" text-anchor="middle">Rua</text>
		<text x="281" y="522" text-anchor="middle">Tahi</text>
		<text x="86" y="59" text-anchor="middle">Kitchen</text>
		<text x="252" y="100" text-anchor="middle">Servers</text>
	</g>
	<g class="seats"></g>
	<g class="photos"></g>
</svg>
