<svg version="1.1" viewBox="0 0 540 243.261" class="oc">
	<script type="text/javascript">
		// <![CDATA[
			this.SEATS = this.SEATS || {};
			this.SEATS.oc = {
				iconSize: 16.147,
				seatPositions: [
					[18.812, 141.842],
					[54.09, 141.842],
					[36.451, 141.842],
					[18.812, 121.695],
					[54.09, 121.695],
					[36.451, 121.695],
					[18.812, 96.976],
					[54.09, 96.976],
					[36.451, 96.976],
					[18.812, 76.829],
					[54.09, 76.829],
					[36.451, 76.829],
					[85.735, 141.842],
					[121.012, 141.842],
					[103.374, 141.842],
					[85.735, 121.695],
					[121.012, 121.695],
					[103.374, 121.695],
					[85.735, 96.976],
					[121.012, 96.976],
					[103.374, 96.976],
					[85.735, 76.829],
					[474.475, 82.955],
					[494.622, 82.955],
					[474.475, 100.594],
					[494.622, 100.594],
					[474.475, 118.233],
					[494.622, 118.233],
					[474.475, 135.872],
					[494.622, 135.872],
					[474.475, 153.51],
					[494.622, 153.51],
					[121.012, 76.829],
					[103.374, 76.829]
				]
			};
		// ]]>
	</script>

	<g class="walls">
		<g class="innerWalls">
			<polyline points="16.811,179.183 117.643,179.183 117.643,223.262"/>
			<polyline points="16.811,49.543 43.245,49.543 53.623,49.543 92.241,49.543"/>
			<line x1="55.378" y1="22.179" x2="55.378" y2="49.543"/>
			<line x1="160.856" y1="183.881" x2="160.856" y2="223.533"/>
			<polyline points="340.577,224.152 340.577,176.24 247.232,176.24 247.232,224.152"/>
			<line x1="117.643" y1="183.881" x2="247.232" y2="183.881"/>
			<line x1="340.525" y1="183.778" x2="519.678" y2="183.778"/>
			<line x1="463.175" y1="183.778" x2="463.175" y2="224.152"/>
			<line x1="420.034" y1="183.778" x2="420.034" y2="224.152"/>
			<line x1="376.872" y1="183.778" x2="376.872" y2="224.152"/>
			<line x1="84.807" y1="179.183" x2="84.807" y2="220.641"/>
			<line x1="211.504" y1="183.881" x2="211.504" y2="223.842"/>
			<polyline points="160.237,136.538 259.364,136.538 259.364,81.036"/>
			<line x1="196.532" y1="136.692" x2="196.532" y2="81.036"/>
			<polyline points="318.944,81.036 318.944,136.538 379.195,136.538 379.195,81.036"/>
			<line x1="345.172" y1="81.036" x2="345.172" y2="136.538"/>
			<line x1="18.812" y1="94.976" x2="70.237" y2="94.976"/>
			<line x1="85.735" y1="94.976" x2="137.16" y2="94.976"/>
			<line x1="18.812" y1="139.842" x2="70.237" y2="139.842"/>
			<line x1="85.735" y1="139.842" x2="137.16" y2="139.842"/>
			<line x1="492.521" y1="169.658" x2="492.521" y2="82.854"/>
		</g>
		<polyline points="395.872,81.036 537.852,81.036 537.852,107.78 523.189,107.78 523.189,124.405 535.27,124.405 535.27,150.942 519.678,150.942 519.678,236.233 479.098,236.233 479.098,224.152 463.175,224.152 463.175,236.233 435.626,236.233 435.626,224.152 420.034,224.152 420.034,236.233 392.361,236.233 392.361,224.152 376.872,224.152 376.872,236.233 349.199,236.233 349.199,224.152 333.091,224.152 333.091,236.233 306.037,236.233 306.037,224.152 289.826,224.152 289.826,236.233 262.772,236.233 262.772,224.152 247.232,224.152 247.232,236.233 219.61,236.233 219.61,223.842 203.502,223.842 203.502,236.233 176.345,236.233 176.345,223.533 160.856,223.533 160.856,235.924 133.183,235.924 133.183,223.262 117.643,223.262 117.643,236.233 89.918,236.233 89.918,220.641 4.73,220.641 4.73,179.183 16.811,179.183 16.811,163.333 4.73,163.333 4.73,136.589 16.811,136.589 16.811,120.274 4.73,120.274 4.73,93.324 16.811,93.324 16.811,76.751 4.937,76.751 4.937,49.543 16.811,49.543 16.811,36.326 4.73,36.326 4.73,6.329 55.378,6.329 55.378,22.179 92.241,22.179 92.241,60.746 148.568,60.746"/>
		<line x1="298.293" y1="81.036" x2="385.546" y2="81.036"/>
		<polyline points="158.688,60.746 159.565,60.746 159.565,81.036 196.532,81.036 288.173,81.036"/>
	</g>

	<g class="seats"></g>
	<g class="photos"></g>
</svg>