<svg version="1.1" viewBox="0 0 1070.792 702.024" class="oc">
	<script type="text/javascript">
		// <![CDATA[
			this.SEATS = this.SEATS || {};
			this.SEATS.oc = {
				iconSize: 47.828,
				seatPositions: [
					[297.29, 201.729],
					[297.29, 285.508],
					[297.29, 369.288],
					[297.29, 453.066],
					[356.214, 201.729],
					[356.214, 285.508],
					[356.214, 369.288],
					[356.214, 453.066],
					[87.037, 201.729],
					[87.037, 285.507],
					[87.037, 369.287],
					[87.037, 453.066],
					[145.96, 201.729],
					[145.96, 285.507],
					[145.96, 369.287],
					[135.473, 21.784],
					[135.473, 107.315],
					[311.036, 21.784],
					[311.036, 107.315],
					[145.96, 453.066],
					[671.96, 198.797],
					[671.96, 306.365],
					[725.807, 252.581],
					[619.531, 252.581],
					[822.237, 376.48],
					[822.236, 433.47],
					[764.494, 376.48],
					[764.494, 433.47],
					[904.733, 559.623],
					[904.733, 616.613],
					[848.991, 559.623],
					[848.991, 616.613],
					[706.752, 376.48],
					[706.752, 433.47]
				]
			};
		// ]]>
	</script>

	<polygon class="background" points="21.214,691.394 13.833,691.394 13.833,13.644 768.999,13.644 1062,304.394 960,403.394 983.571,426.824 960,451.394 960,691.394 843.361,691.394 813.831,691.394 417.859,691.394 362.154,691.394 49.402,691.394"/>
	<g class="walls">
		<g class="innerWalls">
			<polyline points="600.667,553.644 428.167,553.644 428.167,691.394"/>
			<polyline points="13.833,156.144 129.333,156.144 129.333,13.644"/>
			<path d="M469.667,13.644"/>
			<polyline points="310.811,691.394 310.811,552.644 62.311,552.644 62.311,691.394"/>
			<polyline points="310.811,626.644 141.811,626.644 141.811,691.394"/>
			<line x1="350.507" y1="201.729" x2="350.507" y2="500.894"/>
			<line x1="140.253" y1="201.729" x2="140.253" y2="500.894"/>
			<polyline points="600.753,691.394 600.753,216.644 476.092,216.644 476.092,553.644"/>
			<polyline points="831.616,75.781 744,156.144 366,156.144 366,13.644"/>
			<polyline points="744,156.144 760,199.394 961,403.394"/>
			<polyline points="600.753,365.729 699.333,365.729 699.333,489.728 688.666,489.728 688.666,533.728 728.666,533.728 728.666,691.394"/>
			<line x1="688.666" y1="533.728" x2="600.667" y2="533.728"/>
			<polyline points="812.774,252.956 905.283,160.446 892,147.062 897.684,141.34"/>
			<polyline points="892.511,333.882 985.334,241.062 990.329,245.794 996.728,239.623"/>
			<line x1="480" y1="156.144" x2="480" y2="13.644"/>
			<line x1="615" y1="156.144" x2="615" y2="13.644"/>
			<line x1="706.752" y1="428.889" x2="870.063" y2="428.889"/>
			<line x1="848.991" y1="612.032" x2="952.562" y2="612.032"/>
			<line x1="476.092" y1="438.032" x2="600.753" y2="438.032"/>
		</g>
		<polyline points="21.214,691.394 13.833,691.394 13.833,13.644 768.999,13.644 1062,304.394 960,403.394 983.571,426.824 960,451.394 960,691.394 843.361,691.394"/>
		<line x1="362.154" y1="691.394" x2="49.402" y2="691.394"/>
		<line x1="813.831" y1="691.394" x2="417.859" y2="691.394"/>
	</g>
	<g class="roomNames">
		<text x="72" y="94" text-anchor="middle">Laguna</text>
		<text x="422.417" y="94" text-anchor="middle">Newport</text>
		<text x="549.167" y="94" text-anchor="middle">Huntington</text>
		<text x="538.422" y="338.165" text-anchor="middle">Boardroom</text>
		<text x="538.422" y="502.665" text-anchor="middle">Break room</text>
		<text x="512.917" y="628.415" text-anchor="middle">Relaxed Fit</text>
		<text x="369.489" y="627.415" text-anchor="middle">Lobby</text>
		<text x="169.061" y="596.327" text-anchor="middle">Ping-pong</text>
		<text x="225.811" y="664.915" text-anchor="middle">Servers</text>
	</g>
	<g class="seats"></g>
	<g class="photos"></g>
</svg>