<svg version="1.1" viewBox="0 0 1070.792 702.024" class="oc">
	<script type="text/javascript">
		// <![CDATA[
			this.SEATS = this.SEATS || {};
			this.SEATS.oc = {
				iconSize: 47.828,
				seatPositions: [
					[297.29, 201.729],
					[297.29, 285.508],
					[297.29, 369.288],
					[297.29, 453.066],
					[356.214, 201.729],
					[356.214, 285.508],
					[356.214, 369.288],
					[356.214, 453.066],
					[87.037, 201.729],
					[87.037, 285.507],
					[87.037, 369.287],
					[87.037, 453.066],
					[145.96, 201.729],
					[145.96, 285.507],
					[145.96, 369.287],
					[135.473, 16.783],
					[135.473, 115.315],
					[311.036, 16.783],
					[311.036, 115.315],
					[145.96, 453.066],
					[676.96, 216.644],
					[619.531, 275.427],
					[676.96, 275.427],
					[619.531, 216.644],
					[822.237, 376.48],
					[822.236, 433.47],
					[764.494, 376.48],
					[764.494, 433.47],
					[904.733, 559.623],
					[904.733, 616.613],
					[848.991, 559.623],
					[848.991, 616.613],
					[706.752, 376.48],
					[706.752, 433.47],
					[135.473, 66.049],
					[311.036, 66.049],
					[793.249, 559.623],
					[793.249, 616.613]
				]
			};
		// ]]>
	</script>

	<polygon class="background" points="21.214,691.394 13.833,691.394 13.833,13.644 768.999,13.644 1062,304.394 960,403.394 983.571,426.824 960,451.394 960,691.394 843.361,691.394 813.831,691.394 417.859,691.394 362.154,691.394 49.402,691.394"/>
	<g class="walls">
		<g class="innerWalls">
			<polyline points="600.667,553.644 428.167,553.644 428.167,691.394"/>
			<polyline points="13.833,156.144 129.333,156.144 129.333,13.644"/>
			<path d="M469.667,13.644"/>
			<polyline points="310.811,691.394 310.811,552.644 62.311,552.644 62.311,691.394"/>
			<polyline points="310.811,626.644 141.811,626.644 141.811,691.394"/>
			<line x1="350.507" y1="201.729" x2="350.507" y2="500.894"/>
			<line x1="140.253" y1="201.729" x2="140.253" y2="500.894"/>
			<polyline points="600.753,691.394 600.753,216.644 476.092,216.644 476.092,553.644"/>
			<polyline points="831.616,75.781 744,156.144 366,156.144 366,13.644"/>
			<polyline points="744,156.144 760,199.394 961,403.394"/>
			<polyline points="600.753,365.729 699.333,365.729 699.333,489.728 688.666,489.728 688.666,533.728 728.666,533.728 728.666,691.394"/>
			<line x1="688.666" y1="533.728" x2="600.667" y2="533.728"/>
			<polyline points="812.774,252.956 905.283,160.446 892,147.062 897.684,141.34"/>
			<polyline points="892.511,333.882 985.334,241.062 990.329,245.794 996.728,239.623"/>
			<line x1="480" y1="156.144" x2="480" y2="13.644"/>
			<line x1="615" y1="156.144" x2="615" y2="13.644"/>
			<line x1="706.752" y1="428.889" x2="870.063" y2="428.889"/>
			<line x1="793.249" y1="612.032" x2="952.562" y2="612.032"/>
			<line x1="476.092" y1="438.032" x2="600.753" y2="438.032"/>
		</g>
		<polyline points="21.214,691.394 13.833,691.394 13.833,13.644 768.999,13.644 1062,304.394 960,403.394 983.571,426.824 960,451.394 960,691.394 843.361,691.394"/>
		<line x1="362.154" y1="691.394" x2="49.402" y2="691.394"/>
		<line x1="813.831" y1="691.394" x2="417.859" y2="691.394"/>
	</g>
	<g class="roomNames">
		<g class="room" endpoint:id="5445a968e4b0b24893100aa5">
			<text x="72" y="94" text-anchor="middle">Laguna</text>
			<rect class="roomArea" x="13.833" y="13.644" width="115.5" height="142.5"/>
			<rect class="statusBadge" x="121.33" y="15.64" width="6" height="6" />
		</g>
		<g class="room" endpoint:id="5445a959e4b0b24893100a92">
			<text x="422.417" y="94" text-anchor="middle">Newport</text>
			<rect class="roomArea" x="366" y="13.644" width="114" height="142.5"/>
			<rect class="statusBadge" x="472" y="15.64" width="6" height="6" />
		</g>
		<g class="room" endpoint:id="5445a93fe4b0b24893100a60">
			<text x="549.167" y="94" text-anchor="middle">Huntington</text>
			<rect class="roomArea" x="480" y="13.644" width="135" height="142.5"/>
			<rect class="statusBadge" x="607" y="15.64" width="6" height="6" />
		</g>
		<g class="room" endpoint:id="5445a915e4b0b24893100a4b" endpoint:seatingCapacity="14">
			<text x="538.422" y="338.165" text-anchor="middle">Boardroom</text>
			<rect class="roomArea" x="476.092" y="216.644" width="124.661" height="221.388"/>
			<rect class="statusBadge" x="592.75" y="218.64" width="6" height="6" />
 		</g>
 		<g class="room" endpoint:id="5445a9a4e4b0b24893100ab5">
 			<text x="697" y="94" text-anchor="middle">Manhattan</text>
 			<polygon class="roomArea" points="769,13.644 831.62,75.784 744,156.144 615,156.144 615,13.644"/>
			<rect class="statusBadge" x="761" y="15.64" width="6" height="6" />
 		</g>
 		<g class="room" endpoint:id="5445a9bce4b0b24893100ac7">
 			<text x="817" y="169" text-anchor="middle">Venice</text>
 			<polygon class="roomArea" points="892,147.064 905.28,160.444 812.77,252.954 760,199.394 744,156.144 831.62,75.784 897.68,141.344"/>
 			<rect class="statusBadge" x="0" y="0" transform="matrix(0.7071 -0.7071 0.7071 0.7071 886 141.5)" width="6" height="6" />
 		</g>
 		<g class="room" endpoint:id="5445a9cae4b0b24893100aca">
 			<text x="899" y="245" text-anchor="middle">Santa Monica</text>
 			<polygon class="roomArea" points="996.73,239.624 990.33,245.794 985.33,241.064 892.51,333.884 812.77,252.954 905.28,160.444 892,147.064 897.68,141.344"/>
 			<rect class="statusBadge" x="0" y="0" transform="matrix(0.7071 -0.7071 0.7071 0.7071 979.5 235)" width="6" height="6" />
 		</g>
 		<g class="room" endpoint:id="5445a9d8e4b0b24893100af2">
 			<text x="973" y="319" text-anchor="middle">Malibu</text>
 			<polygon class="roomArea" points="1062,304.394 960.51,402.894 892.51,333.884 985.33,241.064 990.33,245.794 996.73,239.624"/>
 			<rect class="statusBadge" x="0" y="0" transform="matrix(0.7071 -0.7071 0.7071 0.7071 1050 304.39)" width="6" height="6" />
 		</g>
		<text x="538.422" y="502.665" text-anchor="middle">Break room</text>
		<text transform="matrix(1 0 0 1 652 443)" text-anchor="middle">
			<tspan x="0" y="0">Break</tspan>
			<tspan x="0" y="20.16">room</tspan>
		</text>
		<g class="room" endpoint:id="5445a984e4b0b24893100aac">
			<text x="512.917" y="628.415" text-anchor="middle">Redondo</text>
			<rect class="roomArea" x="428.167" y="553.644" width="172.753" height="137.75"/>
			<rect class="statusBadge" x="592.92" y="555.64" width="6" height="6" />
		</g>
		<g class="room" endpoint:id="5446d227e4b0b24893111daa">
			<text x="665" y="617" text-anchor="middle">Hermosa</text>
			<polygon class="roomArea" points="728.67,533.724 728.67,691.394 600.92,691.394 600.92,533.724 688.67,533.724"/>
			<rect class="statusBadge" x="720.67" y="535.72" width="6" height="6" />
		</g>
		<text x="369.489" y="627.415" text-anchor="middle">Lobby</text>
		<text x="169.061" y="596.327" text-anchor="middle">Ping-pong</text>
		<text x="225.811" y="664.915" text-anchor="middle">Servers</text>
	</g>
	<g class="seats"></g>
	<g class="photos"></g>
</svg>