<svg version="1.1" viewBox="0 0 587 788" class="sf">
	<script type="text/javascript">
		// <![CDATA[
			this.SEATS = this.SEATS || {};
			this.SEATS.sf = {
				iconSize: 43.20,
				seatPositions: [
					[374.49, 422.511],
					[328.131, 422.511],
					[281.771, 422.511],
					[235.412, 422.511],
					[189.052, 422.511],
					[142.693, 422.511],
					[96.333, 422.511],
					[374.49, 326.874],
					[328.131, 326.874],
					[281.771, 326.874],
					[235.412, 326.874],
					[189.052, 326.874],
					[142.693, 326.874],
					[374.49, 204.872],
					[328.131, 204.872],
					[281.771, 204.872],
					[235.412, 204.872],
					[189.052, 204.872],
					[374.49, 254.391],
					[328.131, 254.391],
					[281.771, 254.391],
					[235.412, 254.391],
					[189.052, 254.391],
					[374.49, 82.028],
					[328.131, 82.028],
					[281.771, 82.028],
					[235.412, 82.028],
					[189.052, 82.028],
					[374.49, 131.546],
					[328.131, 131.546],
					[281.771, 131.546],
					[235.412, 131.546],
					[189.052, 131.546],
					[390.49, 11.774],
					[344.131, 11.774],
					[297.771, 11.774],
					[251.412, 11.774],
					[205.052, 11.774],
					[158.693, 11.774],
					[112.333, 11.774],
					[65.974, 11.774]
				]
			};
		// ]]>
	</script>
	<polygon class="background" points="150,687.275 150,779.12 10,779.12 10,335.24 33.846,335.24 35.385,328.615 19.231,310.58 139.231,255.539 117.692,191.692 125.385,182.461 37.983,30.923 49.23,30.923 49.23,8.615 567.692,8.615 567.692,154 578.462,154 578.462,196.308 545.385,201.878 545.385,409.22 567.692,409.22 567.692,464 546.923,464 546.923,659.385 493.496,659.385 472.236,659.385 150,659.385 150,666.016"/>
	<g class="walls">
		<g class="innerWalls">
			<polyline points="399.23,659.385 399.23,544.85 193.846,544.85 193.846,659.385"/>
			<line x1="291" y1="544.85" x2="291" y2="659.385"/>
			<line x1="455.385" y1="283.385" x2="545.385" y2="283.385"/>
			<path d="M545.385,485.2"/>
			<line x1="481.539" y1="377.078" x2="545.385" y2="377.078"/>
			<line x1="578.462" y1="196.308" x2="455.385" y2="217.078"/>
			<line x1="455.385" y1="217.078" x2="455.385" y2="283.385"/>
			<line x1="455.385" y1="136.96" x2="455.385" y2="8.615"/>
			<line x1="455.385" y1="136.96" x2="567.692" y2="136.96"/>
			<line x1="189.229" y1="128.387" x2="417.69" y2="128.387"/>
			<line x1="187.833" y1="251.231" x2="417.69" y2="251.231"/>
			<line x1="142" y1="373.233" x2="417.69" y2="373.233"/>
			<line x1="96.333" y1="468.87" x2="417.69" y2="468.87"/>
			<path d="M545.385,283.385"/>
			<polyline points="481.539,283.385 481.539,483.2 545.385,483.2"/>
		</g>
		<polyline points="150,666.016 150,659.385 472.236,659.385 	"/>
		<polyline points="493.496,659.385 546.923,659.385 546.923,464 567.692,464 567.692,409.22 
				545.385,409.22 545.385,201.878 578.462,196.308 578.462,154 567.692,154 567.692,8.615 49.23,8.615 49.23,30.923 37.983,30.923 
				125.385,182.461 117.692,191.692 139.231,255.539 19.231,310.58 35.385,328.615 33.846,335.24 10,335.24 10,779.12 150,779.12 
				150,687.275"/>
	</g>
	<g class="roomNames">
		<text x="513.462" y="337.000" text-anchor="middle">Utilities</text>
		<text transform="matrix(1 0 0 1 244 596)" text-anchor="middle">
			<tspan x="0" y="0">Cable</tspan>
			<tspan x="0" y="20.16">Car</tspan>
		</text>
		<text transform="matrix(1 0 0 1 346 596)" text-anchor="middle">
			<tspan x="0" y="0">Clint</tspan>
			<tspan x="0" y="20.16">Eastwood</tspan>
		</text>
		<text transform="matrix(1 0 0 1 517 425)" text-anchor="middle">
			<tspan x="0" y="0">Full</tspan>
			<tspan x="0" y="20.16">House</tspan>
		</text>
		<text x="501" y="254" text-anchor="middle">Levi's</text>
		<text transform="matrix(1 0 0 1 514 071)" text-anchor="middle">
			<tspan x="0" y="0">Fisherman's</tspan>
			<tspan x="0" y="20.16">Wharf</tspan>
		</text>
	</g>
	<g class="seats"></g>
	<g class="photos"></g>
</svg>