<svg version="1.1" viewBox="0 0 587 788" class="sf">
	<script type="text/javascript">
		// <![CDATA[
			this.SEATS = this.SEATS || {};
			this.SEATS.sf = {
				iconSize: 43.20,
				seatPositions: [
					[374.49, 422.511],
					[328.131, 422.511],
					[281.771, 422.511],
					[235.412, 422.511],
					[189.052, 422.511],
					[142.693, 422.511],
					[61.4, 375.233],
					[374.49, 326.874],
					[328.131, 326.874],
					[281.771, 326.874],
					[235.412, 326.874],
					[189.052, 326.874],
					[142.693, 326.874],
					[374.49, 204.872],
					[328.131, 204.872],
					[281.771, 204.872],
					[235.412, 204.872],
					[189.052, 204.872],
					[374.49, 254.391],
					[328.131, 254.391],
					[281.771, 254.391],
					[235.412, 254.391],
					[189.052, 254.391],
					[374.49, 82.028],
					[328.131, 82.028],
					[281.771, 82.028],
					[235.412, 82.028],
					[189.052, 82.028],
					[374.49, 131.546],
					[328.131, 131.546],
					[281.771, 131.546],
					[235.412, 131.546],
					[189.052, 131.546],
					[390.49, 11.774],
					[344.131, 11.774],
					[297.771, 11.774],
					[251.412, 11.774],
					[205.052, 11.774],
					[158.693, 11.774],
					[112.333, 11.774],
					[65.974, 11.774],
					[61.4, 424.752],
					[101.644, 118.549],
					[122.4, 164.854],
					[15.041, 681.444],
					[61.4, 730.963],
					[15.041, 730.963],
					[15.041, 579.374],
					[15.041, 628.893],
					[61.4, 477.304],
					[15.041, 477.304],
					[15.041, 526.822],
					[15.041, 375.233],
					[15.041, 424.752],
					[514.594, 146.254],
					[61.4, 526.822],
					[61.4, 681.444]
				]
			};
		// ]]>
	</script>
	<polygon class="background" points="150,687.275 150,779.12 10,779.12 10,335.24 33.846,335.24 35.385,328.615 19.231,310.58 139.231,255.539 117.692,191.692 125.385,182.461 37.983,30.923 49.23,30.923 49.23,8.615 567.692,8.615 567.692,154 578.462,154 578.462,196.308 545.385,201.878 545.385,409.22 567.692,409.22 567.692,464 546.923,464 546.923,659.385 493.496,659.385 472.236,659.385 150,659.385 150,666.016"/>
	<g class="walls">
		<g class="innerWalls">
			<polyline points="399.23,659.385 399.23,544.85 193.846,544.85 193.846,659.385"/>
			<line x1="291" y1="544.85" x2="291" y2="659.385"/>
			<line x1="481.539" y1="377.078" x2="545.385" y2="377.078"/>
			<polyline points="545.385,201.878 455.385,217.078 455.385,283.385 545.385,283.385"/>
			<polyline points="567.692,136.96 455.385,136.96 455.385,8.615"/>
			<line x1="189.229" y1="128.387" x2="417.69" y2="128.387"/>
			<line x1="187.833" y1="251.231" x2="417.69" y2="251.231"/>
			<line x1="142" y1="373.233" x2="417.69" y2="373.233"/>
			<line x1="15.041" y1="421.593" x2="104.601" y2="421.593"/>
			<line x1="15.041" y1="523.663" x2="104.601" y2="523.663"/>
			<line x1="15.041" y1="625.733" x2="58.241" y2="625.733"/>
			<line x1="15.041" y1="727.804" x2="104.601" y2="727.804"/>
			<line x1="142.693" y1="468.87" x2="417.69" y2="468.87"/>
			<polyline points="481.539,283.385 481.539,483.2 546.923,483.2"/>
		</g>
		<polyline points="150,666.016 150,659.385 472.236,659.385"/>
		<polyline points="493.496,659.385 546.923,659.385 546.923,464 567.692,464 567.692,409.22 545.385,409.22 545.385,201.878 578.462,196.308 578.462,154 567.692,154 567.692,8.615 49.23,8.615 49.23,30.923 37.983,30.923 139.231,255.539 19.231,310.58 35.385,328.615 33.846,335.24 10,335.24 10,779.12 150,779.12 150,687.275"/>
	</g>
	<g class="roomNames">
		<text x="513.462" y="337.000" text-anchor="middle">Utilities</text>
		<g class="room" endpoint:id="52ddda0fe4b0edef601e6ccc" endpoint:seatingCapacity="8">
			<text transform="matrix(1 0 0 1 244 596)" text-anchor="middle">
				<tspan x="0" y="0">Karl the</tspan>
				<tspan x="0" y="20.16">Fog</tspan>
			</text>
			<rect class="roomArea" x="193.85" y="544.85" width="97.15" height="114.53"/>
			<rect class="statusBadge" x="283" y="546.85" width="6" height="6" />
		</g>
		<g class="room" endpoint:id="54404ecae4b0b248930d31c7" endpoint:seatingCapacity="8">
			<text transform="matrix(1 0 0 1 346 596)" text-anchor="middle">
				<tspan x="0" y="0">Muir</tspan>
				<tspan x="0" y="20.16">Woods</tspan>
			</text>
			<rect class="roomArea" x="291" y="544.85" width="108.23" height="114.53"/>
			<rect class="statusBadge" x="391.23" y="546.85" width="6" height="6" />
		</g>
		<g class="room" endpoint:id="54404f1fe4b0b248930d31e0" endpoint:seatingCapacity="4">
			<text x="525" y="438" class="small" text-anchor="middle">Candlestick</text>
			<polygon class="roomArea" points="567.69,409.22 567.69,464 546.92,464 546.92,483.2 481.54,483.2 481.54,377.08 545.38,377.08 545.38,409.22"/>
			<rect class="statusBadge" x="537.38" y="379.08" width="6" height="6" />
		</g>
		<g class="room" endpoint:id="54404ee9e4b0b248930d31ce" endpoint:seatingCapacity="4">
			<text transform="matrix(1 0 0 1 501 232)" text-anchor="middle">
				<tspan x="0" y="0">Golden</tspan>
				<tspan x="0" y="20.16">Gate</tspan>
				<tspan x="0" y="40.32">Bridge</tspan>
			</text>
			<polygon class="roomArea" points="545.38,201.88 545.38,283.39 481.54,283.39 455.38,283.39 455.38,217.08"/>
			<rect class="statusBadge" x="537.38" y="205.88" width="6" height="6" />
		</g>
		<g class="room" endpoint:id="54404f07e4b0b248930d31d4" endpoint:seatingCapacity="10">
			<text x="514" y="78" text-anchor="middle">The Rock</text>
			<rect class="roomArea" x="455.38" y="8.62" width="112.311" height="128.34"/>
			<rect class="statusBadge" x="559.69" y="10.62" width="6" height="6" />
		</g>
	</g>
	<g class="seats"></g>
	<g class="photos"></g>
</svg>